<?xml version="1.0" encoding="utf-8"?>
<!-- Generator: Adobe Illustrator 16.0.0, SVG Export Plug-In . SVG Version: 6.00 Build 0)  -->
<!DOCTYPE svg PUBLIC "-//W3C//DTD SVG 1.0//EN" "http://www.w3.org/TR/2001/REC-SVG-20010904/DTD/svg10.dtd">
<svg version="1.0" id="Layer_1" xmlns="http://www.w3.org/2000/svg" xmlns:xlink="http://www.w3.org/1999/xlink" x="0px" y="0px"
	 width="620px" height="300px" viewBox="0 0 620 300" enable-background="new 0 0 620 300" xml:space="preserve">
<rect x="408.974" y="124.099" transform="matrix(0.9999 -0.012 0.012 0.9999 -2.367 5.1942)" fill-rule="evenodd" clip-rule="evenodd" fill="#109CD8" width="44.813" height="151.241"/>
<rect x="461.978" y="71.39" transform="matrix(0.9986 0.0536 -0.0536 0.9986 8.5774 -25.7553)" fill-rule="evenodd" clip-rule="evenodd" fill="#109CD8" width="44.813" height="151.242"/>
<rect x="357.95" y="85.187" transform="matrix(0.9975 0.0709 -0.0709 0.9975 12.3562 -26.5581)" fill-rule="evenodd" clip-rule="evenodd" fill="#109CD8" width="44.814" height="151.243"/>
<rect x="311.347" y="27.67" transform="matrix(0.9996 0.0268 -0.0268 0.9996 2.886 -8.9014)" fill-rule="evenodd" clip-rule="evenodd" fill="#82C55B" width="44.814" height="151.241"/>
<rect x="260.931" y="71.39" transform="matrix(0.9987 0.0508 -0.0508 0.9987 7.8264 -14.1909)" fill-rule="evenodd" clip-rule="evenodd" fill="#109CD8" width="44.813" height="151.24"/>
<rect x="210.711" y="49.706" transform="matrix(0.9996 0.0272 -0.0272 0.9996 3.4918 -6.2887)" fill-rule="evenodd" clip-rule="evenodd" fill="#109CD8" width="44.812" height="151.242"/>
<rect x="159.303" y="105.5" transform="matrix(0.9993 -0.0378 0.0378 0.9993 -6.7183 7)" fill-rule="evenodd" clip-rule="evenodd" fill="#109CD8" width="44.811" height="151.243"/>
<rect x="106.569" y="71.388" transform="matrix(0.9989 0.0463 -0.0463 0.9989 6.9395 -5.8096)" fill-rule="evenodd" clip-rule="evenodd" fill="#109CD8" width="44.813" height="151.243"/>
<g>
	<path fill="#FFFFFF" d="M112.945,136.47h9.678l7.182,22.903l7.576-22.903h8.715l-11.518,31.618h-10.467L112.945,136.47z"/>
</g>
<g>
	<path fill="#FFFFFF" d="M175.4,136.47h9.021v31.618H175.4V136.47z"/>
</g>
<g>
	<path fill="#FFFFFF" d="M218.962,136.559h23.736v6.043h-15.064v6.569h14.188v6.043h-14.188v6.744h15.415v6.131h-24.086V136.559z"/>
</g>
<g>
	<path fill="#FFFFFF" d="M276.493,142.732h-9.634v-6.262h28.334v6.262h-9.854v25.356h-8.846V142.732z"/>
</g>
<g>
	<path fill="#FFFFFF" d="M327.06,157.974c0,1.313-0.044,4.467,2.935,4.467c3.196,0,3.196-3.065,3.196-4.729v-21.239h8.891v20.933
		c0,1.313-0.132,5.255-2.146,7.62c-2.759,3.153-7.007,3.767-9.94,3.767c-3.767,0-7.839-0.92-10.204-4.292
		c-1.445-2.059-1.445-4.949-1.445-6.525H327.06z"/>
</g>
<g>
	<path fill="#FFFFFF" d="M376.576,136.47h10.686l12.481,31.618h-9.897l-2.189-6.35H375l-2.146,6.35h-8.759L376.576,136.47z
		 M385.642,155.913l-4.073-13.269h-0.131l-4.38,13.269H385.642z"/>
</g>
<g>
	<path fill="#FFFFFF" d="M418.603,161.125l15.766-18.48h-14.89v-6.087h25.75v6.744l-16.291,18.656h16.642v6.131h-26.977V161.125z"/>
</g>
<g>
	<path fill="#FFFFFF" d="M469.082,161.125l15.766-18.48h-14.89v-6.087h25.75v6.744l-16.291,18.656h16.642v6.131h-26.977V161.125z"/>
</g>
<g>
</g>
<g>
</g>
<g>
</g>
<g>
</g>
<g>
</g>
<g>
</g>
<g>
</g>
<g>
</g>
<g>
</g>
<g>
</g>
<g>
</g>
<g>
</g>
<g>
</g>
<g>
</g>
<g>
</g>
</svg>
