<?xml version="1.0" encoding="utf-8"?>
<!-- Generator: Adobe Illustrator 16.0.4, SVG Export Plug-In . SVG Version: 6.00 Build 0)  -->
<!DOCTYPE svg PUBLIC "-//W3C//DTD SVG 1.0//EN" "http://www.w3.org/TR/2001/REC-SVG-20010904/DTD/svg10.dtd">
<svg version="1.0" id="Layer_1" xmlns="http://www.w3.org/2000/svg" xmlns:xlink="http://www.w3.org/1999/xlink" x="0px" y="0px"
	 width="32px" height="32px" viewBox="0 0 32 32" enable-background="new 0 0 32 32" xml:space="preserve">
<path fill="#414141" d="M31.007,27.231l-7.579-6.447c-0.784-0.705-1.622-1.029-2.299-0.998C22.919,17.691,24,14.971,24,12
	c0-6.627-5.373-12-12-12C5.373,0,0,5.373,0,12c0,6.627,5.373,12,12,12c2.972,0,5.692-1.081,7.788-2.87
	c-0.031,0.677,0.292,1.515,0.998,2.299l6.447,7.58c1.104,1.227,2.905,1.33,4.007,0.23C32.339,30.139,32.235,28.335,31.007,27.231z
	 M12,20c-4.418,0-8-3.583-8-8s3.582-8,8-8s8,3.582,8,8S16.417,20,12,20z"/>
<g>
</g>
<g>
</g>
<g>
</g>
<g>
</g>
<g>
</g>
<g>
</g>
</svg>
