<?xml version="1.0" encoding="utf-8"?>
<!-- Generator: Adobe Illustrator 16.0.4, SVG Export Plug-In . SVG Version: 6.00 Build 0)  -->
<!DOCTYPE svg PUBLIC "-//W3C//DTD SVG 1.0//EN" "http://www.w3.org/TR/2001/REC-SVG-20010904/DTD/svg10.dtd">
<svg version="1.0" xmlns="http://www.w3.org/2000/svg" xmlns:xlink="http://www.w3.org/1999/xlink" x="0px" y="0px" width="80px"
	 height="30px" viewBox="0 0 80 30" enable-background="new 0 0 80 30" xml:space="preserve">
<g id="Layer_1">
	<rect x="-28" y="-18" fill="#00A0E3" width="135" height="67"/>
</g>
<g id="Layer_2">
	<g>
		<path fill="#FFFFFF" d="M18.233,18c0.624,0.4,1.521,0.704,2.481,0.704c1.424,0,2.257-0.753,2.257-1.841
			c0-0.993-0.576-1.585-2.033-2.129c-1.761-0.64-2.849-1.569-2.849-3.073c0-1.681,1.393-2.929,3.489-2.929
			c1.088,0,1.905,0.256,2.369,0.528l-0.384,1.136c-0.336-0.208-1.057-0.512-2.033-0.512c-1.473,0-2.033,0.88-2.033,1.617
			c0,1.008,0.657,1.504,2.145,2.081c1.825,0.704,2.737,1.584,2.737,3.169c0,1.665-1.217,3.122-3.762,3.122
			c-1.041,0-2.177-0.32-2.753-0.705L18.233,18z"/>
		<path fill="#FFFFFF" d="M27.818,9.772c0,0.48-0.336,0.864-0.896,0.864c-0.512,0-0.849-0.384-0.849-0.864
			c0-0.48,0.353-0.88,0.88-0.88C27.465,8.892,27.818,9.276,27.818,9.772z M26.249,19.696v-7.747h1.409v7.747H26.249z"/>
		<path fill="#FFFFFF" d="M36.62,18.561c0,1.792-0.368,2.864-1.104,3.553c-0.769,0.688-1.857,0.929-2.833,0.929
			c-0.928,0-1.953-0.225-2.577-0.641l0.353-1.089c0.512,0.337,1.312,0.625,2.273,0.625c1.44,0,2.497-0.753,2.497-2.721v-0.85h-0.032
			c-0.416,0.721-1.265,1.297-2.465,1.297c-1.921,0-3.297-1.633-3.297-3.777c0-2.625,1.712-4.098,3.505-4.098
			c1.344,0,2.065,0.688,2.417,1.329h0.032l0.048-1.168h1.249c-0.048,0.544-0.064,1.185-0.064,2.113V18.561z M35.211,15.006
			c0-0.24-0.016-0.448-0.08-0.624c-0.256-0.833-0.929-1.505-1.969-1.505c-1.345,0-2.305,1.137-2.305,2.929
			c0,1.521,0.785,2.785,2.289,2.785c0.88,0,1.665-0.544,1.953-1.44c0.08-0.24,0.112-0.513,0.112-0.753V15.006z"/>
		<path fill="#FFFFFF" d="M38.841,14.046c0-0.816-0.017-1.457-0.064-2.097h1.248l0.08,1.28h0.032c0.385-0.72,1.281-1.44,2.562-1.44
			c1.072,0,2.736,0.64,2.736,3.297v4.61h-1.408V15.23c0-1.249-0.465-2.289-1.793-2.289c-0.912,0-1.633,0.656-1.889,1.441
			c-0.063,0.176-0.096,0.416-0.096,0.656v4.658h-1.408V14.046z"/>
		<path fill="#FFFFFF" d="M52.555,8.908v10.789h-1.41V8.908H52.555z"/>
		<path fill="#FFFFFF" d="M55.098,14.046c0-0.816-0.018-1.457-0.064-2.097h1.248l0.08,1.28h0.031c0.385-0.72,1.281-1.44,2.562-1.44
			c1.072,0,2.736,0.64,2.736,3.297v4.61h-1.408V15.23c0-1.249-0.465-2.289-1.793-2.289c-0.912,0-1.633,0.656-1.889,1.441
			c-0.064,0.176-0.096,0.416-0.096,0.656v4.658h-1.408V14.046z"/>
	</g>
	<g>
	</g>
	<g>
	</g>
	<g>
	</g>
	<g>
	</g>
	<g>
	</g>
	<g>
	</g>
	<g>
	</g>
	<g>
	</g>
	<g>
	</g>
	<g>
	</g>
	<g>
	</g>
	<g>
	</g>
	<g>
	</g>
	<g>
	</g>
	<g>
	</g>
</g>
</svg>
