<?xml version="1.0" encoding="utf-8"?>
<!-- Generator: Adobe Illustrator 16.0.0, SVG Export Plug-In . SVG Version: 6.00 Build 0)  -->
<!DOCTYPE svg PUBLIC "-//W3C//DTD SVG 1.0//EN" "http://www.w3.org/TR/2001/REC-SVG-20010904/DTD/svg10.dtd">
<svg version="1.0" xmlns="http://www.w3.org/2000/svg" xmlns:xlink="http://www.w3.org/1999/xlink" x="0px" y="0px" width="620px"
	 height="300px" viewBox="0 0 620 300" enable-background="new 0 0 620 300" xml:space="preserve">
<g id="Layer_3">
	<rect width="620" height="300"/>
</g>
<g id="Layer_4">
	<g>
		<g>
			<path fill="#F4F5F7" d="M109.969,211.786c0.073,1.522,1.247,2.458,3.044,2.458c1.229,0,2.018-0.202,3.1-0.66l-0.128,2.036
				c-1.192,0.439-2.237,0.604-3.54,0.604c-3.705,0-5.264-2.311-5.264-4.97c0-2.99,1.816-5.062,4.824-5.062
				c3.302,0,4.641,2.494,4.641,5.594H109.969z M113.857,210.025c0-1.32-0.752-2.072-1.944-2.072c-1.174,0-1.853,0.771-1.963,2.072
				H113.857z"/>
			<path fill="#F4F5F7" d="M119.209,208.283h-1.468v-1.871h3.999c0.019,0.605-0.073,1.211-0.165,1.816h0.037
				c0.587-1.303,1.651-2.036,3.265-2.036c2.109,0,3.705,1.522,3.705,4.384c0,2.622-1.266,5.648-5.355,5.648
				c-0.422,0-1.045-0.073-1.449-0.165v2.678h1.101v1.871h-4.714v-1.871h1.046V208.283z M121.722,213.877
				c0.348,0.129,1.063,0.257,1.632,0.257c1.852,0,2.659-1.559,2.659-3.265c0-1.32-0.477-2.586-2.072-2.586
				c-1.706,0-2.219,1.229-2.219,2.421V213.877z"/>
			<path fill="#F4F5F7" d="M131.694,208.283h-1.247v-1.871h3.815v7.722h1.1v1.871h-4.713v-1.871h1.045V208.283z M132.887,201.626
				c1.063,0,1.724,0.642,1.724,1.595c0,0.954-0.66,1.596-1.724,1.596c-1.064,0-1.724-0.642-1.724-1.596
				C131.163,202.268,131.823,201.626,132.887,201.626z"/>
			<path fill="#F4F5F7" d="M138.239,204.432l2.568-0.146v2.127h2.568v1.871h-2.568v4.273c0,1.357,0.348,1.688,1.412,1.688
				c0.349,0,0.771-0.11,1.247-0.294l-0.091,1.816c-0.954,0.33-1.614,0.458-2.238,0.458c-1.889,0-2.898-0.88-2.898-2.567v-5.374
				h-1.302v-1.871h1.302V204.432z"/>
			<path fill="#F4F5F7" d="M149.333,206.192c3.228,0,5.044,1.779,5.044,5.117c0,2.861-1.981,4.915-5.044,4.915
				s-5.044-1.65-5.044-4.915C144.289,208.559,146.196,206.192,149.333,206.192z M149.333,214.134c1.578,0,2.256-1.045,2.256-2.77
				c0-2.054-0.678-3.081-2.256-3.081c-1.577,0-2.256,1.339-2.256,3.081C147.077,213.089,147.755,214.134,149.333,214.134z"/>
			<path fill="#F4F5F7" d="M168.789,214.134h0.935v-3.943c0-1.32-0.697-1.797-1.669-1.797c-1.247,0-2.036,1.009-2.036,2.549v3.191
				h1.1v1.871h-4.604v-1.871h0.936v-3.943c0-1.32-0.697-1.797-1.669-1.797c-1.357,0-2.036,1.101-2.036,2.549v3.191h1.101v1.871
				h-4.714v-1.871h1.046v-5.851h-1.248v-1.871h3.76c0,0.661,0,1.284-0.147,1.944h0.037c0.532-1.394,1.724-2.164,3.32-2.164
				c1.577,0,2.568,0.733,2.825,2.164h0.037c0.458-1.339,1.522-2.164,3.209-2.164c2.274,0,3.32,1.449,3.32,3.741v4.2h1.101v1.871
				h-4.604V214.134z"/>
			<path fill="#F4F5F7" d="M176.282,208.283h-1.247v-1.871h3.815v7.722h1.1v1.871h-4.713v-1.871h1.045V208.283z M177.475,201.626
				c1.063,0,1.724,0.642,1.724,1.595c0,0.954-0.66,1.596-1.724,1.596c-1.064,0-1.724-0.642-1.724-1.596
				C175.75,202.268,176.411,201.626,177.475,201.626z"/>
			<path fill="#F4F5F7" d="M181.8,214.134l5.026-5.429c0.165-0.184,0.33-0.312,0.477-0.385v-0.037h-2.989l-0.074,1.266h-2.201
				l0.073-3.137h8.327v1.853l-4.97,5.43c-0.184,0.201-0.385,0.348-0.532,0.403v0.036h3.301l0.037-1.339h2.256l-0.146,3.21H181.8
				V214.134z"/>
			<path fill="#F4F5F7" d="M195.075,211.786c0.073,1.522,1.247,2.458,3.044,2.458c1.229,0,2.018-0.202,3.1-0.66l-0.128,2.036
				c-1.192,0.439-2.237,0.604-3.54,0.604c-3.705,0-5.264-2.311-5.264-4.97c0-2.99,1.816-5.062,4.824-5.062
				c3.302,0,4.641,2.494,4.641,5.594H195.075z M198.963,210.025c0-1.32-0.752-2.072-1.944-2.072c-1.174,0-1.853,0.771-1.963,2.072
				H198.963z"/>
			<path fill="#F4F5F7" d="M209.047,208.229c-0.514-0.184-1.009-0.275-1.486-0.275c-1.174,0-1.724,0.477-1.724,1.009
				c0,0.459,0.128,0.642,0.862,0.752l2.018,0.294c2.201,0.312,3.118,1.155,3.118,2.897c0,1.706-1.192,3.319-4.53,3.319
				c-1.155,0-2.751-0.238-3.778-0.604v-2.696h2.311v1.118c0.422,0.147,1.156,0.312,1.706,0.312c0.532,0,1.871-0.165,1.871-1.174
				c0-0.532-0.33-0.808-1.449-0.973l-2.164-0.33c-1.669-0.257-2.384-1.174-2.384-2.549c0-2.366,2.238-3.137,4.218-3.137
				c1.027,0,2.311,0.165,3.723,0.642v2.366h-2.311V208.229z"/>
			<path fill="#F4F5F7" d="M220.65,204.432l2.568-0.146v2.127h2.567v1.871h-2.567v4.273c0,1.357,0.348,1.688,1.412,1.688
				c0.349,0,0.771-0.11,1.247-0.294l-0.092,1.816c-0.954,0.33-1.614,0.458-2.237,0.458c-1.889,0-2.898-0.88-2.898-2.567v-5.374
				h-1.302v-1.871h1.302V204.432z"/>
			<path fill="#F4F5F7" d="M227.892,203.771h-1.467V201.9h3.98v4.512c0,0.661,0,1.284-0.146,1.981h0.037
				c0.477-1.266,1.65-2.201,3.319-2.201c2.274,0,3.32,1.449,3.32,3.741v4.2h1.101v1.871h-4.713v-1.871h1.045v-3.943
				c0-1.32-0.697-1.797-1.669-1.797c-1.559,0-2.237,1.101-2.237,2.549v3.191h1.101v1.871h-4.714v-1.871h1.045V203.771z"/>
			<path fill="#F4F5F7" d="M242.505,211.786c0.073,1.522,1.247,2.458,3.044,2.458c1.229,0,2.018-0.202,3.1-0.66l-0.128,2.036
				c-1.192,0.439-2.237,0.604-3.54,0.604c-3.705,0-5.264-2.311-5.264-4.97c0-2.99,1.816-5.062,4.824-5.062
				c3.302,0,4.641,2.494,4.641,5.594H242.505z M246.393,210.025c0-1.32-0.752-2.072-1.944-2.072c-1.174,0-1.853,0.771-1.963,2.072
				H246.393z"/>
			<path fill="#F4F5F7" d="M262.857,209.897c0-1.449-0.605-1.834-1.816-1.834c-0.367,0-1.155,0.109-1.596,0.274v1.284h-2.201v-2.439
				c0.624-0.349,2.127-0.99,3.833-0.99c2.568,0,4.2,0.898,4.2,3.687c0,1.577-0.055,2.897-0.092,4.255h1.082v1.871h-3.228v-0.587
				c0-0.624,0.037-0.954,0.128-1.32h-0.037c-0.642,1.448-1.522,2.127-3.136,2.127c-2.164,0-3.209-1.283-3.209-2.787
				c0-1.376,0.917-2.274,1.926-2.642c0.972-0.349,2.274-0.44,4.145-0.44V209.897z M262.105,211.934
				c-2.091,0-2.751,0.439-2.751,1.265c0,0.569,0.404,1.156,1.413,1.156c1.027,0,2.054-0.66,2.054-2.421H262.105z"/>
			<path fill="#F4F5F7" d="M270.702,211.786c0.073,1.522,1.247,2.458,3.044,2.458c1.229,0,2.018-0.202,3.1-0.66l-0.128,2.036
				c-1.192,0.439-2.237,0.604-3.54,0.604c-3.705,0-5.264-2.311-5.264-4.97c0-2.99,1.816-5.062,4.824-5.062
				c3.302,0,4.641,2.494,4.641,5.594H270.702z M274.59,210.025c0-1.32-0.752-2.072-1.944-2.072c-1.174,0-1.853,0.771-1.963,2.072
				H274.59z"/>
			<path fill="#F4F5F7" d="M284.674,208.229c-0.514-0.184-1.009-0.275-1.486-0.275c-1.174,0-1.724,0.477-1.724,1.009
				c0,0.459,0.128,0.642,0.862,0.752l2.018,0.294c2.201,0.312,3.118,1.155,3.118,2.897c0,1.706-1.192,3.319-4.53,3.319
				c-1.155,0-2.751-0.238-3.778-0.604v-2.696h2.311v1.118c0.422,0.147,1.156,0.312,1.706,0.312c0.532,0,1.871-0.165,1.871-1.174
				c0-0.532-0.33-0.808-1.449-0.973l-2.164-0.33c-1.669-0.257-2.384-1.174-2.384-2.549c0-2.366,2.238-3.137,4.218-3.137
				c1.027,0,2.311,0.165,3.723,0.642v2.366h-2.311V208.229z"/>
			<path fill="#F4F5F7" d="M290.392,204.432l2.568-0.146v2.127h2.567v1.871h-2.567v4.273c0,1.357,0.348,1.688,1.412,1.688
				c0.349,0,0.771-0.11,1.247-0.294l-0.092,1.816c-0.954,0.33-1.614,0.458-2.237,0.458c-1.889,0-2.898-0.88-2.898-2.567v-5.374
				h-1.302v-1.871h1.302V204.432z"/>
			<path fill="#F4F5F7" d="M297.634,203.771h-1.467V201.9h3.98v4.512c0,0.661,0,1.284-0.146,1.981h0.037
				c0.477-1.266,1.65-2.201,3.32-2.201c2.274,0,3.319,1.449,3.319,3.741v4.2h1.101v1.871h-4.714v-1.871h1.046v-3.943
				c0-1.32-0.697-1.797-1.669-1.797c-1.559,0-2.237,1.101-2.237,2.549v3.191h1.1v1.871h-4.713v-1.871h1.045V203.771z"/>
			<path fill="#F4F5F7" d="M312.247,211.786c0.073,1.522,1.247,2.458,3.044,2.458c1.229,0,2.018-0.202,3.1-0.66l-0.128,2.036
				c-1.192,0.439-2.237,0.604-3.54,0.604c-3.705,0-5.264-2.311-5.264-4.97c0-2.99,1.816-5.062,4.824-5.062
				c3.302,0,4.641,2.494,4.641,5.594H312.247z M316.135,210.025c0-1.32-0.752-2.072-1.943-2.072c-1.174,0-1.853,0.771-1.963,2.072
				H316.135z"/>
			<path fill="#F4F5F7" d="M321.633,204.432l2.568-0.146v2.127h2.567v1.871h-2.567v4.273c0,1.357,0.348,1.688,1.412,1.688
				c0.349,0,0.771-0.11,1.247-0.294l-0.092,1.816c-0.954,0.33-1.614,0.458-2.237,0.458c-1.89,0-2.898-0.88-2.898-2.567v-5.374
				h-1.302v-1.871h1.302V204.432z"/>
			<path fill="#F4F5F7" d="M328.875,208.283h-1.247v-1.871h3.814v7.722h1.101v1.871h-4.714v-1.871h1.046V208.283z M330.067,201.626
				c1.063,0,1.724,0.642,1.724,1.595c0,0.954-0.66,1.596-1.724,1.596c-1.064,0-1.725-0.642-1.725-1.596
				C328.343,202.268,329.003,201.626,330.067,201.626z"/>
			<path fill="#F4F5F7" d="M340.097,208.173c-0.349-0.073-0.568-0.109-0.88-0.109c-1.706,0-2.421,1.559-2.421,2.879
				c0,1.633,0.844,3.191,3.044,3.191c0.862,0,1.651-0.184,2.403-0.531l-0.147,2.164c-0.935,0.349-1.596,0.458-2.879,0.458
				c-3.265,0-4.989-2.237-4.989-5.007c0-3.1,1.981-5.025,5.044-5.025c1.155,0,2.146,0.184,3.026,0.459v2.806h-2.201V208.173z"/>
			<path fill="#F4F5F7" d="M356.011,209.897c0-1.449-0.604-1.834-1.815-1.834c-0.367,0-1.155,0.109-1.596,0.274v1.284h-2.201v-2.439
				c0.624-0.349,2.128-0.99,3.834-0.99c2.567,0,4.2,0.898,4.2,3.687c0,1.577-0.056,2.897-0.092,4.255h1.082v1.871h-3.229v-0.587
				c0-0.624,0.037-0.954,0.129-1.32h-0.037c-0.642,1.448-1.522,2.127-3.136,2.127c-2.165,0-3.21-1.283-3.21-2.787
				c0-1.376,0.917-2.274,1.926-2.642c0.972-0.349,2.274-0.44,4.145-0.44V209.897z M355.259,211.934
				c-2.091,0-2.751,0.439-2.751,1.265c0,0.569,0.403,1.156,1.412,1.156c1.027,0,2.055-0.66,2.055-2.421H355.259z"/>
			<path fill="#F4F5F7" d="M362.426,208.283h-1.247v-1.871h3.723c0,0.661-0.036,1.303-0.165,2.201h0.037
				c0.385-1.614,1.284-2.421,2.751-2.421c0.312,0,0.568,0.055,0.844,0.11l-0.165,2.292c-0.275-0.055-0.568-0.092-0.825-0.092
				c-1.394,0-2.385,0.954-2.385,2.531v3.1h1.211v1.871h-4.824v-1.871h1.046V208.283z"/>
			<path fill="#F4F5F7" d="M370.529,204.432l2.567-0.146v2.127h2.568v1.871h-2.568v4.273c0,1.357,0.349,1.688,1.413,1.688
				c0.348,0,0.77-0.11,1.247-0.294l-0.092,1.816c-0.954,0.33-1.614,0.458-2.238,0.458c-1.889,0-2.897-0.88-2.897-2.567v-5.374
				h-1.302v-1.871h1.302V204.432z"/>
			<path fill="#F4F5F7" d="M377.771,208.283h-1.247v-1.871h3.814v7.722h1.101v1.871h-4.714v-1.871h1.046V208.283z M378.964,201.626
				c1.063,0,1.724,0.642,1.724,1.595c0,0.954-0.66,1.596-1.724,1.596c-1.064,0-1.725-0.642-1.725-1.596
				C377.239,202.268,377.899,201.626,378.964,201.626z"/>
			<path fill="#F4F5F7" d="M388.901,208.229c-0.514-0.184-1.009-0.275-1.485-0.275c-1.174,0-1.724,0.477-1.724,1.009
				c0,0.459,0.128,0.642,0.861,0.752l2.018,0.294c2.201,0.312,3.118,1.155,3.118,2.897c0,1.706-1.192,3.319-4.53,3.319
				c-1.155,0-2.751-0.238-3.778-0.604v-2.696h2.312v1.118c0.422,0.147,1.155,0.312,1.705,0.312c0.532,0,1.871-0.165,1.871-1.174
				c0-0.532-0.33-0.808-1.449-0.973l-2.164-0.33c-1.669-0.257-2.385-1.174-2.385-2.549c0-2.366,2.238-3.137,4.219-3.137
				c1.027,0,2.312,0.165,3.724,0.642v2.366h-2.312V208.229z"/>
			<path fill="#F4F5F7" d="M394.619,204.432l2.567-0.146v2.127h2.568v1.871h-2.568v4.273c0,1.357,0.349,1.688,1.413,1.688
				c0.348,0,0.77-0.11,1.247-0.294l-0.092,1.816c-0.954,0.33-1.614,0.458-2.238,0.458c-1.889,0-2.897-0.88-2.897-2.567v-5.374
				h-1.302v-1.871h1.302V204.432z"/>
			<path fill="#F4F5F7" d="M402.026,208.283h-1.247v-1.871h3.724c0,0.661-0.037,1.303-0.166,2.201h0.037
				c0.385-1.614,1.284-2.421,2.751-2.421c0.312,0,0.568,0.055,0.844,0.11l-0.165,2.292c-0.275-0.055-0.568-0.092-0.825-0.092
				c-1.394,0-2.385,0.954-2.385,2.531v3.1h1.211v1.871h-4.823v-1.871h1.045V208.283z"/>
			<path fill="#F4F5F7" d="M415.101,206.412h4.292v1.871h-0.881l-2.953,7.924c-1.357,3.668-2.476,4.621-4.86,4.621
				c-0.385,0-0.917-0.109-1.394-0.22v-1.98c0.477,0.128,1.009,0.22,1.394,0.22c1.082,0,1.504-0.422,2.403-2.201l-3.669-8.363h-0.88
				v-1.871h4.769v1.871h-0.99c0.146,0.184,0.257,0.422,0.349,0.66l1.21,3.265c0.184,0.514,0.367,1.247,0.44,1.816h0.036
				c0.074-0.569,0.257-1.303,0.44-1.816l1.138-3.265c0.092-0.238,0.201-0.477,0.348-0.66h-1.191V206.412z"/>
			<path fill="#F4F5F7" d="M431.527,206.192c3.229,0,5.044,1.779,5.044,5.117c0,2.861-1.98,4.915-5.044,4.915
				c-3.062,0-5.044-1.65-5.044-4.915C426.483,208.559,428.391,206.192,431.527,206.192z M431.527,214.134
				c1.577,0,2.256-1.045,2.256-2.77c0-2.054-0.679-3.081-2.256-3.081s-2.256,1.339-2.256,3.081
				C429.271,213.089,429.95,214.134,431.527,214.134z"/>
			<path fill="#F4F5F7" d="M439.208,208.283h-1.32v-1.871h1.32v-1.026c0-2.513,1.339-3.76,4.236-3.76
				c0.495,0,1.027,0.036,1.834,0.201v1.871c-0.403-0.146-0.825-0.202-1.21-0.202c-1.651,0-2.293,0.66-2.293,1.926v0.99h2.018v1.871
				h-2.018v5.851h1.376v1.871h-5.044v-1.871h1.101V208.283z"/>
		</g>
		<g>
			<path fill="#00865C" d="M116.981,247.604c0,4.131,0.944,8.263,5.902,8.263c2.066,0,5.43-1.594,5.961-5.076h6.846
				c-0.944,7.083-7.85,10.152-14.224,10.152c-10.092,0-14.932-5.607-14.932-14.696c0-9.148,6.492-14.696,14.932-14.696
				c9.621,0,14.992,6.846,14.992,16.054H116.981z M126.011,242.883v-1.535c0-3.01-1.594-5.075-4.427-5.075
				c-2.892,0-4.485,2.065-4.485,5.075v1.535H126.011z"/>
			<path fill="#F4F5F7" d="M154.343,252.798c0,1.652,0.413,2.538,2.125,2.538h2.42v4.722h-19.005v-4.722h2.538
				c1.712,0,2.125-0.886,2.125-2.538v-24.611c0-1.652-0.413-2.538-2.125-2.538h-2.715v-4.722h14.637V252.798z"/>
			<path fill="#F2C32F" d="M172.759,247.604c0,4.131,0.944,8.263,5.902,8.263c2.066,0,5.43-1.594,5.961-5.076h6.846
				c-0.944,7.083-7.85,10.152-14.224,10.152c-10.092,0-14.932-5.607-14.932-14.696c0-9.148,6.492-14.696,14.932-14.696
				c9.621,0,14.992,6.846,14.992,16.054H172.759z M181.789,242.883v-1.535c0-3.01-1.594-5.075-4.427-5.075
				c-2.892,0-4.485,2.065-4.485,5.075v1.535H181.789z"/>
			<path fill="#F4F5F7" d="M221.866,250.496c-0.236,7.555-5.607,10.447-12.217,10.447c-8.794,0-14.637-4.84-14.637-14.696
				s7.083-14.696,14.637-14.696c6.315,0,12.217,3.068,12.217,9.562c0,3.128-1.947,5.783-5.253,5.783
				c-2.833,0-5.193-1.18-5.193-4.309c0-2.715,1.889-4.308,4.544-4.308c-1.062-1.299-2.892-2.007-4.722-2.007
				c-3.01,0-5.784,3.01-5.784,9.797c0,6.788,1.711,9.798,5.784,9.798c3.069,0,4.485-2.656,4.781-5.371H221.866z"/>
			<path fill="#CF6733" d="M238.1,221.458v10.978h7.259v4.722H238.1v16.231c0,1.239,0.649,2.242,2.006,2.242
				c2.243,0,2.833-1.594,2.833-4.309v-4.604h4.722v5.253c0,5.784-2.833,8.972-9.916,8.972c-6.079,0-9.443-2.951-9.443-8.972v-14.814
				h-3.954v-4.722c5.902,0,7.437-6.079,7.909-10.978H238.1z"/>
			<path fill="#F4F5F7" d="M250.376,232.436h13.929v4.722h0.118c1.181-2.833,3.423-5.606,6.906-5.606
				c3.659,0,6.728,2.833,6.728,6.729c0,2.537-1.948,5.253-4.722,5.253c-2.479,0-4.722-1.181-4.722-3.896
				c0-2.007,1.122-3.246,3.069-3.601c-0.59-0.59-1.122-0.649-1.889-0.649c-3.069,0-5.076,3.954-5.076,6.847v10.564
				c0,1.652,0.413,2.538,2.125,2.538h2.42v4.722h-18.887v-4.722h2.42c1.711,0,2.125-0.886,2.125-2.538v-13.103
				c0-1.652-0.413-2.538-2.125-2.538h-2.42V232.436z"/>
			<path fill="#BC2736" d="M295.352,252.798c0,1.652,0.413,2.538,2.125,2.538h2.42v4.722h-19.005v-4.722h2.538
				c1.712,0,2.125-0.886,2.125-2.538v-13.103c0-1.652-0.413-2.538-2.125-2.538h-2.715v-4.722h14.637V252.798z M295.352,224.881
				c0,2.893-2.243,5.135-5.135,5.135s-5.135-2.242-5.135-5.135c0-2.892,2.243-5.135,5.135-5.135S295.352,221.989,295.352,224.881z"
				/>
			<path fill="#F4F5F7" d="M330.058,250.496c-0.236,7.555-5.606,10.447-12.217,10.447c-8.794,0-14.638-4.84-14.638-14.696
				s7.083-14.696,14.638-14.696c6.315,0,12.217,3.068,12.217,9.562c0,3.128-1.947,5.783-5.253,5.783
				c-2.833,0-5.193-1.18-5.193-4.309c0-2.715,1.889-4.308,4.545-4.308c-1.062-1.299-2.893-2.007-4.722-2.007
				c-3.011,0-5.784,3.01-5.784,9.797c0,6.788,1.711,9.798,5.784,9.798c3.068,0,4.485-2.656,4.78-5.371H330.058z"/>
			<path fill="#068BC1" d="M371.906,220.927l6.787,24.021h0.118l6.965-24.021h21.011v5.193h-3.246c-1.476,0-2.302,0.886-2.302,2.361
				v24.021c0,1.476,0.826,2.361,2.302,2.361h3.246v5.193h-21.425v-5.193h2.479c1.476,0,2.302-0.886,2.302-2.361v-24.907h-0.118
				l-9.267,32.462h-8.617l-9.207-33.052h-0.118v25.497c0,1.476,0.826,2.361,2.302,2.361h2.479v5.193H350.54v-5.193h3.542
				c1.476,0,2.302-0.886,2.302-2.361v-24.021c0-1.476-0.826-2.361-2.302-2.361h-3.542v-5.193H371.906z"/>
			<path fill="#F4F5F7" d="M424.853,252.798c0,1.652,0.413,2.538,2.124,2.538h2.42v4.722h-19.005v-4.722h2.538
				c1.712,0,2.125-0.886,2.125-2.538v-13.103c0-1.652-0.413-2.538-2.125-2.538h-2.715v-4.722h14.638V252.798z M424.853,224.881
				c0,2.893-2.243,5.135-5.135,5.135c-2.893,0-5.135-2.242-5.135-5.135c0-2.892,2.242-5.135,5.135-5.135
				C422.609,219.746,424.853,221.989,424.853,224.881z"/>
			<path fill="#C84334" d="M447.812,252.798c0,1.652,0.413,2.538,2.124,2.538h2.42v4.722h-19.005v-4.722h2.538
				c1.712,0,2.125-0.886,2.125-2.538v-24.611c0-1.652-0.413-2.538-2.125-2.538h-2.715v-4.722h14.638V252.798z"/>
			<path fill="#F4F5F7" d="M466.228,247.604c0,4.131,0.944,8.263,5.902,8.263c2.065,0,5.43-1.594,5.961-5.076h6.847
				c-0.944,7.083-7.851,10.152-14.225,10.152c-10.093,0-14.933-5.607-14.933-14.696c0-9.148,6.493-14.696,14.933-14.696
				c9.62,0,14.991,6.846,14.991,16.054H466.228z M475.258,242.883v-1.535c0-3.01-1.594-5.075-4.427-5.075
				c-2.892,0-4.485,2.065-4.485,5.075v1.535H475.258z"/>
			<path fill="#0695A4" d="M494.442,250.142c0.236,1.712,1.416,3.247,2.951,4.368c1.534,1.062,3.423,1.712,5.075,1.712
				c1.712,0,5.017,0,5.017-2.598c0-4.957-18.296-1.947-18.296-12.748c0-7.083,7.318-9.325,13.221-9.325
				c3.128,0,6.434,0.944,9.148,2.479l0.708-1.771h4.072v8.854h-4.485c-0.591-1.712-1.652-2.833-3.01-3.66
				c-1.358-0.826-2.951-1.18-4.663-1.18c-1.357,0-4.545,0.295-4.545,2.302c0,5.075,18.297,1.239,18.297,12.748
				c0,7.142-6.552,9.621-12.631,9.621c-3.659,0-7.318-0.531-10.388-2.656l-0.885,2.007h-4.427v-10.152H494.442z"/>
		</g>
		<g>
			<path fill="#F4F5F7" d="M278.88,114.028c0,3.566,0.892,5.476,4.584,5.476h5.221v10.188h-41.006v-10.188h5.476
				c3.693,0,4.584-1.91,4.584-5.476V60.923c0-3.566-0.892-5.476-4.584-5.476h-5.858V45.259h31.583V114.028z"/>
			<path fill="#F6CA31" d="M369.042,107.916v7.004c0,12.735-4.839,16.683-18.975,16.683c-6.113,0-12.099-2.929-14.137-9.042
				c-5.221,6.24-11.334,9.042-19.611,9.042c-12.099,0-19.612-4.712-19.612-17.702c0-24.069,37.823-9.933,37.823-26.616
				c0-8.405-5.349-11.207-12.353-11.207c-3.438,0-7.005,0.509-10.061,2.419v0.255c3.82,0.509,8.022,2.547,8.022,7.004
				c0,5.603-4.967,8.023-10.061,8.023c-5.985,0-11.08-3.438-11.08-9.424c0-14.136,19.23-16.173,29.545-16.173
				c17.446,0,26.871,4.075,26.871,22.668v23.687c0,3.693,0.382,5.094,2.419,5.094c2.802,0,4.203-1.656,4.203-8.787v-2.929H369.042z
				 M334.275,100.274c-6.112,3.566-16.428,4.33-16.428,12.226c0,5.222,3.312,7.132,7.259,7.132c7.259,0,9.169-5.349,9.169-10.697
				V100.274z"/>
			<path fill="#F4F5F7" d="M431.568,109.062c-0.51,16.301-12.099,22.541-26.361,22.541c-18.976,0-31.583-10.442-31.583-31.71
				s15.282-31.71,31.583-31.71c13.626,0,26.361,6.622,26.361,20.63c0,6.75-4.203,12.48-11.334,12.48
				c-6.113,0-11.207-2.547-11.207-9.296c0-5.858,4.075-9.297,9.806-9.297c-2.292-2.802-6.24-4.33-10.188-4.33
				c-6.495,0-12.48,6.495-12.48,21.14c0,14.646,3.693,21.14,12.48,21.14c6.622,0,9.679-5.73,10.315-11.589H431.568z"/>
			<path fill="#009597" d="M445.958,60.923c0-3.566-0.892-5.476-4.585-5.476h-4.585V45.259h30.31V97.6l15.919-12.735
				c1.655-1.273,2.037-2.674,2.037-3.184c0-1.019-1.273-1.401-2.802-1.401h-6.367V70.093h37.187v10.188h-3.312
				c-3.438,0-4.712,0.509-6.622,2.038l-10.825,8.66l15.664,25.215c1.528,2.419,3.185,3.311,5.985,3.311h3.185v10.188H478.56v-10.188
				h3.565c2.037,0,2.547-0.637,2.547-1.656c0-0.891-0.382-1.783-1.019-2.801l-6.877-11.462l-9.679,8.15v2.292
				c0,4.33,0.892,5.476,4.585,5.476h2.037v10.188h-37.059v-10.188h4.712c3.693,0,4.585-1.91,4.585-5.476V60.923z"/>
		</g>
		<g>
			<path fill="#0091C4" d="M268.393,174.731c0,6.486,1.483,12.974,9.267,12.974c3.243,0,8.525-2.502,9.359-7.97h10.75
				c-1.483,11.12-12.325,15.938-22.333,15.938c-15.846,0-23.444-8.803-23.444-23.073c0-14.363,10.193-23.074,23.444-23.074
				c15.105,0,23.538,10.749,23.538,25.205H268.393z M282.571,167.318v-2.409c0-4.727-2.502-7.97-6.95-7.97
				c-4.541,0-7.042,3.243-7.042,7.97v2.409H282.571z"/>
			<path fill="#F4F5F7" d="M356.608,178.438v5.097c0,9.267-3.521,12.139-13.807,12.139c-4.448,0-8.804-2.131-10.286-6.579
				c-3.8,4.541-8.247,6.579-14.271,6.579c-8.804,0-14.271-3.429-14.271-12.88c0-17.515,27.522-7.229,27.522-19.368
				c0-6.115-3.893-8.154-8.988-8.154c-2.502,0-5.097,0.371-7.321,1.761v0.186c2.78,0.37,5.838,1.854,5.838,5.097
				c0,4.077-3.613,5.838-7.32,5.838c-4.355,0-8.062-2.502-8.062-6.857c0-10.286,13.993-11.769,21.499-11.769
				c12.695,0,19.553,2.966,19.553,16.494v17.236c0,2.688,0.278,3.707,1.761,3.707c2.038,0,3.058-1.205,3.058-6.395v-2.131H356.608z
				 M331.311,172.878c-4.447,2.595-11.954,3.151-11.954,8.896c0,3.799,2.41,5.189,5.282,5.189c5.282,0,6.672-3.893,6.672-7.784
				V172.878z"/>
			<path fill="#D76B31" d="M395.988,194.284v-7.136h-0.186c-4.077,5.931-8.433,8.525-15.938,8.525
				c-10.563,0-14.085-4.54-14.085-14.548v-18.812c0-2.595-0.649-3.985-3.336-3.985h-3.059v-7.413h21.777v27.337
				c0,6.579,0,9.081,7.135,9.081c4.263,0,6.95-3.984,6.95-7.876v-17.144c0-2.595-0.648-3.985-3.336-3.985h-4.077v-7.413h22.796
				v31.97c0,2.595,0.648,3.985,3.336,3.985h3.336v7.413H395.988z"/>
			<path fill="#F4F5F7" d="M443.059,133.68v17.236h11.398v7.413h-11.398v25.483c0,1.946,1.02,3.521,3.151,3.521
				c3.521,0,4.447-2.502,4.447-6.765v-7.228h7.414v8.247c0,9.081-4.448,14.085-15.568,14.085c-9.545,0-14.826-4.633-14.826-14.085
				v-23.26h-6.209v-7.413c9.267,0,11.676-9.544,12.417-17.236H443.059z"/>
			<path fill="#008555" d="M515.243,150.916v7.413h-1.761c-3.614,0-4.448,2.132-5.468,4.634l-12.324,30.024
				c-4.818,11.676-9.638,20.942-19.553,20.942c-7.784,0-13.9-3.429-13.9-11.954c0-4.911,3.151-7.877,7.97-7.877
				c3.614,0,6.95,2.225,6.95,6.116s-1.668,5.931-4.911,5.931c-0.834,0-1.854-0.093-2.595-0.371c0.277,2.225,3.521,2.41,5.281,2.41
				c5.653,0,7.97-5.931,10.009-11.12L470.3,164.075c-1.391-3.429-2.316-5.746-4.727-5.746h-2.965v-7.413h28.078v7.413h-3.059
				c-2.038,0-3.058,0.278-3.058,1.761c0,0.557,0.186,1.112,0.556,1.946l7.599,17.144h0.186l6.579-16.865
				c0.371-0.927,0.557-1.854,0.557-2.502c0-0.834-0.741-1.483-2.78-1.483h-2.688v-7.413H515.243z"/>
		</g>
		<g>
			<path fill="#B72231" d="M116.866,74.495c0-5.705-3.194-9.128-8.899-9.128H94.959V45.286h98.353
				c32.86,0,48.377,14.833,48.377,35.37c0,20.31-14.148,31.491-32.632,35.827v0.457c19.397,5.933,39.934,11.638,39.934,39.021
				c0,29.209-17.343,40.619-61.612,40.619H95.188v-20.081h12.779c5.705,0,8.899-3.423,8.899-9.128V74.495z M159.767,108.04h12.551
				c15.517,0,26.471-4.792,26.471-21.451s-10.954-21.222-26.471-21.222h-12.551V108.04z M159.767,176.498h15.289
				c16.202,0,28.981-4.564,28.981-24.188c0-19.625-12.779-24.189-28.981-24.189h-15.289V176.498z"/>
		</g>
	</g>
	<g>
	</g>
	<g>
	</g>
	<g>
	</g>
	<g>
	</g>
	<g>
	</g>
	<g>
	</g>
	<g>
	</g>
	<g>
	</g>
	<g>
	</g>
	<g>
	</g>
	<g>
	</g>
	<g>
	</g>
	<g>
	</g>
	<g>
	</g>
	<g>
	</g>
</g>
</svg>
