<svg xmlns="http://www.w3.org/2000/svg" width="620" height="300" version="1">
  <path d="M61.545 114.96c0 3.666.078 14.274.156 15.366.16 1.717.94 2.496 2.58 2.496h4.99c.55 0 .63.234.63.547v1.87c0 .39-.07.62-.7.62-1.09 0-3.51-.24-10.84-.24-6.86 0-9.9.23-10.76.23-.54 0-.62-.24-.62-.55v-1.95c0-.39.08-.55.47-.55h3.35c2.65 0 3.2-.39 3.43-2.5.08-.78.31-12.95.31-22v-8.97c0-5.15-.07-13.65-.15-14.43-.15-1.56-.93-1.72-3.04-1.72H46.9c-.39 0-.47-.16-.47-.63V80.7c0-.39.076-.546.466-.546.858 0 3.666.234 11.076.234 1.404 0 6.01-.24 8.58-.24 8.815 0 12.95.86 17.4 3.9 3.66 2.498 5.924 6.866 5.924 11.313 0 9.83-7.41 15.91-19.813 15.91-2.885 0-6.005-.08-8.5-.39v4.06zm0-6.864c1.56.468 4.134.702 7.176.702 4.76 0 8.97-2.574 11-5.304 1.72-2.262 2.03-5.148 2.03-7.878 0-10.218-9.51-12.948-14.12-12.948-1.32 0-4.52 0-6.08.546v24.882zm35.265 6.786c0-3.978-.625-4.758-2.81-5.928l-1.48-.78c-.47-.156-.625-.234-.625-.546v-.468c0-.312.156-.468.624-.702l7.72-3.98c.47-.233.78-.31 1.09-.31.47 0 .54.467.54.935l.39 5.382h.31c2.34-3.588 6-6.786 9.36-6.786 2.65 0 3.98 1.63 3.98 3.43 0 2.26-1.87 3.82-3.28 3.82-.86 0-1.64-.31-2.26-.63-.63-.39-1.56-.63-2.58-.63-1.25 0-3.28.78-4.61 3.27-.47.86-.78 2.26-.78 2.49v16.38c0 2.41.55 3.19 2.18 3.19h3.66c.47 0 .54.23.54.7v1.4c0 .47-.08.7-.39.7-.47 0-4.06-.23-8.27-.23-4.84 0-8.11.23-8.58.23-.31 0-.47-.16-.47-.78v-1.33c0-.55.16-.71.86-.71H95c1.17 0 1.716-.47 1.716-1.48.08-2.57.08-5.31.08-9.36v-7.33zm23.834 16.303c-3.588-4.29-4.29-7.176-4.29-12.714 0-3.97 2.106-8.97 6.708-12.55 4.056-3.12 7.878-3.74 10.452-3.74 4.29 0 8.58 2.19 10.92 4.53 3.51 3.59 5.304 7.65 5.304 12.72 0 8.51-7.644 17.16-17.24 17.16-3.742 0-8.578-1.48-11.854-5.38zm22.543-12.56c0-8.657-6.318-14.117-10.296-14.117-2.1 0-4.13.468-6 2.496-3.04 3.12-4.13 6.318-4.13 12.246 0 4.368.47 7.332 2.97 10.92 1.8 2.575 4.06 4.057 7.73 4.057 5.93 0 9.75-7.254 9.75-15.6zm14.88-11.777h-5.382c-.39 0-.546-.156-.39-.858l.312-2.34c.078-.468.312-.546.936-.546h4.524v-1.482c0-7.722 2.184-12.792 5.226-16.225 4.134-4.524 8.425-6.162 12.793-6.162 3.666 0 7.098 1.404 7.098 4.368 0 1.872-2.028 3.354-3.276 3.354-.78 0-1.56-.156-2.184-.468-.702-.39-1.56-1.41-1.872-1.8-1.014-1.25-2.106-1.8-3.588-1.8-2.028 0-4.134.54-5.85 2.73-2.887 3.66-2.73 10.45-2.73 15.91v1.56h9.437c.55 0 .63.47.55.78l-.39 2.57c-.08.31-.39.39-1.01.39h-8.58v6.94c0 9.2 0 16.38.08 17.23.16 1.32.39 2.03 2.03 2.03h4.45c.7 0 .86.15.86.62v1.24c0 .62-.15.94-.54.94-.47 0-3.35-.24-9.36-.24-4.29 0-8.27.23-8.89.23-.47 0-.62-.16-.62-.55v-1.71c0-.39.16-.55.78-.55h3.75c1.48 0 1.8-.94 1.87-2.73v-23.47z"/>
  <path d="M180.57 114.882c-.156.702-.234 1.95-.234 3.744 0 7.645 4.836 13.417 11.076 13.417 4.758 0 8.112-2.73 9.438-5.305.156-.312.468-.468.702-.39l1.014.546c.234.078.39.312 0 1.17-1.404 3.12-5.46 8.502-12.403 8.502-4.446 0-9.36-1.325-12.246-5.538-2.73-3.978-3.432-6.864-3.432-12.324 0-3.042.78-8.268 4.914-12.402 3.35-3.432 7.25-4.134 11.15-4.134 8.97 0 11.46 8.424 11.46 11.466 0 1.092-.94 1.248-2.19 1.248h-19.26zm12.403-2.34c1.482 0 2.106-.39 2.106-1.092 0-1.794-.94-6.942-6.01-6.942-3.43 0-6.71 2.262-8.19 8.034h12.09zm15.973 21.763c-.39-.234-.39-.702-.468-1.092l-1.326-7.41c-.078-.39.156-.546.468-.624l1.014-.24c.312-.08.546.08.702.47l1.95 3.82c1.56 2.88 2.652 4.83 6.787 4.83 2.73 0 6.162-1.64 6.162-5.31 0-3.51-1.716-5.54-7.566-7.18-4.61-1.33-9.21-3.75-9.21-9.91 0-5.38 5.07-9.52 10.92-9.52 3.74 0 5.77.93 7.17 1.64 1.17.54 1.32.93 1.4 1.4l1.17 5.46c0 .31-.16.54-.55.7l-.94.31c-.32.08-.47 0-.71-.39l-2.65-3.59c-.94-1.49-2.42-3.05-5.46-3.05-2.97 0-6.01 1.79-6.01 5.15 0 4.52 3.66 5.38 7.49 6.47 5.69 1.64 9.28 3.98 9.36 9.99-.08 6.31-5.23 10.29-11.86 10.29-3.83 0-6.95-1.56-7.88-2.26zm26.738 0c-.39-.234-.39-.702-.468-1.092l-1.326-7.41c-.078-.39.156-.546.468-.624l1.014-.24c.312-.08.546.08.702.47l1.95 3.82c1.56 2.88 2.652 4.83 6.787 4.83 2.73 0 6.17-1.64 6.17-5.31 0-3.51-1.71-5.54-7.56-7.18-4.6-1.33-9.2-3.75-9.2-9.91 0-5.38 5.07-9.52 10.92-9.52 3.75 0 5.77.93 7.18 1.64 1.17.54 1.33.93 1.41 1.4l1.17 5.46c0 .31-.15.54-.54.7l-.93.31c-.31.08-.47 0-.7-.39l-2.65-3.59c-.93-1.49-2.42-3.05-5.46-3.05-2.96 0-6 1.79-6 5.15 0 4.52 3.67 5.38 7.49 6.47 5.7 1.64 9.29 3.98 9.36 9.99-.07 6.31-5.22 10.29-11.85 10.29-3.82 0-6.94-1.56-7.88-2.26zm28.688-21.372c0-2.652-.468-4.056-4.368-4.68-.546-.078-.702-.234-.702-.546v-.702c0-.234.156-.39.546-.546 2.496-.94 5.46-2.19 8.424-3.83.624-.31 1.014-.47 1.482-.47.39 0 .468.39.39.93-.156 1.32-.156 6.24-.156 12.71v8.5c0 3.04 0 5.85.078 6.7.156 1.48.39 2.03 1.248 2.03h3.588c.624 0 .78.23.78.7v1.32c0 .54-.156.78-.702.78-.624 0-4.212-.24-7.488-.24-4.524 0-7.566.23-8.425.23-.39 0-.624-.16-.624-.63v-1.56c0-.47.234-.63.78-.63h3.822c.858 0 1.17-.31 1.248-1.56.078-2.34.078-4.76.078-7.1V112.9zm-3.51-23.79c0-1.95 1.637-4.057 4.757-4.057 2.73 0 4.05 2.106 4.05 3.822 0 2.028-1.41 4.29-4.53 4.29-1.72 0-4.29-1.56-4.29-4.056zm20.786 42.042c-3.588-4.29-4.29-7.176-4.29-12.714 0-3.97 2.106-8.97 6.708-12.55 4.056-3.12 7.878-3.74 10.452-3.74 4.29 0 8.58 2.19 10.92 4.53 3.51 3.59 5.304 7.65 5.304 12.72 0 8.51-7.644 17.16-17.24 17.16-3.742 0-8.578-1.48-11.854-5.38zm22.543-12.56c0-8.657-6.31-14.117-10.29-14.117-2.1 0-4.13.468-6 2.496-3.04 3.12-4.13 6.318-4.13 12.246 0 4.368.47 7.332 2.97 10.92 1.79 2.575 4.06 4.057 7.72 4.057 5.93 0 9.75-7.254 9.75-15.6zm41.64 12.795c0 1.247.7 1.637 1.72 1.637h2.5c.7 0 .86.234.86.702V135c0 .546-.15.858-.62.858-.54 0-2.96-.233-7.41-.233-3.98 0-6.47.234-7.02.234-.47 0-.62-.24-.62-.86v-1.25c0-.55.24-.71 1.02-.71h2.27c.86 0 1.49-.39 1.56-1.8.08-2.03.16-4.53.16-6.56V114.4c0-3.12 0-5.382-2.26-7.02-1.87-1.405-3.74-1.405-5.69-1.405-1.24 0-3.97.544-6.31 3.04-1.56 1.716-1.79 3.822-1.79 5.304v16.14c0 2.1.24 2.57 1.87 2.57H328c.62 0 .78.23.78.78v1.32c0 .47-.16.7-.55.7-.544 0-2.65-.23-6.784-.23-3.978 0-6.47.23-6.94.23-.39 0-.547-.23-.547-.7v-1.4c0-.47.15-.71.78-.71H317c1.017 0 1.56-.24 1.56-1.56v-18.25c0-2.34-1.245-3.67-3.194-4.6l-.62-.32c-.546-.24-.623-.47-.623-.7v-.39c0-.39.31-.63.7-.78l6.71-3.75c.624-.31 1.09-.54 1.4-.54.39 0 .547.31.62.93l.55 4.76h.155c2.267-2.81 6.79-5.69 10.69-5.69 2.34 0 4.76.47 6.63 1.71 2.34 1.56 4.29 5.46 4.29 7.41v20.13zm31.36-5.07c0 4.445.94 5.85 2.34 5.85 1.25 0 2.34-.625 2.73-1.17.31-.39.47-.547.78-.313l.78.624c.24.24.39.63-.08 1.41-.62 1.17-2.1 3.82-6.08 3.82-2.81 0-4.83-2.02-5.54-5.22h-.15c-1.64 1.95-4.21 3.59-7.72 4.76-1.48.47-2.88.47-4.6.47-1.87 0-4.68-1.56-4.68-6.47 0-3.59 1.64-6.71 7.8-9.44 3.51-1.56 7.57-3.43 8.82-4.52v-4.99c-.15-1.32-.23-3.35-1.09-4.37-.85-1.01-2.41-1.71-4.68-1.71-1.56 0-3.97.63-5.07 1.64s-.39 2.19-.39 3.59c0 2.73-.93 4.45-4.13 4.45-1.24 0-1.87-.7-1.87-2.49 0-2.49 2.19-5.46 5.39-7.33 3.28-1.95 6.01-2.73 9.52-2.73 3.67 0 5.15 1.09 6.24 2.11 1.64 1.64 1.72 3.43 1.72 5.54v16.54zm-5.69-7.88c-2.81 2.106-10.45 3.667-10.45 10.14 0 2.888 1.72 4.29 4.06 4.29 2.27 0 6.4-2.728 6.4-4.835v-9.594zm26.86-6.084c0 4.057 0 15.835.08 18.253.08 1.32.39 2.41 2.03 2.41h3.51c.7 0 .86.23.86.7v1.32c0 .47-.16.78-.47.78-.54 0-3.98-.24-8.81-.24-4.99 0-8.11.23-8.81.23-.39 0-.55-.31-.55-.78v-1.33c0-.55.16-.7 1.02-.7h3.74c.86 0 1.64-.55 1.72-1.95.08-2.42.08-15.84.08-20.36v-4.92c0-5.54-.08-12.64-.23-14.67-.15-2.65-1.4-3.9-3.9-4.68l-1.56-.55c-.39-.16-.47-.23-.47-.39v-.62c0-.24.24-.39.7-.55 2.73-1.25 6.24-2.65 9.13-4.52.71-.47 1.17-.63 1.64-.63.55 0 .7.39.63 1.41-.08 4.29-.31 20.51-.31 24.8v6.94zm52.89 13.104h.16c.31-1.325 11.94-34.632 12.25-37.908.08-.624-.47-1.95-1.17-2.886s-1.72-1.482-3.12-1.482h-1.95c-.39 0-.47-.156-.47-.624v-1.872c0-.312.08-.546.55-.546.7 0 3.43.234 9.52.234 6.55 0 9.52-.234 10.3-.234.47 0 .55.234.55.546v1.95c0 .312-.08.546-.54.546h-3.12c-1.95 0-2.65 1.716-2.18 3.12l12.17 39.157h.16c.85-2.49 12.16-35.41 12.16-39.85 0-1.25-.62-2.42-2.73-2.42h-2.102c-.47 0-.542-.23-.542-.7v-1.8c0-.31.08-.54.625-.54.78 0 3.51.24 8.348.24 4.37 0 6.63-.23 7.255-.23.47 0 .55.16.55.55v1.95c0 .31 0 .54-.55.54h-1.87c-1.33 0-2.42.86-3.12 2.11-.62 1.1-16.93 46.1-18.49 49.85-.39.86-.78 2.03-1.64 2.03-.93 0-1.32-.62-1.71-1.72l-14.45-42.83h-.15c-.7 2.11-14.9 42.2-15.36 43.06-.39.78-.854 1.49-1.56 1.49-.62 0-1.09-.31-1.4-1.24L430.2 86.04c-.78-2.18-1.87-2.8-3.352-2.8h-2.66c-.39 0-.47-.313-.47-.625v-1.87c0-.39.077-.55.62-.55.627 0 3.045.23 8.35.23 5.617 0 8.815-.234 9.595-.234.544 0 .622.23.622.47v1.95c0 .39-.075.62-.62.62h-1.33c-2.03 0-2.73 1.1-2.26 2.81l12.556 39.47zm57.47-10.608c-.15.702-.23 1.95-.23 3.744 0 7.645 4.84 13.417 11.08 13.417 4.76 0 8.12-2.73 9.44-5.305.16-.312.47-.468.7-.39l1.02.546c.24.078.39.312 0 1.17-1.4 3.12-5.46 8.502-12.4 8.502-4.45 0-9.36-1.325-12.25-5.538-2.73-3.978-3.43-6.864-3.43-12.324 0-3.042.78-8.268 4.92-12.402 3.36-3.432 7.26-4.134 11.16-4.134 8.97 0 11.47 8.424 11.47 11.466 0 1.092-.94 1.248-2.18 1.248h-19.3zm12.4-2.34c1.48 0 2.11-.39 2.11-1.092 0-1.794-.94-6.942-6.01-6.942-3.43 0-6.71 2.262-8.19 8.034h12.09zm15.87-18.954c0-5.226-.85-6.318-3.66-7.254l-.78-.234c-.85-.234-1.01-.39-1.01-.624v-.624c0-.234.16-.39.63-.624 2.26-1.014 6.32-3.042 8.27-4.29.54-.39 1.17-.703 1.64-.703.55 0 .71.39.63 1.326-.08.63-.08 9.52-.08 16.46v9.05c2.5-2.42 6.94-3.9 10.77-3.9 6.87 0 14.28 5.54 14.28 16.7 0 9.13-7.33 17.71-16.22 17.71-4.37 0-7.41-.93-9.2-2.02l-3.12 1.72c-.31.24-.55.31-1.01.24l-.933-.23c-.31-.08-.39-.23-.31-.62.157-1.09.157-7.57.157-13.26V93.6zm5.62 25.273c0 6.48.24 8.82 1.17 11.32.78 1.87 4.06 3.9 7.41 3.9 4.68 0 10.45-3.2 10.45-13.41 0-7.56-3.98-14.74-11.62-14.74-2.88 0-5.69 1.02-7.41 2.81v10.14zM67.16 161.22h-1.95c-2.496 0-9.282 0-12.324.936-3.51 1.094-5.85 6.554-6.942 9.05-.156.39-.39.468-.78.39l-1.404-.39c-.234-.08-.468-.156-.312-.624.78-2.81 3.51-12.87 3.666-13.73.156-1.014.468-1.248.78-1.248.39 0 .624.078.936.31l1.014.704c1.404 1.015 2.184 1.248 4.446 1.326 4.134.155 7.41.467 14.743.467h3.744c8.5 0 11.85-.31 15.672-.47 1.71-.08 2.73-.31 4.05-1.09l1.48-.93c.39-.23.62-.31.93-.31.39 0 .54.24.7 1.25.15.94 1.64 10.61 2.26 14.04.08.39-.08.55-.47.63l-1.25.31c-.32.08-.39 0-.63-.54-.62-1.48-2.96-7.48-5.54-8.73-2.34-1.17-9.67-1.32-13.49-1.32h-2.18v22.23c0 1.09 0 22.94.07 24.26.16 1.95.78 3.12 2.65 3.12h4.91c.7 0 .78.23.78.78v1.64c0 .39-.08.62-.78.62-.78 0-3.28-.23-10.92-.23-7.49 0-10.77.24-11.86.24-.63 0-.7-.31-.7-.78v-1.48c0-.54.08-.78.54-.78h5.3c1.56 0 2.49-.93 2.57-1.87.23-2.26.23-26.21.23-27.69v-20.05zm20.536 69.656c0-1.637 1.716-3.04 3.588-3.04 1.482 0 2.886.7 3.588.857.546.078 1.17 0 1.638-.47 1.17-1.403 5.148-10.296 6.24-13.34-.39-1.95-8.658-26.285-9.282-27.923-.936-1.95-1.638-3.276-3.666-3.276h-2.028c-.546 0-.624-.234-.624-.702v-1.56c0-.312.078-.547.624-.547.702 0 2.574.233 7.176.233 3.978 0 6.396-.234 7.254-.234.624 0 .702.232.702.545v1.63c0 .39-.078.62-.468.62h-1.482c-.858 0-1.17.54-1.014 1.71.234 1.71 5.538 18.87 6.396 20.59h.312c.78-1.25 7.566-17.4 8.034-19.35.468-1.95-.156-2.97-1.326-2.97h-1.248c-.468 0-.546-.24-.546-.63v-1.56c0-.39.078-.63.468-.63 1.014 0 2.652.23 6.396.23 2.106 0 3.9-.24 4.758-.24.468 0 .468.31.468.62v1.48c0 .47 0 .7-.39.7h-1.248c-.858 0-1.95.39-2.73 1.41-1.716 2.1-6.864 13.96-12.247 26.21-3.82 8.65-6.86 15.91-8.26 18.48-1.1 2.03-2.5 5.07-6.63 5.07-2.97.002-4.45-1.63-4.45-3.977zm42.712-39.312c0-1.87-.546-2.963-2.808-4.21l-1.794-1.015c-.546-.24-.546-.47-.546-.7v-.63c0-.24.156-.39.546-.55l7.488-3.75c.624-.32 1.248-.63 1.794-.63.39 0 .546.39.546 1.56l.312 3.74h.234c2.106-2.73 6.162-5.23 11.39-5.23 3.977 0 6.63 1.71 8.89 3.82 2.965 2.96 4.213 6.16 4.213 12.17 0 10.21-7.1 18.4-16.85 18.4-2.105 0-5.38-.31-7.8-1.33v16.45c0 2.18.547 2.57 1.717 2.57h3.432c.624 0 .702.31.702.78v1.32c0 .46-.156.7-.702.7-.39 0-3.042-.24-8.034-.24-4.524 0-7.254.23-7.878.23-.546 0-.702-.24-.702-.7v-1.41c0-.39.156-.7.936-.7h3.042c1.326 0 1.482-.78 1.638-1.95.234-1.72.234-5.93.234-13.57V191.5zm5.616 14.275c0 1.72.156 3.12 1.638 4.13 2.184 1.56 4.602 2.1 7.8 2.1 4.446 0 9.05-3.36 9.05-13.03 0-10.92-4.916-15.29-10.142-15.29-3.276 0-6.474 1.87-8.346 4.99v17.08zm33.524 3.35c-3.59-4.29-4.29-7.18-4.29-12.72 0-3.98 2.105-8.97 6.707-12.56 4.056-3.12 7.878-3.75 10.452-3.75 4.29 0 8.58 2.18 10.92 4.52 3.51 3.59 5.3 7.64 5.3 12.71 0 8.5-7.647 17.16-17.24 17.16-3.74 0-8.58-1.48-11.857-5.38zm22.542-12.56c0-8.66-6.318-14.12-10.296-14.12-2.106 0-4.134.46-6.006 2.49-3.042 3.12-4.134 6.31-4.134 12.24 0 4.37.468 7.33 2.964 10.92 1.794 2.57 4.056 4.05 7.723 4.05 5.93 0 9.75-7.26 9.75-15.6zm12.338 35.73c-2.808-1.72-3.98-3.75-3.98-6.32 0-4.37 4.447-7.73 8.19-9.36v-.32c-3.275-.7-5.225-3.12-5.225-5.46 0-3.75 4.29-6.4 7.02-7.41v-.16c-3.042-1.33-7.254-4.92-7.254-11.86 0-5.07 4.53-11.31 13.34-11.31 5.93 0 9.05 3.59 9.83 4.52 2.11-1.48 4.76-3.05 7.33-3.05s3.82 1.72 3.67 3.28c0 1.48-1.25 2.88-3.04 2.88-1.33 0-2.11-.63-2.73-1.17-.47-.32-1.02-.71-1.64-.71-.55 0-1.48 0-2.5.47.62 1.56 1.17 3.28 1.17 5.93 0 3.04-.86 6.01-2.89 8.43-2.03 2.26-6.48 3.9-9.05 3.9-1.72 0-2.81-.08-3.98-.39-1.56.62-4.13 2.18-4.13 4.36 0 3.2 3.9 2.96 9.12 2.65 6.39-.32 10.29.39 13.41 2.8 3.35 2.49 3.74 5.61 3.82 7.49 0 3.66-1.33 6.71-5.23 9.59-2.03 1.48-6.71 3.67-13.34 3.67-3.75 0-8.19-.39-11.94-2.5zm25.74-8.04c0-4.61-3.51-8.12-11.31-7.57l-7.487.54c-2.41.62-6.24 3.27-6.24 7.48 0 1.95 1.49 4.29 3.05 5.38 2.58 1.79 5.38 2.18 10.92 2.18 2.89 0 11.47-2.03 11.08-8.04zm-7.253-33.23c0-3.43-.702-5.46-2.106-7.02-1.01-1.02-2.57-1.72-3.74-1.72-1.79 0-3.67.31-5.54 2.18-2.5 2.65-2.81 6.24-2.81 9.2 0 2.65.86 5.07 2.5 6.78 1.4 1.33 2.81 1.95 4.68 1.95 5.3 0 7.02-6.47 7.02-11.39zm22.15 1.79c0-3.98-.624-4.76-2.808-5.93l-1.49-.78c-.467-.16-.623-.24-.623-.55v-.47c0-.31.156-.47.624-.7l7.724-3.98c.467-.24.78-.31 1.09-.31.47 0 .547.47.547.94l.39 5.38h.31c2.34-3.59 6-6.79 9.36-6.79 2.65 0 3.98 1.64 3.98 3.43 0 2.26-1.88 3.82-3.28 3.82-.86 0-1.64-.31-2.27-.63-.63-.39-1.56-.63-2.58-.63-1.25 0-3.28.78-4.61 3.27-.47.85-.78 2.26-.78 2.49v16.38c0 2.41.54 3.19 2.18 3.19h3.66c.47 0 .55.24.55.71v1.4c0 .47-.08.7-.39.7-.47 0-4.06-.24-8.27-.24-4.84 0-8.11.23-8.58.23-.31 0-.47-.16-.47-.78v-1.33c0-.55.16-.7.86-.7h3.04c1.17 0 1.71-.47 1.71-1.48.07-2.57.07-5.3.07-9.36v-7.33zm44.1 11.47c0 4.44.937 5.85 2.34 5.85 1.25 0 2.34-.63 2.73-1.17.313-.39.47-.55.78-.32l.78.62c.235.23.39.62-.077 1.4-.624 1.17-2.106 3.82-6.084 3.82-2.81 0-4.836-2.03-5.54-5.23h-.155c-1.63 1.95-4.21 3.59-7.72 4.76-1.48.47-2.89.47-4.6.47-1.87 0-4.68-1.56-4.68-6.48 0-3.59 1.64-6.71 7.8-9.44 3.51-1.56 7.56-3.44 8.81-4.53v-4.99c-.16-1.33-.24-3.36-1.09-4.37-.86-1.01-2.42-1.72-4.68-1.72-1.56 0-3.98.62-5.07 1.63-1.1 1.01-.39 2.18-.39 3.59 0 2.73-.94 4.44-4.14 4.44-1.25 0-1.88-.71-1.88-2.5 0-2.5 2.18-5.46 5.38-7.34 3.27-1.95 6-2.73 9.51-2.73 3.66 0 5.15 1.09 6.24 2.1 1.64 1.64 1.71 3.43 1.71 5.532v16.54zm-5.693-7.88c-2.808 2.1-10.452 3.66-10.452 10.14 0 2.89 1.716 4.29 4.056 4.29 2.262 0 6.396-2.73 6.396-4.84v-9.6z"/>
  <path d="M300.905 191.557c0-1.872-.546-2.964-2.808-4.212l-1.794-1.014c-.546-.23-.546-.46-.546-.7v-.62c0-.23.156-.39.546-.54l7.488-3.74c.63-.31 1.25-.62 1.8-.62.39 0 .55.39.55 1.56l.32 3.75h.24c2.11-2.73 6.16-5.22 11.39-5.22 3.98 0 6.63 1.72 8.9 3.82 2.97 2.97 4.22 6.17 4.22 12.17 0 10.22-7.1 18.41-16.85 18.41-2.1 0-5.38-.31-7.8-1.32v16.45c0 2.19.55 2.57 1.72 2.57h3.43c.62 0 .7.31.7.78v1.33c0 .47-.16.7-.7.7-.39 0-3.04-.23-8.04-.23-4.52 0-7.25.24-7.88.24-.54 0-.7-.23-.7-.7V233c0-.39.16-.702.94-.702h3.05c1.33 0 1.48-.78 1.64-1.95.24-1.71.24-5.923.24-13.57v-25.2zm5.616 14.274c0 1.72.16 3.13 1.64 4.14 2.19 1.56 4.6 2.11 7.8 2.11 4.45 0 9.05-3.35 9.05-13.02 0-10.92-4.91-15.29-10.14-15.29-3.27 0-6.47 1.87-8.34 4.99v17.08zm32.57-34.71c0-4.75-.93-5.61-3.74-6.55l-1.32-.47c-.47-.15-.54-.23-.54-.46v-.7c0-.31.24-.39.94-.78l8.11-4.29c.63-.31 1.17-.62 1.8-.62.47 0 .78.63.63 1.95s-.23 17.16-.23 21.06v5h.39c2.73-3.27 7.25-5.07 10.69-5.07 3.28 0 5.54 1.02 7.72 3.12 3.51 3.28 3.36 7.26 3.36 11.47v4.45c0 4.37.16 9.21.16 10.69 0 .94 1.25 1.17 2.89 1.17h1.33c.63 0 .86.16.86.7v1.17c0 .63-.15.94-.62.94-.54 0-3.04-.23-7.48-.23-3.82 0-6.63.24-7.33.24-.54 0-.7-.23-.7-.85v-1.33c0-.39.08-.62.55-.62h1.798c1.326 0 2.886-.16 2.96-1.48.08-1.09 0-5.22 0-7.72v-6.32c0-4.37-.31-7.49-2.57-9.59-1.56-1.48-3.2-2.18-5.15-2.18-2.265 0-5.07.78-7.26 3.28-.704.86-1.56 2.42-1.56 3.82v17.01c0 2.5.23 3.2 1.71 3.2h2.34c.55 0 .86.15.86.62v1.33c0 .545-.15.857-.62.857-.622 0-3.82-.24-7.41-.24-3.9 0-6.863.24-7.57.24-.31 0-.55-.23-.55-.78v-1.41c0-.54.32-.62 1.18-.62h1.64c1.25 0 2.42-.31 2.57-1.25.23-1.48.23-10.06.23-15.13v-23.56zm31.64 59.75c0-1.63 1.72-3.04 3.59-3.04 1.48 0 2.89.7 3.59.86.55.08 1.17 0 1.64-.47 1.17-1.4 5.15-10.29 6.24-13.34-.39-1.95-8.66-26.28-9.28-27.92-.93-1.95-1.63-3.27-3.66-3.27h-2.03c-.54 0-.62-.23-.62-.7v-1.56c0-.31.08-.54.63-.54.71 0 2.58.23 7.18.23 3.98 0 6.4-.23 7.26-.23.63 0 .71.24.71.55v1.64c0 .39-.08.63-.47.63H384c-.86 0-1.17.55-1.016 1.72.233 1.72 5.538 18.88 6.396 20.6h.31c.78-1.25 7.567-17.4 8.035-19.35s-.152-2.96-1.322-2.96h-1.246c-.467 0-.545-.24-.545-.63v-1.56c0-.39.08-.62.47-.62 1.013 0 2.65.24 6.394.24 2.104 0 3.9-.23 4.756-.23.467 0 .467.31.467.62V183c0 .47 0 .7-.39.7h-1.25c-.86 0-1.95.39-2.73 1.406-1.72 2.11-6.87 13.96-12.25 26.21-3.83 8.66-6.87 15.91-8.27 18.49-1.1 2.03-2.5 5.07-6.63 5.07-2.97 0-4.45-1.638-4.45-3.98z"/>
</svg>