<?xml version="1.0" encoding="utf-8"?>
<!-- Generator: Adobe Illustrator 16.0.0, SVG Export Plug-In . SVG Version: 6.00 Build 0)  -->
<!DOCTYPE svg PUBLIC "-//W3C//DTD SVG 1.0//EN" "http://www.w3.org/TR/2001/REC-SVG-20010904/DTD/svg10.dtd">
<svg version="1.0" id="Layer_1" xmlns="http://www.w3.org/2000/svg" xmlns:xlink="http://www.w3.org/1999/xlink" x="0px" y="0px"
	 width="620px" height="300px" viewBox="0 0 620 300" enable-background="new 0 0 620 300" xml:space="preserve">
<g>
	<path fill="#333333" d="M158.914,119.043v52.441c0,8.725,0.13,14.193,0.391,16.406c0.259,2.214,1.221,3.874,2.881,4.98
		c1.66,1.107,4.639,1.66,8.936,1.66v4.492c-9.897,0.13-17.124,1.172-21.68,3.125h-1.172c-2.084-3.58-3.19-9.766-3.32-18.555
		c-3.972,6.186-8.513,10.84-13.623,13.965c-5.112,3.125-10.759,4.688-16.943,4.688c-5.339,0-10.059-1.221-14.16-3.662
		s-6.918-5.42-8.447-8.936c-1.53-3.516-2.295-8.821-2.295-15.918v-27.246c0-9.244-0.163-14.893-0.488-16.943
		c-0.327-2.051-1.352-3.564-3.076-4.541c-1.726-0.977-4.899-1.465-9.521-1.465v-4.492h27.148v55.469
		c0,5.469,0.325,9.44,0.977,11.914c0.65,2.475,2.31,4.639,4.98,6.494c2.669,1.855,5.762,2.783,9.277,2.783
		c5.013,0,9.798-1.644,14.355-4.932c4.556-3.287,7.666-6.771,9.326-10.449c1.66-3.678,2.49-8.936,2.49-15.771v-18.066
		c0-8.724-0.098-14.029-0.293-15.918c-0.195-1.888-1.025-3.531-2.49-4.932c-1.465-1.399-4.509-2.1-9.131-2.1h-2.051v-4.492H158.914z
		"/>
	<path fill="#333333" d="M199.738,115.82h2.637c1.497,4.038,2.344,9.538,2.539,16.504c4.688-5.533,9.603-9.668,14.746-12.402
		c5.142-2.734,10.513-4.102,16.113-4.102c6.38,0,11.604,1.335,15.674,4.004c4.068,2.67,6.689,5.942,7.861,9.814
		c1.172,3.874,1.758,9.521,1.758,16.943v25c0,9.245,0.162,14.877,0.488,16.895c0.325,2.019,1.351,3.532,3.076,4.541
		c1.724,1.01,4.898,1.514,9.521,1.514v4.492h-40.918v-4.492h1.855c4.688,0,7.747-0.684,9.18-2.051
		c1.431-1.367,2.246-2.962,2.441-4.785c0.195-1.822,0.293-7.193,0.293-16.113v-25.781c0-6.314-0.31-10.823-0.928-13.525
		c-0.62-2.701-2.28-5.093-4.98-7.178c-2.702-2.083-6.137-3.125-10.303-3.125c-4.753,0-9.294,1.416-13.623,4.248
		c-4.331,2.832-8.415,7.08-12.256,12.744v32.617c0,9.245,0.179,14.877,0.537,16.895c0.357,2.019,1.399,3.532,3.125,4.541
		c1.724,1.01,4.932,1.514,9.619,1.514v4.492h-40.43v-4.492c4.492,0,7.617-0.455,9.375-1.367c1.758-0.911,2.847-2.295,3.271-4.15
		c0.423-1.855,0.635-7.666,0.635-17.432v-23.828c0-9.31-0.18-14.957-0.537-16.943c-0.358-1.985-1.401-3.482-3.125-4.492
		c-1.726-1.009-4.932-1.514-9.619-1.514v-4.492C184.927,119.531,192.251,118.034,199.738,115.82z"/>
	<path fill="#333333" d="M310.676,115.82v55.762c0,8.529,0.13,13.9,0.391,16.113c0.26,2.214,1.204,3.906,2.832,5.078
		c1.627,1.172,4.524,1.758,8.691,1.758h2.051v4.492h-43.066v-4.492h3.32c4.622,0,7.633-0.667,9.033-2.002
		c1.399-1.334,2.213-2.93,2.441-4.785c0.228-1.855,0.342-7.242,0.342-16.162v-24.219c0-9.375-0.439-15.103-1.318-17.188
		c-0.879-2.083-2.051-3.384-3.516-3.906c-1.465-0.521-4.021-0.781-7.666-0.781h-2.637v-4.492
		c11.588-1.172,20.572-2.896,26.953-5.176H310.676z M291.828,75c0-2.798,0.992-5.208,2.979-7.227
		c1.985-2.017,4.378-3.027,7.178-3.027c2.799,0,5.176,1.01,7.129,3.027c1.953,2.019,2.93,4.428,2.93,7.227
		c0,2.866-0.977,5.307-2.93,7.324c-1.953,2.019-4.33,3.027-7.129,3.027c-2.8,0-5.192-1.009-7.178-3.027
		C292.82,80.307,291.828,77.866,291.828,75z"/>
	<path fill="#8BC53F" d="M375.332,123.535h-24.121v48.34c0,7.422,0.325,12.419,0.977,14.99c0.65,2.572,2.034,4.639,4.15,6.201
		c2.115,1.562,4.378,2.344,6.787,2.344c4.688,0,8.756-2.669,12.207-8.008l3.125,1.855c-2.019,4.297-4.997,7.536-8.936,9.717
		c-3.939,2.181-7.927,3.271-11.963,3.271c-4.688,0-8.806-1.384-12.354-4.15c-3.549-2.767-5.762-6.006-6.641-9.717
		s-1.318-10.221-1.318-19.531v-45.312h-11.621v-4.492c5.338-0.13,10.123-2.376,14.355-6.738c4.231-4.361,6.934-10.481,8.105-18.359
		h3.125v25.098h24.121V123.535z"/>
	<path fill="#8BC53F" d="M454.633,146.094h-55.762c-0.261,3.842-0.391,6.706-0.391,8.594c0,14.062,2.197,24.626,6.592,31.689
		c4.395,7.064,10.953,10.596,19.678,10.596c11.849,0,20.247-5.306,25.195-15.918h4.688c-2.084,6.641-6.218,11.833-12.402,15.576
		c-6.186,3.743-12.924,5.615-20.215,5.615c-6.771,0-13.168-1.709-19.189-5.127c-6.022-3.418-10.954-8.252-14.795-14.502
		c-3.842-6.25-5.762-13.834-5.762-22.754c0-12.63,3.711-23.128,11.133-31.494c7.422-8.365,16.699-12.549,27.832-12.549
		c10.481,0,18.587,3.19,24.316,9.57C451.279,131.772,454.307,138.672,454.633,146.094z M437.543,142.188
		c0.195-1.497,0.293-2.832,0.293-4.004c0-5.728-1.677-10.171-5.029-13.33c-3.354-3.157-7.471-4.736-12.354-4.736
		c-11.85,0-18.913,7.358-21.191,22.07H437.543z"/>
	<path fill="#8BC53F" d="M542.336,184.375h3.613c-0.586,11.133-6.055,16.699-16.406,16.699c-4.428,0-7.927-1.172-10.498-3.516
		c-2.572-2.344-4.248-5.826-5.029-10.449c-6.511,4.623-12.451,8.105-17.822,10.449s-10.173,3.516-14.404,3.516
		c-5.404,0-10.059-1.562-13.965-4.688s-5.859-7.259-5.859-12.402c0-6.705,3.271-12.564,9.814-17.578
		c6.543-5.013,15.576-9.896,27.1-14.648l15.137-6.152v-3.906c0-5.533-0.358-9.537-1.074-12.012
		c-0.717-2.474-2.572-4.688-5.566-6.641c-2.995-1.953-6.934-2.93-11.816-2.93c-9.766,0-15.202,3.256-16.309,9.766
		c-1.042,6.641-3.776,9.961-8.203,9.961c-3.972,0-5.957-1.888-5.957-5.664c0-3.711,2.637-7.698,7.91-11.963
		c5.273-4.263,13.477-6.396,24.609-6.396c8.268,0,14.681,1.303,19.238,3.906c4.557,2.604,7.568,5.566,9.033,8.887
		s2.197,8.398,2.197,15.234v32.324c0,7.553,0.391,12.402,1.172,14.551s2.474,3.223,5.078,3.223
		C538.625,193.945,541.294,190.756,542.336,184.375z M514.016,150.195l-10.645,4.297c-16.797,6.836-25.195,15.43-25.195,25.781
		c0,4.102,1.074,7.406,3.223,9.912c2.148,2.507,4.947,3.76,8.398,3.76c3.06,0,6.607-1.009,10.645-3.027
		c4.036-2.018,8.561-5.045,13.574-9.082V150.195z"/>
</g>
<path fill="#A67C52" d="M299.667,93.646c0,0-14.664-7.666-18.697-16.407c-4.034-8.747,3.563-23.105,3.563-23.105
	s5.398,2.05,14.861,14.119C308.863,80.323,299.667,93.646,299.667,93.646z"/>
<path fill="#D6DE23" d="M299.321,93.404c0,0-10.901-12.446-11.503-22.056c-0.599-9.612,11.674-20.254,11.674-20.254
	s4.292,3.864,8.752,18.539C312.706,84.308,299.321,93.404,299.321,93.404z"/>
<path fill="#8BC541" d="M300.356,93.543c0,0-4.224-15.993-0.485-24.868c3.74-8.875,19.466-12.942,19.466-12.942
	s2.125,5.368-0.411,20.492C316.393,91.357,300.356,93.543,300.356,93.543z"/>
<g>
</g>
<g>
</g>
<g>
</g>
<g>
</g>
<g>
</g>
<g>
</g>
<g>
</g>
<g>
</g>
<g>
</g>
<g>
</g>
<g>
</g>
<g>
</g>
<g>
</g>
<g>
</g>
<g>
</g>
</svg>
