<?xml version="1.0" encoding="utf-8"?>
<!-- Generator: Adobe Illustrator 16.0.4, SVG Export Plug-In . SVG Version: 6.00 Build 0)  -->
<!DOCTYPE svg PUBLIC "-//W3C//DTD SVG 1.0//EN" "http://www.w3.org/TR/2001/REC-SVG-20010904/DTD/svg10.dtd">
<svg version="1.0" xmlns="http://www.w3.org/2000/svg" xmlns:xlink="http://www.w3.org/1999/xlink" x="0px" y="0px" width="432px"
	 height="144px" viewBox="0 0 432 144" enable-background="new 0 0 432 144" xml:space="preserve">
<g id="Layer_3">
	<g>
		<rect x="14.25" y="40.998" fill="none" width="408.75" height="101"/>
		<path d="M26.017,50.972v-0.364c0.826-0.084,0.924-0.182,0.924-1.093v-2.297c0-1.163-0.434-1.737-1.387-1.737
			c-0.519,0-1.064,0.267-1.443,0.743v3.292c0,0.896,0.07,1.009,0.924,1.093v0.364h-3.011v-0.364c0.896-0.084,0.98-0.182,0.98-1.106
			v-7.046c-0.771-0.084-1.499-0.098-2.731-0.098h-0.995v6.864c0,1.177,0.112,1.289,1.401,1.373v0.378h-3.95v-0.378
			c1.247-0.084,1.358-0.196,1.358-1.373v-6.864h-0.882c-1.247,0-1.499,0.126-1.695,0.462c-0.168,0.266-0.294,0.588-0.462,1.232
			h-0.406c0.07-0.826,0.14-1.765,0.168-2.535h0.266c0.196,0.308,0.378,0.35,0.77,0.35h5.827c1.163,0,1.331-0.084,1.331-0.364v-0.21
			c0.28-0.042,0.714-0.182,1.106-0.322v4.721c0.518-0.532,1.232-0.995,1.961-1.009c1.177-0.028,1.975,0.714,1.975,2.381v2.451
			c0,0.939,0.098,1.023,0.938,1.093v0.364H26.017z"/>
		<path d="M34.721,49.795c-0.883,1.093-1.849,1.345-2.284,1.345c-1.723,0-2.731-1.4-2.731-2.983c0-0.953,0.351-1.821,0.925-2.451
			c0.574-0.63,1.331-1.023,2.045-1.023h0.014c1.163,0,2.101,1.051,2.101,2.129c0,0.28-0.056,0.392-0.322,0.448
			c-0.224,0.042-1.989,0.182-3.67,0.238c0.014,1.905,1.121,2.689,2.101,2.689c0.574,0,1.093-0.225,1.611-0.701L34.721,49.795z
			 M30.869,46.924c0.784,0,1.568-0.014,2.381-0.042c0.252,0,0.336-0.07,0.336-0.28c0.014-0.729-0.462-1.401-1.247-1.401
			C31.709,45.201,31.079,45.79,30.869,46.924z"/>
		<path d="M44.017,49.711c-0.616,0.812-1.541,1.429-2.367,1.429c-1.765,0-2.816-1.429-2.816-2.927c0-1.079,0.477-2.017,1.415-2.732
			c0.729-0.56,1.569-0.798,2.087-0.798h0.014c0.574,0,1.037,0.182,1.261,0.378c0.182,0.154,0.224,0.266,0.224,0.42
			c0,0.294-0.308,0.603-0.462,0.603c-0.084,0-0.154-0.042-0.266-0.154c-0.42-0.392-0.911-0.574-1.415-0.574
			c-0.925,0-1.723,0.771-1.723,2.241c0,1.947,1.317,2.592,2.115,2.592c0.602,0,1.05-0.168,1.695-0.771L44.017,49.711z"/>
		<path d="M44.686,50.972v-0.364c0.882-0.084,0.98-0.168,0.98-1.121v-2.885c0-0.869-0.042-0.939-0.882-1.065v-0.336
			c0.714-0.112,1.387-0.294,1.989-0.546v4.833c0,0.953,0.098,1.037,0.995,1.121v0.364H44.686z M45.428,42.75
			c0-0.42,0.336-0.728,0.715-0.728c0.392,0,0.7,0.308,0.7,0.728c0,0.378-0.308,0.715-0.714,0.715
			C45.764,43.464,45.428,43.128,45.428,42.75z"/>
		<path d="M50.553,46.182c0.42-0.714,1.022-1.499,1.695-1.499c0.476,0,0.812,0.378,0.812,0.701c0,0.28-0.182,0.56-0.448,0.686
			c-0.168,0.07-0.28,0.056-0.364-0.028c-0.21-0.196-0.378-0.28-0.603-0.28c-0.364,0-0.812,0.406-1.121,1.191v2.563
			c0,0.925,0.07,1.009,1.149,1.093v0.364h-3.222v-0.364c0.868-0.084,0.966-0.168,0.966-1.093v-2.899c0-0.924-0.056-0.98-0.868-1.079
			v-0.322c0.686-0.112,1.302-0.28,1.975-0.56v1.527H50.553z"/>
		<path d="M58.703,49.711c-0.616,0.812-1.541,1.429-2.367,1.429c-1.765,0-2.816-1.429-2.816-2.927c0-1.079,0.477-2.017,1.415-2.732
			c0.729-0.56,1.569-0.798,2.087-0.798h0.014c0.574,0,1.037,0.182,1.261,0.378c0.182,0.154,0.224,0.266,0.224,0.42
			c0,0.294-0.308,0.603-0.462,0.603c-0.084,0-0.154-0.042-0.266-0.154c-0.42-0.392-0.911-0.574-1.415-0.574
			c-0.925,0-1.723,0.771-1.723,2.241c0,1.947,1.317,2.592,2.115,2.592c0.603,0,1.051-0.168,1.695-0.771L58.703,49.711z"/>
		<path d="M59.049,50.972v-0.364c0.883-0.084,1.009-0.168,1.009-1.093V42.89c0-0.952-0.084-0.98-0.967-1.064v-0.336
			c0.729-0.084,1.597-0.322,2.073-0.491v8.517c0,0.925,0.112,1.009,1.009,1.093v0.364H59.049z"/>
		<path d="M67.915,49.795c-0.883,1.093-1.849,1.345-2.284,1.345c-1.723,0-2.731-1.4-2.731-2.983c0-0.953,0.351-1.821,0.925-2.451
			c0.574-0.63,1.331-1.023,2.045-1.023h0.014c1.163,0,2.101,1.051,2.101,2.129c0,0.28-0.056,0.392-0.322,0.448
			c-0.224,0.042-1.989,0.182-3.67,0.238c0.014,1.905,1.121,2.689,2.101,2.689c0.574,0,1.093-0.225,1.611-0.701L67.915,49.795z
			 M64.062,46.924c0.784,0,1.568-0.014,2.381-0.042c0.252,0,0.336-0.07,0.336-0.28c0.014-0.729-0.462-1.401-1.247-1.401
			C64.903,45.201,64.272,45.79,64.062,46.924z"/>
		<path d="M72.449,46.518c-0.28-0.84-0.756-1.387-1.443-1.387c-0.546,0-0.91,0.406-0.91,0.967c0,0.616,0.56,0.938,1.176,1.205
			c1.065,0.434,1.779,0.938,1.779,1.905c0,1.275-1.191,1.933-2.312,1.933c-0.714,0-1.358-0.266-1.597-0.476
			c-0.098-0.196-0.238-1.149-0.238-1.653l0.378-0.07c0.238,0.925,0.868,1.737,1.709,1.737c0.518,0,0.994-0.378,0.994-0.981
			c0-0.616-0.406-0.952-1.106-1.274c-0.84-0.378-1.751-0.854-1.751-1.919c0-0.98,0.84-1.821,2.129-1.821
			c0.574,0,0.952,0.126,1.232,0.252c0.126,0.308,0.28,1.148,0.308,1.485L72.449,46.518z"/>
		<path d="M80.765,46.518c-0.28-0.84-0.756-1.387-1.443-1.387c-0.546,0-0.91,0.406-0.91,0.967c0,0.616,0.56,0.938,1.176,1.205
			c1.065,0.434,1.779,0.938,1.779,1.905c0,1.275-1.191,1.933-2.312,1.933c-0.714,0-1.358-0.266-1.597-0.476
			c-0.098-0.196-0.238-1.149-0.238-1.653l0.378-0.07c0.238,0.925,0.868,1.737,1.709,1.737c0.518,0,0.994-0.378,0.994-0.981
			c0-0.616-0.406-0.952-1.106-1.274c-0.84-0.378-1.751-0.854-1.751-1.919c0-0.98,0.84-1.821,2.129-1.821
			c0.574,0,0.952,0.126,1.232,0.252c0.126,0.308,0.28,1.148,0.308,1.485L80.765,46.518z"/>
		<path d="M85.959,50.972v-0.364c0.812-0.084,0.924-0.168,0.924-1.079v-2.325c0-1.148-0.434-1.723-1.373-1.723
			c-0.532,0-1.065,0.267-1.457,0.715v3.333c0,0.896,0.07,0.995,0.911,1.079v0.364H81.98l0.014-0.364
			c0.84-0.07,0.953-0.154,0.953-1.079v-6.682c0-0.882-0.028-0.938-0.953-1.022v-0.336c0.672-0.098,1.513-0.322,2.059-0.491v4.707
			c0.504-0.504,1.247-1.023,2.003-1.023c1.135,0,1.933,0.714,1.933,2.396v2.451c0,0.925,0.112,1.009,0.925,1.079v0.364H85.959z"/>
		<path d="M95.774,47.807c0,2.255-1.653,3.333-3.04,3.333c-1.919,0-3.068-1.541-3.068-3.096c0-2.311,1.793-3.362,3.082-3.362
			C94.485,44.683,95.774,46.083,95.774,47.807z M90.969,47.596c0,1.765,0.756,3.082,1.919,3.082c0.868,0,1.583-0.645,1.583-2.563
			c0-1.625-0.658-2.97-1.905-2.97C91.726,45.145,90.969,46.014,90.969,47.596z"/>
		<path d="M105.813,45.215c-0.7,0.098-0.826,0.266-1.106,1.037c-0.42,1.121-1.05,2.984-1.681,4.875h-0.406
			c-0.561-1.513-1.135-2.886-1.709-4.356c-0.532,1.415-1.106,2.801-1.667,4.356h-0.392c-0.519-1.667-1.037-3.32-1.625-5.001
			c-0.252-0.729-0.364-0.826-1.037-0.911v-0.364h2.899v0.364c-0.84,0.126-0.91,0.21-0.714,0.854c0.336,1.065,0.687,2.171,1.037,3.25
			h0.028c0.518-1.345,1.037-2.773,1.625-4.398h0.364c0.519,1.457,1.093,2.941,1.681,4.455h0.028
			c0.308-0.967,0.701-2.199,0.967-3.236c0.182-0.729,0.084-0.798-0.812-0.925v-0.364h2.521V45.215z"/>
		<path d="M112.488,44.907c0.252-0.154,0.519-0.224,0.687-0.224c1.555,0,2.479,1.275,2.479,2.647c0,2.115-1.667,3.474-3.488,3.81
			c-0.42-0.014-0.785-0.154-0.967-0.252v1.835c0,1.064,0.098,1.148,1.177,1.232v0.378h-3.306v-0.378
			c0.896-0.084,1.022-0.168,1.022-1.092v-6.332c0-0.911-0.056-0.938-0.925-1.051v-0.336c0.588-0.098,1.373-0.336,2.031-0.603v1.107
			L112.488,44.907z M111.199,49.908c0.308,0.322,0.827,0.546,1.317,0.546c1.177,0,1.961-1.009,1.961-2.578
			c0-1.513-0.869-2.353-1.877-2.353c-0.448,0-1.022,0.308-1.401,0.602V49.908z"/>
		<path d="M122.919,47.807c0,2.255-1.653,3.333-3.04,3.333c-1.919,0-3.068-1.541-3.068-3.096c0-2.311,1.793-3.362,3.082-3.362
			C121.631,44.683,122.919,46.083,122.919,47.807z M118.115,47.596c0,1.765,0.756,3.082,1.919,3.082
			c0.868,0,1.583-0.645,1.583-2.563c0-1.625-0.658-2.97-1.905-2.97C118.871,45.145,118.115,46.014,118.115,47.596z"/>
		<path d="M123.714,50.972v-0.364c0.882-0.084,0.98-0.168,0.98-1.121v-2.885c0-0.869-0.042-0.939-0.882-1.065v-0.336
			c0.714-0.112,1.387-0.294,1.989-0.546v4.833c0,0.953,0.098,1.037,0.995,1.121v0.364H123.714z M124.457,42.75
			c0-0.42,0.336-0.728,0.714-0.728c0.393,0,0.701,0.308,0.701,0.728c0,0.378-0.308,0.715-0.714,0.715
			C124.793,43.464,124.457,43.128,124.457,42.75z"/>
		<path d="M131.431,50.972v-0.364c0.826-0.084,0.924-0.196,0.924-1.163v-2.339c0-0.966-0.336-1.597-1.275-1.597
			c-0.56,0-1.106,0.35-1.527,0.714v3.292c0,0.953,0.084,1.009,0.911,1.093v0.364h-3.04v-0.364c0.953-0.098,1.022-0.168,1.022-1.093
			V46.63c0-0.896-0.084-0.953-0.84-1.093v-0.322c0.672-0.126,1.331-0.294,1.947-0.56v1.106c0.28-0.21,0.588-0.42,0.939-0.658
			c0.392-0.252,0.756-0.42,1.163-0.42c1.121,0,1.807,0.785,1.807,2.129v2.703c0,0.953,0.084,1.009,0.896,1.093v0.364H131.431z"/>
		<path d="M137.632,50.958c-0.238,0.126-0.448,0.182-0.588,0.182c-0.882,0-1.373-0.56-1.373-1.667v-4.062h-0.967l-0.056-0.154
			l0.392-0.406h0.63v-1.009l0.911-0.938l0.196,0.028v1.919h1.583c0.14,0.154,0.098,0.448-0.084,0.56h-1.499v3.586
			c0,1.135,0.462,1.345,0.827,1.345c0.35,0,0.672-0.14,0.854-0.238l0.126,0.364L137.632,50.958z"/>
		<path d="M142.799,46.518c-0.28-0.84-0.756-1.387-1.443-1.387c-0.546,0-0.91,0.406-0.91,0.967c0,0.616,0.56,0.938,1.176,1.205
			c1.065,0.434,1.779,0.938,1.779,1.905c0,1.275-1.191,1.933-2.312,1.933c-0.714,0-1.358-0.266-1.597-0.476
			c-0.098-0.196-0.238-1.149-0.238-1.653l0.378-0.07c0.238,0.925,0.868,1.737,1.709,1.737c0.518,0,0.994-0.378,0.994-0.981
			c0-0.616-0.406-0.952-1.106-1.274c-0.84-0.378-1.751-0.854-1.751-1.919c0-0.98,0.84-1.821,2.129-1.821
			c0.574,0,0.952,0.126,1.232,0.252c0.126,0.308,0.28,1.148,0.308,1.485L142.799,46.518z"/>
		<path d="M153.622,47.807c0,2.255-1.653,3.333-3.04,3.333c-1.919,0-3.068-1.541-3.068-3.096c0-2.311,1.793-3.362,3.082-3.362
			C152.333,44.683,153.622,46.083,153.622,47.807z M148.817,47.596c0,1.765,0.756,3.082,1.919,3.082
			c0.868,0,1.583-0.645,1.583-2.563c0-1.625-0.658-2.97-1.905-2.97C149.573,45.145,148.817,46.014,148.817,47.596z"/>
		<path d="M155.383,44.851v-0.294c0-0.448,0.056-0.854,0.154-1.163s0.322-1.008,1.079-1.653c0.504-0.42,0.995-0.672,1.541-0.743
			c0.476,0.028,0.882,0.21,1.106,0.477c0.126,0.154,0.14,0.322,0.07,0.49c-0.042,0.112-0.126,0.224-0.266,0.336
			c-0.126,0.098-0.252,0.098-0.378-0.042c-0.266-0.266-0.672-0.518-1.135-0.518c-0.364,0-0.588,0.168-0.742,0.406
			c-0.182,0.28-0.336,0.953-0.322,2.143v0.561h1.653c0.084,0.126,0.014,0.462-0.14,0.56h-1.513v4.02
			c0,1.037,0.098,1.079,1.205,1.191v0.35h-3.306v-0.364c0.896-0.084,0.994-0.154,0.994-1.079v-4.118h-0.98l-0.056-0.154l0.378-0.406
			H155.383z"/>
		<path d="M165.562,50.972v-0.364c0.784-0.07,0.882-0.154,0.882-1.037V46.14c0-0.63-0.042-0.729-0.729-0.729h-1.905v4.16
			c0,0.869,0.098,0.953,0.98,1.037v0.364h-3.082v-0.364c0.882-0.098,0.994-0.168,0.994-1.037v-4.16h-1.008l-0.056-0.154l0.392-0.406
			h0.672v-0.322c0-0.435,0.07-0.798,0.154-1.093c0.112-0.35,0.392-1.064,1.148-1.681c0.575-0.448,1.219-0.701,1.751-0.757
			c0.841,0.028,1.331,0.448,1.485,0.673c0.126,0.182,0.126,0.35,0.07,0.504c-0.07,0.126-0.182,0.266-0.309,0.336
			c-0.168,0.112-0.294,0.112-0.406-0.014c-0.322-0.378-0.799-0.826-1.457-0.826c-0.406,0-0.7,0.238-0.869,0.504
			c-0.266,0.364-0.462,1.079-0.462,2.199v0.477h1.106c1.121,0,1.905-0.028,2.633-0.182v4.902c0,0.883,0.084,0.953,0.98,1.037v0.364
			H165.562z"/>
		<path d="M172.422,50.972v-0.364c0.588-0.07,0.714-0.182,0.476-0.56l-1.037-1.639c-0.308,0.462-0.63,0.98-0.896,1.485
			c-0.28,0.476-0.238,0.603,0.477,0.714v0.364h-2.605v-0.364c0.868-0.112,1.022-0.224,1.569-0.924
			c0.392-0.49,0.771-1.051,1.19-1.681l-1.219-1.905c-0.434-0.672-0.602-0.785-1.373-0.883v-0.364h2.788v0.364
			c-0.588,0.084-0.645,0.196-0.378,0.588l0.827,1.303c0.28-0.42,0.56-0.854,0.812-1.316c0.252-0.435,0.154-0.504-0.462-0.575v-0.364
			h2.563v0.364c-0.854,0.084-1.037,0.154-1.541,0.743c-0.294,0.364-0.63,0.854-1.092,1.541l1.358,2.073
			c0.519,0.798,0.701,0.925,1.541,1.037v0.364H172.422z"/>
		<path d="M180.262,51.14c-0.21,0-0.504-0.126-0.658-0.28c-0.182-0.182-0.266-0.378-0.336-0.616
			c-0.56,0.378-1.232,0.896-1.653,0.896c-0.995,0-1.681-0.826-1.681-1.709c0-0.686,0.364-1.121,1.134-1.387
			c0.841-0.28,1.863-0.658,2.171-0.91v-0.238c0-1.022-0.476-1.583-1.19-1.583c-0.266,0-0.477,0.098-0.63,0.266
			c-0.168,0.196-0.294,0.504-0.406,0.925c-0.07,0.224-0.21,0.322-0.406,0.322c-0.252,0-0.603-0.266-0.603-0.602
			c0-0.196,0.168-0.364,0.435-0.561c0.378-0.28,1.303-0.812,2.101-0.98c0.42,0,0.84,0.126,1.148,0.378
			c0.49,0.42,0.63,0.98,0.63,1.723v2.592c0,0.63,0.252,0.84,0.49,0.84c0.168,0,0.364-0.07,0.504-0.154l0.14,0.364L180.262,51.14z
			 M179.24,47.61c-0.294,0.154-0.966,0.448-1.261,0.588c-0.546,0.252-0.854,0.518-0.854,1.037c0,0.714,0.561,1.064,0.995,1.064
			c0.364,0,0.854-0.238,1.121-0.504V47.61z"/>
		<path d="M184.489,50.958c-0.238,0.126-0.448,0.182-0.588,0.182c-0.882,0-1.373-0.56-1.373-1.667v-4.062h-0.967l-0.056-0.154
			l0.392-0.406h0.63v-1.009l0.911-0.938l0.196,0.028v1.919h1.583c0.14,0.154,0.098,0.448-0.084,0.56h-1.499v3.586
			c0,1.135,0.462,1.345,0.827,1.345c0.35,0,0.672-0.14,0.854-0.238l0.126,0.364L184.489,50.958z"/>
		<path d="M186.056,50.972v-0.364c0.882-0.084,0.98-0.168,0.98-1.121v-2.885c0-0.869-0.042-0.939-0.882-1.065v-0.336
			c0.714-0.112,1.387-0.294,1.989-0.546v4.833c0,0.953,0.098,1.037,0.995,1.121v0.364H186.056z M186.798,42.75
			c0-0.42,0.336-0.728,0.715-0.728c0.392,0,0.7,0.308,0.7,0.728c0,0.378-0.308,0.715-0.714,0.715
			C187.134,43.464,186.798,43.128,186.798,42.75z"/>
		<path d="M195.985,47.807c0,2.255-1.653,3.333-3.04,3.333c-1.919,0-3.068-1.541-3.068-3.096c0-2.311,1.793-3.362,3.082-3.362
			C194.696,44.683,195.985,46.083,195.985,47.807z M191.18,47.596c0,1.765,0.756,3.082,1.919,3.082c0.868,0,1.583-0.645,1.583-2.563
			c0-1.625-0.658-2.97-1.905-2.97C191.937,45.145,191.18,46.014,191.18,47.596z"/>
		<path d="M200.744,50.972v-0.364c0.826-0.084,0.924-0.196,0.924-1.163v-2.339c0-0.966-0.336-1.597-1.275-1.597
			c-0.56,0-1.106,0.35-1.527,0.714v3.292c0,0.953,0.084,1.009,0.911,1.093v0.364h-3.04v-0.364c0.953-0.098,1.022-0.168,1.022-1.093
			V46.63c0-0.896-0.084-0.953-0.84-1.093v-0.322c0.672-0.126,1.331-0.294,1.947-0.56v1.106c0.28-0.21,0.588-0.42,0.939-0.658
			c0.392-0.252,0.756-0.42,1.163-0.42c1.121,0,1.807,0.785,1.807,2.129v2.703c0,0.953,0.084,1.009,0.896,1.093v0.364H200.744z"/>
		<path d="M206.595,50.664c0,1.092-0.967,1.681-1.835,1.947l-0.154-0.406c0.687-0.28,1.079-0.658,1.079-1.19
			c0-0.504-0.392-0.812-0.868-0.938c-0.07,0-0.182-0.112-0.182-0.336c0-0.351,0.336-0.588,0.686-0.588
			C205.825,49.151,206.595,49.697,206.595,50.664z"/>
		<path d="M216.985,47.807c0,2.255-1.653,3.333-3.04,3.333c-1.919,0-3.068-1.541-3.068-3.096c0-2.311,1.793-3.362,3.082-3.362
			C215.696,44.683,216.985,46.083,216.985,47.807z M212.18,47.596c0,1.765,0.756,3.082,1.919,3.082c0.868,0,1.583-0.645,1.583-2.563
			c0-1.625-0.658-2.97-1.905-2.97C212.937,45.145,212.18,46.014,212.18,47.596z"/>
		<path d="M221.744,50.972v-0.364c0.826-0.084,0.924-0.196,0.924-1.163v-2.339c0-0.966-0.336-1.597-1.274-1.597
			c-0.56,0-1.106,0.35-1.526,0.714v3.292c0,0.953,0.084,1.009,0.91,1.093v0.364h-3.039v-0.364c0.952-0.098,1.021-0.168,1.021-1.093
			V46.63c0-0.896-0.084-0.953-0.84-1.093v-0.322c0.672-0.126,1.33-0.294,1.947-0.56v1.106c0.279-0.21,0.588-0.42,0.938-0.658
			c0.392-0.252,0.757-0.42,1.163-0.42c1.12,0,1.807,0.785,1.807,2.129v2.703c0,0.953,0.084,1.009,0.896,1.093v0.364H221.744z"/>
		<path d="M237.917,45.215c-0.7,0.098-0.827,0.266-1.106,1.037c-0.42,1.121-1.051,2.984-1.682,4.875h-0.406
			c-0.561-1.513-1.135-2.886-1.709-4.356c-0.531,1.415-1.105,2.801-1.666,4.356h-0.393c-0.519-1.667-1.037-3.32-1.625-5.001
			c-0.252-0.729-0.364-0.826-1.037-0.911v-0.364h2.9v0.364c-0.841,0.126-0.91,0.21-0.715,0.854c0.336,1.065,0.687,2.171,1.037,3.25
			h0.027c0.519-1.345,1.037-2.773,1.625-4.398h0.364c0.519,1.457,1.093,2.941,1.681,4.455h0.028c0.308-0.967,0.7-2.199,0.967-3.236
			c0.183-0.729,0.084-0.798-0.812-0.925v-0.364h2.521V45.215z"/>
		<path d="M242.086,50.972v-0.364c0.812-0.084,0.924-0.168,0.924-1.079v-2.325c0-1.148-0.434-1.723-1.372-1.723
			c-0.532,0-1.065,0.267-1.457,0.715v3.333c0,0.896,0.07,0.995,0.911,1.079v0.364h-2.984l0.014-0.364
			c0.841-0.07,0.953-0.154,0.953-1.079v-6.682c0-0.882-0.028-0.938-0.953-1.022v-0.336c0.673-0.098,1.514-0.322,2.06-0.491v4.707
			c0.505-0.504,1.247-1.023,2.003-1.023c1.135,0,1.934,0.714,1.934,2.396v2.451c0,0.925,0.111,1.009,0.924,1.079v0.364H242.086z"/>
		<path d="M245.779,50.972v-0.364c0.883-0.084,0.98-0.168,0.98-1.121v-2.885c0-0.869-0.041-0.939-0.882-1.065v-0.336
			c0.714-0.112,1.387-0.294,1.989-0.546v4.833c0,0.953,0.098,1.037,0.994,1.121v0.364H245.779z M246.521,42.75
			c0-0.42,0.337-0.728,0.715-0.728c0.393,0,0.701,0.308,0.701,0.728c0,0.378-0.309,0.715-0.715,0.715
			C246.858,43.464,246.521,43.128,246.521,42.75z"/>
		<path d="M254.785,49.711c-0.617,0.812-1.541,1.429-2.367,1.429c-1.766,0-2.816-1.429-2.816-2.927c0-1.079,0.477-2.017,1.415-2.732
			c0.729-0.56,1.569-0.798,2.087-0.798h0.014c0.574,0,1.037,0.182,1.262,0.378c0.182,0.154,0.224,0.266,0.224,0.42
			c0,0.294-0.308,0.603-0.462,0.603c-0.084,0-0.154-0.042-0.267-0.154c-0.42-0.392-0.911-0.574-1.415-0.574
			c-0.924,0-1.723,0.771-1.723,2.241c0,1.947,1.316,2.592,2.115,2.592c0.603,0,1.051-0.168,1.695-0.771L254.785,49.711z"/>
		<path d="M259.152,50.972v-0.364c0.812-0.084,0.924-0.168,0.924-1.079v-2.325c0-1.148-0.434-1.723-1.373-1.723
			c-0.532,0-1.064,0.267-1.457,0.715v3.333c0,0.896,0.07,0.995,0.911,1.079v0.364h-2.983l0.014-0.364
			c0.84-0.07,0.953-0.154,0.953-1.079v-6.682c0-0.882-0.029-0.938-0.953-1.022v-0.336c0.672-0.098,1.513-0.322,2.059-0.491v4.707
			c0.505-0.504,1.247-1.023,2.004-1.023c1.135,0,1.933,0.714,1.933,2.396v2.451c0,0.925,0.112,1.009,0.925,1.079v0.364H259.152z"/>
		<path d="M268.797,50.958c-0.238,0.126-0.448,0.182-0.588,0.182c-0.883,0-1.373-0.56-1.373-1.667v-4.062h-0.967l-0.056-0.154
			l0.392-0.406h0.631v-1.009l0.91-0.938l0.196,0.028v1.919h1.583c0.141,0.154,0.098,0.448-0.084,0.56h-1.499v3.586
			c0,1.135,0.462,1.345,0.827,1.345c0.35,0,0.672-0.14,0.854-0.238l0.127,0.364L268.797,50.958z"/>
		<path d="M274.16,50.972v-0.364c0.812-0.084,0.924-0.168,0.924-1.079v-2.325c0-1.148-0.434-1.723-1.373-1.723
			c-0.532,0-1.064,0.267-1.457,0.715v3.333c0,0.896,0.07,0.995,0.911,1.079v0.364h-2.983l0.014-0.364
			c0.84-0.07,0.953-0.154,0.953-1.079v-6.682c0-0.882-0.029-0.938-0.953-1.022v-0.336c0.672-0.098,1.513-0.322,2.059-0.491v4.707
			c0.505-0.504,1.247-1.023,2.004-1.023c1.135,0,1.933,0.714,1.933,2.396v2.451c0,0.925,0.112,1.009,0.925,1.079v0.364H274.16z"/>
		<path d="M282.883,49.795c-0.883,1.093-1.85,1.345-2.284,1.345c-1.723,0-2.731-1.4-2.731-2.983c0-0.953,0.351-1.821,0.925-2.451
			c0.574-0.63,1.331-1.023,2.045-1.023h0.015c1.162,0,2.101,1.051,2.101,2.129c0,0.28-0.056,0.392-0.322,0.448
			c-0.224,0.042-1.989,0.182-3.67,0.238c0.015,1.905,1.12,2.689,2.101,2.689c0.574,0,1.094-0.225,1.611-0.701L282.883,49.795z
			 M279.03,46.924c0.784,0,1.568-0.014,2.381-0.042c0.253,0,0.337-0.07,0.337-0.28c0.014-0.729-0.463-1.401-1.247-1.401
			C279.871,45.201,279.24,45.79,279.03,46.924z"/>
		<path d="M292.01,49.795c-0.883,1.093-1.85,1.345-2.283,1.345c-1.723,0-2.732-1.4-2.732-2.983c0-0.953,0.352-1.821,0.926-2.451
			c0.574-0.63,1.33-1.023,2.045-1.023h0.014c1.162,0,2.102,1.051,2.102,2.129c0,0.28-0.057,0.392-0.322,0.448
			c-0.225,0.042-1.989,0.182-3.67,0.238c0.014,1.905,1.12,2.689,2.101,2.689c0.574,0,1.093-0.225,1.61-0.701L292.01,49.795z
			 M288.157,46.924c0.784,0,1.569-0.014,2.382-0.042c0.252,0,0.336-0.07,0.336-0.28c0.014-0.729-0.463-1.401-1.246-1.401
			C288.998,45.201,288.367,45.79,288.157,46.924z"/>
		<path d="M299.234,45.215c-0.743,0.112-0.855,0.224-1.233,1.009c-0.364,0.742-0.798,1.905-1.765,4.216
			c-0.939,2.241-1.247,3.04-1.443,3.782c-0.07,0.28-0.252,0.35-0.447,0.35c-0.393,0-0.785-0.336-0.785-0.672
			c0-0.224,0.112-0.351,0.35-0.519c0.449-0.266,0.715-0.616,1.051-1.232c0.252-0.49,0.365-0.785,0.435-0.967
			c0.07-0.21,0.056-0.392-0.028-0.63c-0.561-1.597-1.19-3.292-1.597-4.286c-0.308-0.771-0.435-0.953-1.204-1.051v-0.364h2.829
			l0.015,0.364c-0.658,0.098-0.729,0.238-0.533,0.771l1.262,3.502c0.392-0.953,1.008-2.605,1.288-3.488
			c0.168-0.519,0.084-0.687-0.729-0.785v-0.364h2.536V45.215z"/>
		<path d="M304.385,49.795c-0.883,1.093-1.849,1.345-2.283,1.345c-1.723,0-2.731-1.4-2.731-2.983c0-0.953,0.351-1.821,0.925-2.451
			c0.574-0.63,1.33-1.023,2.045-1.023h0.014c1.163,0,2.102,1.051,2.102,2.129c0,0.28-0.057,0.392-0.322,0.448
			c-0.225,0.042-1.988,0.182-3.67,0.238c0.014,1.905,1.121,2.689,2.102,2.689c0.574,0,1.092-0.225,1.61-0.701L304.385,49.795z
			 M300.533,46.924c0.784,0,1.568-0.014,2.381-0.042c0.252,0,0.336-0.07,0.336-0.28c0.015-0.729-0.462-1.401-1.246-1.401
			C301.373,45.201,300.743,45.79,300.533,46.924z"/>
		<path d="M310.543,46.182c0.42-0.714,1.022-1.499,1.695-1.499c0.476,0,0.812,0.378,0.812,0.701c0,0.28-0.183,0.56-0.449,0.686
			c-0.168,0.07-0.279,0.056-0.363-0.028c-0.211-0.196-0.379-0.28-0.604-0.28c-0.363,0-0.812,0.406-1.12,1.191v2.563
			c0,0.925,0.07,1.009,1.149,1.093v0.364h-3.223v-0.364c0.869-0.084,0.967-0.168,0.967-1.093v-2.899c0-0.924-0.057-0.98-0.868-1.079
			v-0.322c0.687-0.112,1.302-0.28,1.975-0.56v1.527H310.543z"/>
		<path d="M318.525,49.795c-0.883,1.093-1.85,1.345-2.284,1.345c-1.723,0-2.731-1.4-2.731-2.983c0-0.953,0.351-1.821,0.925-2.451
			c0.574-0.63,1.331-1.023,2.045-1.023h0.015c1.162,0,2.101,1.051,2.101,2.129c0,0.28-0.056,0.392-0.322,0.448
			c-0.224,0.042-1.989,0.182-3.67,0.238c0.015,1.905,1.12,2.689,2.101,2.689c0.574,0,1.094-0.225,1.611-0.701L318.525,49.795z
			 M314.673,46.924c0.784,0,1.568-0.014,2.381-0.042c0.253,0,0.337-0.07,0.337-0.28c0.014-0.729-0.463-1.401-1.247-1.401
			C315.514,45.201,314.883,45.79,314.673,46.924z"/>
		<path d="M323.06,46.518c-0.28-0.84-0.757-1.387-1.442-1.387c-0.547,0-0.91,0.406-0.91,0.967c0,0.616,0.56,0.938,1.176,1.205
			c1.064,0.434,1.779,0.938,1.779,1.905c0,1.275-1.191,1.933-2.312,1.933c-0.714,0-1.358-0.266-1.597-0.476
			c-0.098-0.196-0.238-1.149-0.238-1.653l0.379-0.07c0.237,0.925,0.867,1.737,1.709,1.737c0.518,0,0.994-0.378,0.994-0.981
			c0-0.616-0.406-0.952-1.107-1.274c-0.84-0.378-1.75-0.854-1.75-1.919c0-0.98,0.84-1.821,2.129-1.821
			c0.574,0,0.952,0.126,1.232,0.252c0.126,0.308,0.28,1.148,0.309,1.485L323.06,46.518z"/>
		<path d="M327.23,50.958c-0.238,0.126-0.447,0.182-0.588,0.182c-0.883,0-1.373-0.56-1.373-1.667v-4.062h-0.967l-0.055-0.154
			l0.392-0.406h0.63v-1.009l0.911-0.938l0.196,0.028v1.919h1.582c0.141,0.154,0.099,0.448-0.084,0.56h-1.498v3.586
			c0,1.135,0.462,1.345,0.826,1.345c0.35,0,0.672-0.14,0.854-0.238l0.126,0.364L327.23,50.958z"/>
		<path d="M332.397,46.518c-0.28-0.84-0.757-1.387-1.442-1.387c-0.547,0-0.91,0.406-0.91,0.967c0,0.616,0.56,0.938,1.176,1.205
			c1.064,0.434,1.779,0.938,1.779,1.905c0,1.275-1.191,1.933-2.312,1.933c-0.714,0-1.358-0.266-1.597-0.476
			c-0.098-0.196-0.238-1.149-0.238-1.653l0.379-0.07c0.237,0.925,0.867,1.737,1.709,1.737c0.518,0,0.994-0.378,0.994-0.981
			c0-0.616-0.406-0.952-1.107-1.274c-0.84-0.378-1.75-0.854-1.75-1.919c0-0.98,0.84-1.821,2.129-1.821
			c0.574,0,0.952,0.126,1.232,0.252c0.126,0.308,0.28,1.148,0.309,1.485L332.397,46.518z"/>
		<path d="M341.469,51.14c-0.209,0-0.504-0.126-0.658-0.28c-0.182-0.182-0.266-0.378-0.336-0.616
			c-0.561,0.378-1.232,0.896-1.652,0.896c-0.995,0-1.682-0.826-1.682-1.709c0-0.686,0.365-1.121,1.135-1.387
			c0.841-0.28,1.863-0.658,2.172-0.91v-0.238c0-1.022-0.477-1.583-1.191-1.583c-0.266,0-0.477,0.098-0.63,0.266
			c-0.169,0.196-0.294,0.504-0.406,0.925c-0.07,0.224-0.21,0.322-0.406,0.322c-0.253,0-0.603-0.266-0.603-0.602
			c0-0.196,0.168-0.364,0.435-0.561c0.378-0.28,1.303-0.812,2.101-0.98c0.42,0,0.841,0.126,1.148,0.378
			c0.49,0.42,0.631,0.98,0.631,1.723v2.592c0,0.63,0.252,0.84,0.49,0.84c0.168,0,0.364-0.07,0.504-0.154l0.141,0.364L341.469,51.14z
			 M340.447,47.61c-0.295,0.154-0.967,0.448-1.262,0.588c-0.546,0.252-0.854,0.518-0.854,1.037c0,0.714,0.561,1.064,0.994,1.064
			c0.364,0,0.854-0.238,1.121-0.504V47.61z"/>
		<path d="M347.027,50.972v-0.364c0.826-0.084,0.924-0.196,0.924-1.163v-2.339c0-0.966-0.336-1.597-1.274-1.597
			c-0.56,0-1.106,0.35-1.526,0.714v3.292c0,0.953,0.084,1.009,0.91,1.093v0.364h-3.039v-0.364c0.952-0.098,1.021-0.168,1.021-1.093
			V46.63c0-0.896-0.084-0.953-0.84-1.093v-0.322c0.672-0.126,1.33-0.294,1.947-0.56v1.106c0.279-0.21,0.588-0.42,0.938-0.658
			c0.392-0.252,0.757-0.42,1.163-0.42c1.12,0,1.807,0.785,1.807,2.129v2.703c0,0.953,0.084,1.009,0.896,1.093v0.364H347.027z"/>
		<path d="M357.459,50.608c-0.309,0.056-1.359,0.238-2.172,0.532v-0.91l-0.854,0.504c-0.56,0.322-0.938,0.406-1.092,0.406
			c-1.121,0-2.592-1.022-2.592-2.983c0-1.947,1.695-3.474,3.6-3.474c0.196,0,0.617,0.042,0.938,0.168v-2.003
			c0-0.91-0.069-0.953-1.078-1.022v-0.35c0.729-0.084,1.667-0.308,2.186-0.477v8.363c0,0.729,0.098,0.798,0.616,0.854l0.448,0.042
			V50.608z M355.287,45.929c-0.336-0.49-0.924-0.714-1.442-0.714c-0.658,0-1.835,0.533-1.835,2.563c0,1.667,1.022,2.479,1.933,2.479
			c0.49,0,1.009-0.224,1.345-0.476V45.929z"/>
		<path d="M360.996,50.972v-0.364c0.883-0.084,1.009-0.168,1.009-1.093V42.89c0-0.952-0.084-0.98-0.967-1.064v-0.336
			c0.729-0.084,1.597-0.322,2.073-0.491v8.517c0,0.925,0.112,1.009,1.009,1.093v0.364H360.996z"/>
		<path d="M370.954,47.807c0,2.255-1.653,3.333-3.04,3.333c-1.919,0-3.067-1.541-3.067-3.096c0-2.311,1.793-3.362,3.081-3.362
			C369.665,44.683,370.954,46.083,370.954,47.807z M366.149,47.596c0,1.765,0.756,3.082,1.919,3.082
			c0.868,0,1.583-0.645,1.583-2.563c0-1.625-0.659-2.97-1.905-2.97C366.905,45.145,366.149,46.014,366.149,47.596z"/>
		<path d="M378.22,47.807c0,2.255-1.653,3.333-3.04,3.333c-1.919,0-3.067-1.541-3.067-3.096c0-2.311,1.793-3.362,3.081-3.362
			C376.931,44.683,378.22,46.083,378.22,47.807z M373.415,47.596c0,1.765,0.756,3.082,1.919,3.082c0.868,0,1.583-0.645,1.583-2.563
			c0-1.625-0.659-2.97-1.905-2.97C374.171,45.145,373.415,46.014,373.415,47.596z"/>
		<path d="M383.901,51c-0.645-0.714-1.526-1.835-2.297-2.773c-0.196-0.224-0.322-0.308-0.435-0.308c-0.07,0-0.14,0.014-0.224,0.042
			v1.555c0,0.925,0.111,1.009,1.008,1.093v0.364h-3.123v-0.364c0.938-0.084,1.022-0.196,1.022-1.093v-6.611
			c0-0.924-0.07-1.009-0.925-1.079v-0.336c0.673-0.07,1.471-0.309,2.018-0.491v6.598c0.42-0.084,0.672-0.266,0.882-0.49
			c0.309-0.308,0.729-0.854,0.995-1.232c0.294-0.435,0.252-0.546-0.421-0.616v-0.364l2.858-0.126v0.351
			c-0.967,0.154-1.261,0.308-1.808,0.826c-0.35,0.35-0.603,0.63-1.204,1.331c0.266,0.42,1.694,2.073,2.171,2.563
			c0.49,0.532,0.868,0.743,1.4,0.771v0.364L383.901,51z"/>
		<path d="M389.696,46.518c-0.28-0.84-0.757-1.387-1.442-1.387c-0.547,0-0.911,0.406-0.911,0.967c0,0.616,0.561,0.938,1.177,1.205
			c1.064,0.434,1.779,0.938,1.779,1.905c0,1.275-1.19,1.933-2.312,1.933c-0.714,0-1.358-0.266-1.597-0.476
			c-0.098-0.196-0.238-1.149-0.238-1.653l0.378-0.07c0.238,0.925,0.869,1.737,1.709,1.737c0.519,0,0.995-0.378,0.995-0.981
			c0-0.616-0.406-0.952-1.106-1.274c-0.841-0.378-1.751-0.854-1.751-1.919c0-0.98,0.84-1.821,2.129-1.821
			c0.574,0,0.952,0.126,1.232,0.252c0.126,0.308,0.28,1.148,0.309,1.485L389.696,46.518z"/>
		<path d="M19.783,79.796c-0.883,1.093-1.849,1.345-2.283,1.345c-1.723,0-2.732-1.4-2.732-2.983c0-0.953,0.351-1.821,0.925-2.451
			c0.574-0.631,1.331-1.023,2.045-1.023h0.014c1.163,0,2.101,1.051,2.101,2.13c0,0.28-0.056,0.392-0.322,0.448
			c-0.224,0.042-1.989,0.182-3.67,0.238c0.014,1.904,1.121,2.689,2.101,2.689c0.574,0,1.093-0.225,1.611-0.701L19.783,79.796z
			 M15.931,76.924c0.785,0,1.569-0.014,2.381-0.042c0.252,0,0.336-0.069,0.336-0.279c0.014-0.729-0.462-1.401-1.247-1.401
			C16.771,75.201,16.141,75.79,15.931,76.924z"/>
		<path d="M23.842,80.973v-0.364c0.588-0.07,0.714-0.183,0.476-0.561l-1.037-1.639c-0.308,0.462-0.63,0.98-0.896,1.484
			c-0.28,0.477-0.238,0.603,0.477,0.715v0.364h-2.605v-0.364c0.868-0.112,1.022-0.225,1.569-0.925
			c0.392-0.49,0.771-1.051,1.19-1.681l-1.219-1.905c-0.434-0.672-0.602-0.784-1.373-0.883v-0.363h2.788v0.363
			c-0.588,0.085-0.645,0.196-0.378,0.589l0.827,1.303c0.28-0.42,0.56-0.854,0.812-1.316c0.252-0.435,0.154-0.505-0.462-0.575v-0.363
			h2.563v0.363c-0.854,0.085-1.037,0.154-1.541,0.743c-0.294,0.364-0.63,0.854-1.092,1.541l1.358,2.072
			c0.519,0.799,0.701,0.925,1.541,1.037v0.364H23.842z"/>
		<path d="M31.682,81.141c-0.21,0-0.504-0.126-0.658-0.28c-0.182-0.182-0.266-0.378-0.336-0.616
			c-0.56,0.378-1.232,0.896-1.653,0.896c-0.995,0-1.681-0.826-1.681-1.709c0-0.687,0.364-1.121,1.134-1.387
			c0.841-0.28,1.863-0.658,2.171-0.91v-0.238c0-1.022-0.476-1.583-1.19-1.583c-0.266,0-0.477,0.098-0.63,0.266
			c-0.168,0.196-0.294,0.505-0.406,0.925c-0.07,0.225-0.21,0.322-0.406,0.322c-0.252,0-0.603-0.267-0.603-0.603
			c0-0.196,0.168-0.364,0.435-0.561c0.378-0.279,1.303-0.812,2.101-0.98c0.42,0,0.84,0.127,1.148,0.379
			c0.49,0.42,0.63,0.98,0.63,1.723v2.592c0,0.63,0.252,0.84,0.49,0.84c0.168,0,0.364-0.07,0.504-0.154l0.14,0.364L31.682,81.141z
			 M30.66,77.61c-0.294,0.154-0.966,0.448-1.261,0.589c-0.546,0.252-0.854,0.518-0.854,1.036c0,0.715,0.561,1.064,0.995,1.064
			c0.364,0,0.854-0.238,1.121-0.504V77.61z"/>
		<path d="M38.655,79.712c-0.616,0.812-1.541,1.429-2.367,1.429c-1.765,0-2.816-1.429-2.816-2.928c0-1.078,0.477-2.017,1.415-2.731
			c0.729-0.561,1.569-0.799,2.087-0.799h0.014c0.574,0,1.037,0.183,1.261,0.379c0.182,0.153,0.224,0.266,0.224,0.42
			c0,0.294-0.308,0.603-0.462,0.603c-0.084,0-0.154-0.042-0.266-0.154c-0.42-0.393-0.911-0.574-1.415-0.574
			c-0.925,0-1.723,0.771-1.723,2.241c0,1.947,1.317,2.592,2.115,2.592c0.603,0,1.051-0.169,1.695-0.771L38.655,79.712z"/>
		<path d="M42.195,80.958c-0.238,0.127-0.448,0.183-0.588,0.183c-0.882,0-1.373-0.561-1.373-1.667v-4.062h-0.967l-0.056-0.153
			l0.392-0.406h0.63v-1.009l0.911-0.939l0.196,0.028v1.92h1.583c0.14,0.153,0.098,0.448-0.084,0.56H41.34v3.586
			c0,1.135,0.462,1.345,0.827,1.345c0.35,0,0.672-0.14,0.854-0.238l0.126,0.364L42.195,80.958z"/>
		<path d="M43.537,80.973v-0.364c0.883-0.084,1.009-0.168,1.009-1.093V72.89c0-0.952-0.084-0.98-0.967-1.064v-0.336
			c0.729-0.084,1.597-0.322,2.073-0.491v8.517c0,0.925,0.112,1.009,1.009,1.093v0.364H43.537z"/>
		<path d="M53.467,75.215c-0.743,0.112-0.854,0.225-1.233,1.009c-0.364,0.742-0.798,1.905-1.765,4.217
			c-0.939,2.241-1.247,3.039-1.443,3.782c-0.07,0.279-0.252,0.35-0.448,0.35c-0.393,0-0.785-0.336-0.785-0.672
			c0-0.225,0.112-0.351,0.35-0.519c0.448-0.267,0.714-0.616,1.051-1.232c0.252-0.49,0.364-0.785,0.434-0.967
			c0.07-0.21,0.056-0.393-0.028-0.631c-0.561-1.597-1.191-3.291-1.597-4.286c-0.308-0.771-0.434-0.952-1.205-1.051v-0.363h2.83
			l0.014,0.363c-0.658,0.099-0.729,0.238-0.532,0.771l1.261,3.502c0.392-0.952,1.008-2.605,1.289-3.487
			c0.168-0.519,0.084-0.687-0.729-0.785v-0.363h2.536V75.215z"/>
		<path d="M52.988,80.328c0-0.448,0.336-0.799,0.784-0.799s0.785,0.351,0.785,0.799c0,0.49-0.336,0.812-0.798,0.812
			C53.324,81.141,52.988,80.818,52.988,80.328z"/>
		<path d="M63.868,73.982c-0.238-0.882-0.616-1.849-1.835-1.849c-1.079,0-1.555,0.771-1.555,1.527c0,1.022,0.672,1.513,1.779,2.073
			c1.106,0.574,2.423,1.219,2.423,2.802c0,1.471-1.247,2.647-3.11,2.647c-0.574,0-1.036-0.112-1.373-0.21
			c-0.35-0.112-0.56-0.225-0.7-0.294c-0.098-0.295-0.28-1.499-0.378-2.172l0.42-0.098c0.21,0.854,0.84,2.27,2.297,2.27
			c1.064,0,1.681-0.659,1.681-1.682c0-1.036-0.771-1.526-1.821-2.087c-0.896-0.49-2.312-1.177-2.312-2.76
			c0-1.345,1.079-2.493,2.886-2.493c0.644,0,1.232,0.154,1.765,0.322c0.056,0.49,0.126,1.051,0.238,1.934L63.868,73.982z"/>
		<path d="M68.207,80.958c-0.238,0.127-0.448,0.183-0.588,0.183c-0.882,0-1.373-0.561-1.373-1.667v-4.062h-0.967l-0.056-0.153
			l0.392-0.406h0.63v-1.009l0.911-0.939l0.196,0.028v1.92h1.583c0.14,0.153,0.098,0.448-0.084,0.56h-1.499v3.586
			c0,1.135,0.462,1.345,0.827,1.345c0.35,0,0.672-0.14,0.854-0.238l0.126,0.364L68.207,80.958z"/>
		<path d="M71.889,76.182c0.42-0.714,1.022-1.499,1.695-1.499c0.476,0,0.812,0.379,0.812,0.701c0,0.279-0.182,0.56-0.448,0.686
			c-0.168,0.07-0.28,0.057-0.364-0.027c-0.21-0.196-0.378-0.28-0.603-0.28c-0.364,0-0.812,0.406-1.121,1.19v2.563
			c0,0.925,0.07,1.009,1.149,1.093v0.364h-3.222v-0.364c0.868-0.084,0.966-0.168,0.966-1.093v-2.899c0-0.925-0.056-0.98-0.868-1.079
			v-0.322c0.686-0.111,1.302-0.279,1.975-0.56v1.526H71.889z"/>
		<path d="M79.394,81.141c-0.21,0-0.504-0.126-0.658-0.28c-0.182-0.182-0.266-0.378-0.336-0.616
			c-0.56,0.378-1.232,0.896-1.653,0.896c-0.994,0-1.681-0.826-1.681-1.709c0-0.687,0.364-1.121,1.135-1.387
			c0.84-0.28,1.863-0.658,2.171-0.91v-0.238c0-1.022-0.476-1.583-1.19-1.583c-0.266,0-0.477,0.098-0.63,0.266
			c-0.168,0.196-0.294,0.505-0.406,0.925c-0.07,0.225-0.21,0.322-0.406,0.322c-0.252,0-0.603-0.267-0.603-0.603
			c0-0.196,0.168-0.364,0.435-0.561c0.378-0.279,1.302-0.812,2.101-0.98c0.42,0,0.84,0.127,1.148,0.379
			c0.49,0.42,0.63,0.98,0.63,1.723v2.592c0,0.63,0.252,0.84,0.49,0.84c0.168,0,0.364-0.07,0.504-0.154l0.14,0.364L79.394,81.141z
			 M78.371,77.61c-0.294,0.154-0.966,0.448-1.261,0.589c-0.546,0.252-0.854,0.518-0.854,1.036c0,0.715,0.561,1.064,0.995,1.064
			c0.364,0,0.854-0.238,1.121-0.504V77.61z"/>
		<path d="M80.987,80.973v-0.364c0.882-0.084,0.98-0.168,0.98-1.121v-2.885c0-0.869-0.042-0.939-0.882-1.065v-0.336
			c0.714-0.112,1.387-0.294,1.989-0.546v4.832c0,0.953,0.098,1.037,0.995,1.121v0.364H80.987z M81.729,72.75
			c0-0.42,0.336-0.728,0.715-0.728c0.392,0,0.7,0.308,0.7,0.728c0,0.378-0.308,0.715-0.714,0.715
			C82.066,73.465,81.729,73.128,81.729,72.75z"/>
		<path d="M90.847,74.963c-0.126,0.225-0.406,0.589-0.63,0.715l-0.798-0.042c0.252,0.294,0.42,0.742,0.42,1.232
			c0,1.513-1.261,2.241-2.451,2.241c-0.224,0-0.49-0.028-0.714-0.07c-0.182,0.126-0.42,0.393-0.42,0.589
			c0,0.266,0.252,0.532,0.883,0.532c0.518,0,1.008-0.015,1.484-0.015c0.869,0,2.003,0.28,2.003,1.653
			c0,1.415-1.625,2.773-3.488,2.773c-1.569,0-2.423-0.91-2.438-1.709c0-0.308,0.126-0.574,0.336-0.784
			c0.28-0.28,0.827-0.715,1.163-0.98c-0.504-0.154-0.854-0.477-1.037-0.771c-0.126-0.196-0.168-0.448-0.154-0.588
			c0.561-0.211,1.009-0.575,1.233-0.854c-0.63-0.267-1.233-0.925-1.233-1.878c0-1.582,1.429-2.325,2.507-2.325h0.014
			c0.462,0,0.924,0.127,1.345,0.379c0.672-0.042,1.387-0.126,1.905-0.21L90.847,74.963z M86.448,81.421
			c-0.364,0.308-0.645,0.7-0.645,1.093c0,0.77,0.812,1.345,1.849,1.345c1.331,0,2.017-0.687,2.017-1.556
			c0-0.476-0.238-0.826-0.63-0.994c-0.35-0.14-0.756-0.182-1.373-0.182C87.022,81.127,86.7,81.211,86.448,81.421z M86.21,76.784
			c0,1.093,0.546,1.877,1.317,1.877c0.616-0.014,1.163-0.561,1.163-1.667c0-1.093-0.519-1.877-1.331-1.877
			C86.771,75.117,86.21,75.706,86.21,76.784z"/>
		<path d="M95.171,80.973v-0.364c0.812-0.084,0.924-0.168,0.924-1.079v-2.325c0-1.148-0.434-1.723-1.373-1.723
			c-0.532,0-1.065,0.267-1.457,0.715v3.333c0,0.896,0.07,0.995,0.911,1.079v0.364h-2.984l0.014-0.364
			c0.84-0.07,0.953-0.154,0.953-1.079v-6.682c0-0.882-0.028-0.938-0.953-1.022v-0.336c0.672-0.098,1.513-0.322,2.059-0.491v4.708
			c0.504-0.505,1.247-1.023,2.003-1.023c1.135,0,1.933,0.715,1.933,2.396v2.451c0,0.925,0.112,1.009,0.925,1.079v0.364H95.171z"/>
		<path d="M101.373,80.958c-0.238,0.127-0.448,0.183-0.588,0.183c-0.882,0-1.373-0.561-1.373-1.667v-4.062h-0.967l-0.056-0.153
			l0.392-0.406h0.63v-1.009l0.911-0.939l0.196,0.028v1.92h1.583c0.14,0.153,0.098,0.448-0.084,0.56h-1.499v3.586
			c0,1.135,0.462,1.345,0.827,1.345c0.35,0,0.672-0.14,0.854-0.238l0.126,0.364L101.373,80.958z"/>
		<path d="M105.809,80.973v-0.364c0.883-0.084,1.009-0.168,1.009-1.093V72.89c0-0.952-0.084-0.98-0.967-1.064v-0.336
			c0.729-0.084,1.597-0.322,2.073-0.491v8.517c0,0.925,0.112,1.009,1.009,1.093v0.364H105.809z"/>
		<path d="M109.589,80.973v-0.364c0.882-0.084,0.98-0.168,0.98-1.121v-2.885c0-0.869-0.042-0.939-0.882-1.065v-0.336
			c0.714-0.112,1.387-0.294,1.989-0.546v4.832c0,0.953,0.098,1.037,0.995,1.121v0.364H109.589z M110.331,72.75
			c0-0.42,0.336-0.728,0.715-0.728c0.392,0,0.7,0.308,0.7,0.728c0,0.378-0.308,0.715-0.714,0.715
			C110.667,73.465,110.331,73.128,110.331,72.75z"/>
		<path d="M117.305,80.973v-0.364c0.826-0.084,0.924-0.196,0.924-1.163v-2.339c0-0.967-0.336-1.597-1.275-1.597
			c-0.56,0-1.106,0.35-1.527,0.714v3.292c0,0.952,0.084,1.009,0.911,1.093v0.364h-3.04v-0.364c0.953-0.099,1.022-0.168,1.022-1.093
			V76.63c0-0.896-0.084-0.952-0.84-1.093v-0.322c0.672-0.126,1.331-0.294,1.947-0.56v1.106c0.28-0.21,0.588-0.42,0.938-0.658
			c0.393-0.252,0.757-0.421,1.163-0.421c1.121,0,1.807,0.785,1.807,2.13v2.703c0,0.952,0.084,1.009,0.896,1.093v0.364H117.305z"/>
		<path d="M126.027,79.796c-0.883,1.093-1.849,1.345-2.283,1.345c-1.723,0-2.732-1.4-2.732-2.983c0-0.953,0.351-1.821,0.925-2.451
			c0.574-0.631,1.331-1.023,2.045-1.023h0.014c1.163,0,2.101,1.051,2.101,2.13c0,0.28-0.056,0.392-0.322,0.448
			c-0.224,0.042-1.989,0.182-3.67,0.238c0.014,1.904,1.121,2.689,2.101,2.689c0.574,0,1.093-0.225,1.611-0.701L126.027,79.796z
			 M122.175,76.924c0.785,0,1.569-0.014,2.381-0.042c0.252,0,0.336-0.069,0.336-0.279c0.014-0.729-0.462-1.401-1.247-1.401
			C123.016,75.201,122.385,75.79,122.175,76.924z"/>
		<path d="M130.562,76.518c-0.28-0.84-0.756-1.387-1.443-1.387c-0.546,0-0.91,0.406-0.91,0.967c0,0.616,0.56,0.938,1.176,1.205
			c1.065,0.434,1.779,0.938,1.779,1.904c0,1.275-1.191,1.934-2.312,1.934c-0.714,0-1.358-0.267-1.597-0.477
			c-0.098-0.196-0.238-1.148-0.238-1.652l0.378-0.07c0.238,0.925,0.868,1.737,1.709,1.737c0.518,0,0.994-0.379,0.994-0.981
			c0-0.616-0.406-0.952-1.106-1.274c-0.84-0.378-1.751-0.854-1.751-1.919c0-0.98,0.84-1.821,2.129-1.821
			c0.574,0,0.952,0.127,1.232,0.253c0.126,0.308,0.28,1.148,0.308,1.484L130.562,76.518z"/>
		<path d="M138.023,74.823c0.224-0.099,0.406-0.141,0.574-0.141c1.499,0,2.76,1.289,2.76,2.956c0,2.045-1.653,3.502-3.516,3.502
			c-0.574,0-1.289-0.141-2.059-0.504v-7.775c0-0.882-0.028-0.967-0.924-1.051v-0.322c0.658-0.084,1.513-0.294,2.031-0.491v4.315
			L138.023,74.823z M136.889,79.348c0,0.21,0.028,0.35,0.084,0.49c0.098,0.266,0.504,0.771,1.232,0.771
			c1.177,0,1.905-0.995,1.905-2.619c0-1.583-0.967-2.521-2.129-2.521c-0.392,0-0.84,0.126-1.092,0.266V79.348z"/>
		<path d="M147.53,79.796c-0.883,1.093-1.849,1.345-2.283,1.345c-1.723,0-2.732-1.4-2.732-2.983c0-0.953,0.351-1.821,0.925-2.451
			c0.574-0.631,1.331-1.023,2.045-1.023h0.014c1.163,0,2.101,1.051,2.101,2.13c0,0.28-0.056,0.392-0.322,0.448
			c-0.224,0.042-1.989,0.182-3.67,0.238c0.014,1.904,1.121,2.689,2.101,2.689c0.574,0,1.093-0.225,1.611-0.701L147.53,79.796z
			 M143.678,76.924c0.785,0,1.569-0.014,2.381-0.042c0.252,0,0.336-0.069,0.336-0.279c0.014-0.729-0.462-1.401-1.247-1.401
			C144.519,75.201,143.888,75.79,143.678,76.924z"/>
		<path d="M151.168,80.958c-0.238,0.127-0.448,0.183-0.588,0.183c-0.882,0-1.373-0.561-1.373-1.667v-4.062h-0.967l-0.056-0.153
			l0.392-0.406h0.63v-1.009l0.911-0.939l0.196,0.028v1.92h1.583c0.14,0.153,0.098,0.448-0.084,0.56h-1.499v3.586
			c0,1.135,0.462,1.345,0.827,1.345c0.35,0,0.672-0.14,0.854-0.238l0.126,0.364L151.168,80.958z"/>
		<path d="M162.008,75.215c-0.7,0.099-0.826,0.267-1.106,1.037c-0.42,1.12-1.05,2.983-1.681,4.875h-0.406
			c-0.561-1.514-1.135-2.886-1.709-4.356c-0.532,1.414-1.106,2.801-1.667,4.356h-0.392c-0.519-1.667-1.037-3.32-1.625-5.001
			c-0.252-0.729-0.364-0.826-1.037-0.911v-0.363h2.899v0.363c-0.84,0.127-0.91,0.211-0.714,0.854
			c0.336,1.065,0.687,2.172,1.037,3.25h0.028c0.518-1.345,1.037-2.773,1.625-4.398h0.364c0.519,1.457,1.093,2.941,1.681,4.455h0.028
			c0.308-0.967,0.701-2.199,0.967-3.236c0.182-0.729,0.084-0.798-0.812-0.925v-0.363h2.521V75.215z"/>
		<path d="M167.27,79.796c-0.883,1.093-1.849,1.345-2.283,1.345c-1.723,0-2.732-1.4-2.732-2.983c0-0.953,0.351-1.821,0.925-2.451
			c0.574-0.631,1.331-1.023,2.045-1.023h0.014c1.163,0,2.101,1.051,2.101,2.13c0,0.28-0.056,0.392-0.322,0.448
			c-0.224,0.042-1.989,0.182-3.67,0.238c0.014,1.904,1.121,2.689,2.101,2.689c0.574,0,1.093-0.225,1.611-0.701L167.27,79.796z
			 M163.417,76.924c0.785,0,1.569-0.014,2.381-0.042c0.252,0,0.336-0.069,0.336-0.279c0.014-0.729-0.462-1.401-1.247-1.401
			C164.258,75.201,163.627,75.79,163.417,76.924z"/>
		<path d="M173.289,79.796c-0.883,1.093-1.849,1.345-2.283,1.345c-1.723,0-2.732-1.4-2.732-2.983c0-0.953,0.351-1.821,0.925-2.451
			c0.574-0.631,1.331-1.023,2.045-1.023h0.014c1.163,0,2.101,1.051,2.101,2.13c0,0.28-0.056,0.392-0.322,0.448
			c-0.224,0.042-1.989,0.182-3.67,0.238c0.014,1.904,1.121,2.689,2.101,2.689c0.574,0,1.093-0.225,1.611-0.701L173.289,79.796z
			 M169.437,76.924c0.785,0,1.569-0.014,2.381-0.042c0.252,0,0.336-0.069,0.336-0.279c0.014-0.729-0.462-1.401-1.247-1.401
			C170.277,75.201,169.647,75.79,169.437,76.924z"/>
		<path d="M178.118,80.973v-0.364c0.826-0.084,0.924-0.196,0.924-1.163v-2.339c0-0.967-0.336-1.597-1.275-1.597
			c-0.56,0-1.106,0.35-1.527,0.714v3.292c0,0.952,0.084,1.009,0.911,1.093v0.364h-3.04v-0.364c0.953-0.099,1.022-0.168,1.022-1.093
			V76.63c0-0.896-0.084-0.952-0.84-1.093v-0.322c0.672-0.126,1.331-0.294,1.947-0.56v1.106c0.28-0.21,0.588-0.42,0.939-0.658
			c0.392-0.252,0.756-0.421,1.163-0.421c1.121,0,1.807,0.785,1.807,2.13v2.703c0,0.952,0.084,1.009,0.896,1.093v0.364H178.118z"/>
		<path d="M187.763,80.958c-0.238,0.127-0.448,0.183-0.588,0.183c-0.882,0-1.373-0.561-1.373-1.667v-4.062h-0.967l-0.056-0.153
			l0.392-0.406h0.63v-1.009l0.911-0.939l0.196,0.028v1.92h1.583c0.14,0.153,0.098,0.448-0.084,0.56h-1.499v3.586
			c0,1.135,0.462,1.345,0.827,1.345c0.35,0,0.672-0.14,0.854-0.238l0.126,0.364L187.763,80.958z"/>
		<path d="M193.126,80.973v-0.364c0.812-0.084,0.924-0.168,0.924-1.079v-2.325c0-1.148-0.434-1.723-1.373-1.723
			c-0.532,0-1.065,0.267-1.457,0.715v3.333c0,0.896,0.07,0.995,0.911,1.079v0.364h-2.984l0.014-0.364
			c0.84-0.07,0.953-0.154,0.953-1.079v-6.682c0-0.882-0.028-0.938-0.953-1.022v-0.336c0.672-0.098,1.513-0.322,2.059-0.491v4.708
			c0.504-0.505,1.247-1.023,2.003-1.023c1.135,0,1.933,0.715,1.933,2.396v2.451c0,0.925,0.112,1.009,0.925,1.079v0.364H193.126z"/>
		<path d="M201.849,79.796c-0.883,1.093-1.849,1.345-2.284,1.345c-1.723,0-2.731-1.4-2.731-2.983c0-0.953,0.351-1.821,0.925-2.451
			c0.574-0.631,1.331-1.023,2.045-1.023h0.014c1.163,0,2.101,1.051,2.101,2.13c0,0.28-0.056,0.392-0.322,0.448
			c-0.224,0.042-1.989,0.182-3.67,0.238c0.014,1.904,1.121,2.689,2.101,2.689c0.574,0,1.093-0.225,1.611-0.701L201.849,79.796z
			 M197.997,76.924c0.784,0,1.568-0.014,2.381-0.042c0.252,0,0.336-0.069,0.336-0.279c0.014-0.729-0.462-1.401-1.247-1.401
			C198.837,75.201,198.207,75.79,197.997,76.924z"/>
		<path d="M211.145,79.712c-0.616,0.812-1.541,1.429-2.367,1.429c-1.765,0-2.816-1.429-2.816-2.928c0-1.078,0.477-2.017,1.415-2.731
			c0.729-0.561,1.569-0.799,2.087-0.799h0.014c0.574,0,1.037,0.183,1.261,0.379c0.182,0.153,0.224,0.266,0.224,0.42
			c0,0.294-0.308,0.603-0.462,0.603c-0.084,0-0.154-0.042-0.266-0.154c-0.42-0.393-0.911-0.574-1.415-0.574
			c-0.925,0-1.723,0.771-1.723,2.241c0,1.947,1.317,2.592,2.115,2.592c0.602,0,1.05-0.169,1.695-0.771L211.145,79.712z"/>
		<path d="M211.813,80.973v-0.364c0.882-0.084,0.98-0.168,0.98-1.121v-2.885c0-0.869-0.042-0.939-0.882-1.065v-0.336
			c0.714-0.112,1.387-0.294,1.989-0.546v4.832c0,0.953,0.098,1.037,0.995,1.121v0.364H211.813z M212.556,72.75
			c0-0.42,0.336-0.728,0.715-0.728c0.392,0,0.7,0.308,0.7,0.728c0,0.378-0.308,0.715-0.714,0.715
			C212.892,73.465,212.556,73.128,212.556,72.75z"/>
		<path d="M217.681,76.182c0.42-0.714,1.022-1.499,1.694-1.499c0.477,0,0.812,0.379,0.812,0.701c0,0.279-0.182,0.56-0.447,0.686
			c-0.168,0.07-0.281,0.057-0.365-0.027c-0.209-0.196-0.378-0.28-0.602-0.28c-0.364,0-0.812,0.406-1.121,1.19v2.563
			c0,0.925,0.07,1.009,1.148,1.093v0.364h-3.221v-0.364c0.868-0.084,0.966-0.168,0.966-1.093v-2.899c0-0.925-0.056-0.98-0.868-1.079
			v-0.322c0.686-0.111,1.302-0.279,1.975-0.56v1.526H217.681z"/>
		<path d="M225.83,79.712c-0.616,0.812-1.541,1.429-2.367,1.429c-1.766,0-2.816-1.429-2.816-2.928c0-1.078,0.477-2.017,1.416-2.731
			c0.729-0.561,1.568-0.799,2.086-0.799h0.015c0.574,0,1.036,0.183,1.261,0.379c0.182,0.153,0.225,0.266,0.225,0.42
			c0,0.294-0.309,0.603-0.463,0.603c-0.084,0-0.154-0.042-0.266-0.154c-0.421-0.393-0.911-0.574-1.415-0.574
			c-0.925,0-1.724,0.771-1.724,2.241c0,1.947,1.317,2.592,2.115,2.592c0.603,0,1.051-0.169,1.695-0.771L225.83,79.712z"/>
		<path d="M226.177,80.973v-0.364c0.883-0.084,1.009-0.168,1.009-1.093V72.89c0-0.952-0.084-0.98-0.967-1.064v-0.336
			c0.729-0.084,1.598-0.322,2.073-0.491v8.517c0,0.925,0.112,1.009,1.009,1.093v0.364H226.177z"/>
		<path d="M235.042,79.796c-0.883,1.093-1.849,1.345-2.283,1.345c-1.724,0-2.731-1.4-2.731-2.983c0-0.953,0.35-1.821,0.924-2.451
			c0.574-0.631,1.331-1.023,2.045-1.023h0.015c1.163,0,2.101,1.051,2.101,2.13c0,0.28-0.056,0.392-0.322,0.448
			c-0.224,0.042-1.988,0.182-3.67,0.238c0.015,1.904,1.121,2.689,2.102,2.689c0.574,0,1.093-0.225,1.611-0.701L235.042,79.796z
			 M231.189,76.924c0.785,0,1.569-0.014,2.381-0.042c0.253,0,0.337-0.069,0.337-0.279c0.015-0.729-0.462-1.401-1.247-1.401
			C232.03,75.201,231.4,75.79,231.189,76.924z"/>
		<path d="M239.577,76.518c-0.28-0.84-0.757-1.387-1.442-1.387c-0.547,0-0.91,0.406-0.91,0.967c0,0.616,0.56,0.938,1.176,1.205
			c1.064,0.434,1.779,0.938,1.779,1.904c0,1.275-1.191,1.934-2.312,1.934c-0.714,0-1.358-0.267-1.597-0.477
			c-0.098-0.196-0.238-1.148-0.238-1.652l0.379-0.07c0.237,0.925,0.867,1.737,1.709,1.737c0.518,0,0.994-0.379,0.994-0.981
			c0-0.616-0.406-0.952-1.107-1.274c-0.84-0.378-1.75-0.854-1.75-1.919c0-0.98,0.84-1.821,2.129-1.821
			c0.574,0,0.952,0.127,1.232,0.253c0.126,0.308,0.28,1.148,0.309,1.484L239.577,76.518z"/>
		<path d="M244.223,80.973v-0.364c0.883-0.084,0.98-0.168,0.98-1.121v-2.885c0-0.869-0.042-0.939-0.883-1.065v-0.336
			c0.715-0.112,1.387-0.294,1.989-0.546v4.832c0,0.953,0.099,1.037,0.995,1.121v0.364H244.223z M244.965,72.75
			c0-0.42,0.336-0.728,0.715-0.728c0.393,0,0.7,0.308,0.7,0.728c0,0.378-0.308,0.715-0.714,0.715
			C245.301,73.465,244.965,73.128,244.965,72.75z"/>
		<path d="M251.939,80.973v-0.364c0.826-0.084,0.924-0.196,0.924-1.163v-2.339c0-0.967-0.336-1.597-1.275-1.597
			c-0.56,0-1.105,0.35-1.526,0.714v3.292c0,0.952,0.085,1.009,0.911,1.093v0.364h-3.04v-0.364c0.952-0.099,1.022-0.168,1.022-1.093
			V76.63c0-0.896-0.084-0.952-0.84-1.093v-0.322c0.672-0.126,1.33-0.294,1.946-0.56v1.106c0.28-0.21,0.589-0.42,0.938-0.658
			c0.393-0.252,0.757-0.421,1.163-0.421c1.12,0,1.807,0.785,1.807,2.13v2.703c0,0.952,0.084,1.009,0.896,1.093v0.364H251.939z"/>
		<path d="M262.369,80.608c-0.308,0.056-1.357,0.238-2.17,0.532v-0.91l-0.855,0.504c-0.561,0.322-0.938,0.406-1.092,0.406
			c-1.121,0-2.592-1.022-2.592-2.983c0-1.947,1.695-3.475,3.6-3.475c0.196,0,0.617,0.042,0.939,0.169v-2.004
			c0-0.91-0.07-0.953-1.079-1.022v-0.35c0.729-0.084,1.667-0.308,2.185-0.477v8.363c0,0.729,0.099,0.799,0.617,0.854l0.447,0.042
			V80.608z M260.199,75.93c-0.337-0.49-0.925-0.715-1.443-0.715c-0.658,0-1.835,0.533-1.835,2.563c0,1.667,1.022,2.479,1.933,2.479
			c0.49,0,1.009-0.224,1.346-0.476V75.93z"/>
		<path d="M262.969,80.973v-0.364c0.882-0.084,0.98-0.168,0.98-1.121v-2.885c0-0.869-0.043-0.939-0.883-1.065v-0.336
			c0.715-0.112,1.387-0.294,1.988-0.546v4.832c0,0.953,0.099,1.037,0.995,1.121v0.364H262.969z M263.711,72.75
			c0-0.42,0.336-0.728,0.714-0.728c0.393,0,0.7,0.308,0.7,0.728c0,0.378-0.308,0.715-0.714,0.715
			C264.047,73.465,263.711,73.128,263.711,72.75z"/>
		<path d="M271.973,79.712c-0.615,0.812-1.541,1.429-2.367,1.429c-1.765,0-2.815-1.429-2.815-2.928c0-1.078,0.477-2.017,1.415-2.731
			c0.729-0.561,1.568-0.799,2.087-0.799h0.015c0.574,0,1.036,0.183,1.26,0.379c0.183,0.153,0.225,0.266,0.225,0.42
			c0,0.294-0.309,0.603-0.463,0.603c-0.084,0-0.153-0.042-0.266-0.154c-0.42-0.393-0.91-0.574-1.414-0.574
			c-0.926,0-1.724,0.771-1.724,2.241c0,1.947,1.317,2.592,2.115,2.592c0.603,0,1.051-0.169,1.694-0.771L271.973,79.712z"/>
		<path d="M277.11,81.141c-0.21,0-0.504-0.126-0.658-0.28c-0.183-0.182-0.267-0.378-0.337-0.616
			c-0.56,0.378-1.232,0.896-1.652,0.896c-0.994,0-1.681-0.826-1.681-1.709c0-0.687,0.364-1.121,1.135-1.387
			c0.841-0.28,1.862-0.658,2.171-0.91v-0.238c0-1.022-0.477-1.583-1.19-1.583c-0.267,0-0.477,0.098-0.63,0.266
			c-0.169,0.196-0.295,0.505-0.406,0.925c-0.07,0.225-0.211,0.322-0.406,0.322c-0.253,0-0.604-0.267-0.604-0.603
			c0-0.196,0.169-0.364,0.436-0.561c0.377-0.279,1.302-0.812,2.101-0.98c0.42,0,0.841,0.127,1.148,0.379
			c0.49,0.42,0.63,0.98,0.63,1.723v2.592c0,0.63,0.252,0.84,0.49,0.84c0.168,0,0.365-0.07,0.505-0.154l0.14,0.364L277.11,81.141z
			 M276.088,77.61c-0.294,0.154-0.967,0.448-1.261,0.589c-0.546,0.252-0.854,0.518-0.854,1.036c0,0.715,0.561,1.064,0.994,1.064
			c0.365,0,0.855-0.238,1.121-0.504V77.61z"/>
		<path d="M281.338,80.958c-0.238,0.127-0.449,0.183-0.589,0.183c-0.882,0-1.372-0.561-1.372-1.667v-4.062h-0.967l-0.057-0.153
			l0.393-0.406h0.631v-1.009l0.91-0.939l0.195,0.028v1.92h1.584c0.14,0.153,0.098,0.448-0.084,0.56h-1.5v3.586
			c0,1.135,0.463,1.345,0.827,1.345c0.351,0,0.673-0.14,0.854-0.238l0.126,0.364L281.338,80.958z"/>
		<path d="M287.835,79.796c-0.883,1.093-1.849,1.345-2.283,1.345c-1.724,0-2.731-1.4-2.731-2.983c0-0.953,0.35-1.821,0.924-2.451
			c0.574-0.631,1.331-1.023,2.045-1.023h0.015c1.163,0,2.101,1.051,2.101,2.13c0,0.28-0.056,0.392-0.322,0.448
			c-0.224,0.042-1.988,0.182-3.67,0.238c0.015,1.904,1.121,2.689,2.102,2.689c0.574,0,1.093-0.225,1.611-0.701L287.835,79.796z
			 M283.982,76.924c0.785,0,1.569-0.014,2.381-0.042c0.253,0,0.337-0.069,0.337-0.279c0.015-0.729-0.462-1.401-1.247-1.401
			C284.823,75.201,284.193,75.79,283.982,76.924z"/>
		<path d="M294.65,80.958c-0.238,0.127-0.447,0.183-0.588,0.183c-0.883,0-1.373-0.561-1.373-1.667v-4.062h-0.967l-0.055-0.153
			l0.392-0.406h0.63v-1.009l0.911-0.939l0.196,0.028v1.92h1.582c0.141,0.153,0.099,0.448-0.084,0.56h-1.498v3.586
			c0,1.135,0.462,1.345,0.826,1.345c0.35,0,0.672-0.14,0.854-0.238l0.126,0.364L294.65,80.958z"/>
		<path d="M300.014,80.973v-0.364c0.812-0.084,0.924-0.168,0.924-1.079v-2.325c0-1.148-0.434-1.723-1.372-1.723
			c-0.532,0-1.065,0.267-1.457,0.715v3.333c0,0.896,0.07,0.995,0.911,1.079v0.364h-2.984l0.014-0.364
			c0.841-0.07,0.953-0.154,0.953-1.079v-6.682c0-0.882-0.028-0.938-0.953-1.022v-0.336c0.673-0.098,1.514-0.322,2.06-0.491v4.708
			c0.505-0.505,1.247-1.023,2.003-1.023c1.135,0,1.934,0.715,1.934,2.396v2.451c0,0.925,0.111,1.009,0.924,1.079v0.364H300.014z"/>
		<path d="M308.736,79.796c-0.883,1.093-1.85,1.345-2.283,1.345c-1.723,0-2.732-1.4-2.732-2.983c0-0.953,0.352-1.821,0.926-2.451
			c0.574-0.631,1.33-1.023,2.045-1.023h0.014c1.162,0,2.102,1.051,2.102,2.13c0,0.28-0.057,0.392-0.322,0.448
			c-0.225,0.042-1.989,0.182-3.67,0.238c0.014,1.904,1.12,2.689,2.101,2.689c0.574,0,1.093-0.225,1.61-0.701L308.736,79.796z
			 M304.884,76.924c0.784,0,1.569-0.014,2.382-0.042c0.252,0,0.336-0.069,0.336-0.279c0.014-0.729-0.463-1.401-1.246-1.401
			C305.725,75.201,305.094,75.79,304.884,76.924z"/>
		<path d="M316.449,76.518c-0.281-0.84-0.757-1.387-1.443-1.387c-0.546,0-0.91,0.406-0.91,0.967c0,0.616,0.561,0.938,1.176,1.205
			c1.065,0.434,1.779,0.938,1.779,1.904c0,1.275-1.19,1.934-2.311,1.934c-0.715,0-1.359-0.267-1.598-0.477
			c-0.098-0.196-0.238-1.148-0.238-1.652l0.379-0.07c0.238,0.925,0.868,1.737,1.709,1.737c0.518,0,0.994-0.379,0.994-0.981
			c0-0.616-0.406-0.952-1.106-1.274c-0.841-0.378-1.751-0.854-1.751-1.919c0-0.98,0.84-1.821,2.129-1.821
			c0.574,0,0.953,0.127,1.232,0.253c0.127,0.308,0.281,1.148,0.309,1.484L316.449,76.518z"/>
		<path d="M322.427,81.141c-0.21,0-0.504-0.126-0.658-0.28c-0.183-0.182-0.267-0.378-0.337-0.616
			c-0.56,0.378-1.232,0.896-1.652,0.896c-0.994,0-1.681-0.826-1.681-1.709c0-0.687,0.364-1.121,1.135-1.387
			c0.841-0.28,1.862-0.658,2.171-0.91v-0.238c0-1.022-0.477-1.583-1.19-1.583c-0.267,0-0.477,0.098-0.63,0.266
			c-0.169,0.196-0.295,0.505-0.406,0.925c-0.07,0.225-0.211,0.322-0.406,0.322c-0.253,0-0.604-0.267-0.604-0.603
			c0-0.196,0.169-0.364,0.436-0.561c0.377-0.279,1.302-0.812,2.101-0.98c0.42,0,0.841,0.127,1.148,0.379
			c0.49,0.42,0.63,0.98,0.63,1.723v2.592c0,0.63,0.252,0.84,0.49,0.84c0.168,0,0.365-0.07,0.505-0.154l0.14,0.364L322.427,81.141z
			 M321.404,77.61c-0.294,0.154-0.967,0.448-1.261,0.589c-0.546,0.252-0.854,0.518-0.854,1.036c0,0.715,0.561,1.064,0.994,1.064
			c0.365,0,0.855-0.238,1.121-0.504V77.61z"/>
		<path d="M329.399,79.712c-0.616,0.812-1.541,1.429-2.367,1.429c-1.765,0-2.815-1.429-2.815-2.928c0-1.078,0.477-2.017,1.414-2.731
			c0.729-0.561,1.569-0.799,2.088-0.799h0.014c0.574,0,1.037,0.183,1.261,0.379c0.183,0.153,0.224,0.266,0.224,0.42
			c0,0.294-0.308,0.603-0.462,0.603c-0.084,0-0.153-0.042-0.267-0.154c-0.42-0.393-0.91-0.574-1.414-0.574
			c-0.925,0-1.723,0.771-1.723,2.241c0,1.947,1.316,2.592,2.115,2.592c0.602,0,1.05-0.169,1.694-0.771L329.399,79.712z"/>
		<path d="M335.321,79.712c-0.616,0.812-1.541,1.429-2.367,1.429c-1.765,0-2.815-1.429-2.815-2.928c0-1.078,0.477-2.017,1.414-2.731
			c0.729-0.561,1.569-0.799,2.088-0.799h0.014c0.574,0,1.037,0.183,1.261,0.379c0.183,0.153,0.224,0.266,0.224,0.42
			c0,0.294-0.308,0.603-0.462,0.603c-0.084,0-0.153-0.042-0.267-0.154c-0.42-0.393-0.91-0.574-1.414-0.574
			c-0.925,0-1.723,0.771-1.723,2.241c0,1.947,1.316,2.592,2.115,2.592c0.602,0,1.05-0.169,1.694-0.771L335.321,79.712z"/>
		<path d="M340.459,81.141c-0.211,0-0.505-0.126-0.658-0.28c-0.183-0.182-0.267-0.378-0.337-0.616
			c-0.56,0.378-1.232,0.896-1.653,0.896c-0.994,0-1.68-0.826-1.68-1.709c0-0.687,0.363-1.121,1.134-1.387
			c0.841-0.28,1.863-0.658,2.171-0.91v-0.238c0-1.022-0.476-1.583-1.189-1.583c-0.267,0-0.477,0.098-0.631,0.266
			c-0.168,0.196-0.295,0.505-0.406,0.925c-0.07,0.225-0.211,0.322-0.406,0.322c-0.252,0-0.603-0.267-0.603-0.603
			c0-0.196,0.168-0.364,0.435-0.561c0.378-0.279,1.303-0.812,2.102-0.98c0.42,0,0.84,0.127,1.148,0.379
			c0.49,0.42,0.63,0.98,0.63,1.723v2.592c0,0.63,0.252,0.84,0.49,0.84c0.168,0,0.364-0.07,0.505-0.154l0.14,0.364L340.459,81.141z
			 M339.436,77.61c-0.293,0.154-0.966,0.448-1.26,0.589c-0.547,0.252-0.855,0.518-0.855,1.036c0,0.715,0.561,1.064,0.995,1.064
			c0.364,0,0.854-0.238,1.12-0.504V77.61z"/>
		<path d="M348.972,80.608c-0.308,0.056-1.358,0.238-2.171,0.532v-0.91l-0.854,0.504c-0.561,0.322-0.938,0.406-1.093,0.406
			c-1.121,0-2.592-1.022-2.592-2.983c0-1.947,1.695-3.475,3.601-3.475c0.196,0,0.616,0.042,0.938,0.169v-2.004
			c0-0.91-0.07-0.953-1.078-1.022v-0.35c0.729-0.084,1.666-0.308,2.185-0.477v8.363c0,0.729,0.099,0.799,0.616,0.854l0.448,0.042
			V80.608z M346.801,75.93c-0.336-0.49-0.925-0.715-1.443-0.715c-0.658,0-1.834,0.533-1.834,2.563c0,1.667,1.021,2.479,1.933,2.479
			c0.49,0,1.009-0.224,1.345-0.476V75.93z"/>
		<path d="M354.655,79.796c-0.883,1.093-1.85,1.345-2.283,1.345c-1.724,0-2.731-1.4-2.731-2.983c0-0.953,0.35-1.821,0.924-2.451
			c0.574-0.631,1.331-1.023,2.046-1.023h0.014c1.162,0,2.101,1.051,2.101,2.13c0,0.28-0.056,0.392-0.321,0.448
			c-0.225,0.042-1.989,0.182-3.67,0.238c0.014,1.904,1.12,2.689,2.101,2.689c0.574,0,1.093-0.225,1.611-0.701L354.655,79.796z
			 M350.803,76.924c0.785,0,1.569-0.014,2.382-0.042c0.252,0,0.336-0.069,0.336-0.279c0.014-0.729-0.462-1.401-1.247-1.401
			C351.644,75.201,351.013,75.79,350.803,76.924z"/>
		<path d="M359.19,76.518c-0.28-0.84-0.757-1.387-1.442-1.387c-0.547,0-0.911,0.406-0.911,0.967c0,0.616,0.561,0.938,1.177,1.205
			c1.064,0.434,1.779,0.938,1.779,1.904c0,1.275-1.19,1.934-2.312,1.934c-0.714,0-1.358-0.267-1.597-0.477
			c-0.098-0.196-0.238-1.148-0.238-1.652l0.378-0.07c0.238,0.925,0.869,1.737,1.709,1.737c0.519,0,0.995-0.379,0.995-0.981
			c0-0.616-0.406-0.952-1.106-1.274c-0.841-0.378-1.751-0.854-1.751-1.919c0-0.98,0.84-1.821,2.129-1.821
			c0.574,0,0.952,0.127,1.232,0.253c0.126,0.308,0.28,1.148,0.309,1.484L359.19,76.518z"/>
		<path d="M367.338,83.34c-2.045-1.373-2.97-3.628-2.97-6.163v-0.015c0-2.507,0.925-4.749,2.97-6.135l0.252,0.336
			c-1.4,1.177-2.199,3.418-2.199,5.828s0.812,4.664,2.199,5.841L367.338,83.34z"/>
		<path d="M369.646,74.852v-0.295c0-0.448,0.056-0.854,0.154-1.162c0.098-0.309,0.321-1.009,1.078-1.653
			c0.504-0.42,0.994-0.672,1.541-0.743c0.476,0.028,0.882,0.21,1.106,0.477c0.126,0.154,0.14,0.322,0.07,0.49
			c-0.042,0.112-0.126,0.224-0.267,0.336c-0.126,0.098-0.252,0.098-0.378-0.042c-0.267-0.266-0.673-0.518-1.135-0.518
			c-0.364,0-0.588,0.168-0.742,0.406c-0.183,0.28-0.336,0.953-0.322,2.144v0.561h1.652c0.085,0.126,0.015,0.462-0.14,0.56h-1.513
			v4.021c0,1.036,0.098,1.078,1.204,1.19v0.351h-3.306v-0.364c0.896-0.084,0.995-0.154,0.995-1.079v-4.118h-0.98l-0.057-0.153
			l0.379-0.406H369.646z"/>
		<path d="M378.875,77.807c0,2.255-1.653,3.334-3.04,3.334c-1.919,0-3.067-1.541-3.067-3.096c0-2.312,1.793-3.362,3.081-3.362
			C377.586,74.683,378.875,76.084,378.875,77.807z M374.07,77.597c0,1.765,0.756,3.082,1.919,3.082c0.868,0,1.583-0.645,1.583-2.563
			c0-1.625-0.659-2.97-1.905-2.97C374.826,75.146,374.07,76.014,374.07,77.597z"/>
		<path d="M381.784,76.182c0.42-0.714,1.022-1.499,1.694-1.499c0.477,0,0.812,0.379,0.812,0.701c0,0.279-0.182,0.56-0.448,0.686
			c-0.168,0.07-0.279,0.057-0.364-0.027c-0.21-0.196-0.378-0.28-0.602-0.28c-0.364,0-0.812,0.406-1.121,1.19v2.563
			c0,0.925,0.07,1.009,1.148,1.093v0.364h-3.222v-0.364c0.869-0.084,0.967-0.168,0.967-1.093v-2.899c0-0.925-0.056-0.98-0.868-1.079
			v-0.322c0.687-0.111,1.303-0.279,1.975-0.56v1.526H381.784z"/>
		<path d="M388.084,78.199h-3.207l0.195-0.771h3.208L388.084,78.199z"/>
		<path d="M23.999,105.215c-0.7,0.099-0.826,0.267-1.106,1.037c-0.42,1.12-1.05,2.983-1.681,4.875h-0.406
			c-0.561-1.514-1.135-2.886-1.709-4.356c-0.532,1.414-1.106,2.801-1.667,4.356h-0.392c-0.519-1.667-1.037-3.32-1.625-5.001
			c-0.252-0.729-0.364-0.826-1.037-0.911v-0.363h2.899v0.363c-0.84,0.127-0.91,0.211-0.714,0.854
			c0.336,1.065,0.687,2.172,1.037,3.25h0.028c0.518-1.345,1.037-2.773,1.625-4.398h0.364c0.519,1.457,1.093,2.941,1.681,4.455h0.028
			c0.308-0.967,0.701-2.199,0.967-3.236c0.182-0.729,0.084-0.798-0.812-0.925v-0.363h2.521V105.215z"/>
		<path d="M28.714,111.141c-0.21,0-0.504-0.126-0.658-0.28c-0.182-0.182-0.266-0.378-0.336-0.616
			c-0.56,0.378-1.232,0.896-1.653,0.896c-0.995,0-1.681-0.826-1.681-1.709c0-0.687,0.364-1.121,1.134-1.387
			c0.841-0.28,1.863-0.658,2.171-0.91v-0.238c0-1.022-0.476-1.583-1.19-1.583c-0.266,0-0.477,0.098-0.63,0.266
			c-0.168,0.196-0.294,0.505-0.406,0.925c-0.07,0.225-0.21,0.322-0.406,0.322c-0.252,0-0.603-0.267-0.603-0.603
			c0-0.196,0.168-0.364,0.435-0.561c0.378-0.279,1.303-0.812,2.101-0.98c0.42,0,0.84,0.127,1.148,0.379
			c0.49,0.42,0.63,0.98,0.63,1.723v2.592c0,0.63,0.252,0.84,0.49,0.84c0.168,0,0.364-0.07,0.504-0.154l0.14,0.364L28.714,111.141z
			 M27.692,107.61c-0.294,0.154-0.966,0.448-1.261,0.589c-0.546,0.252-0.854,0.518-0.854,1.036c0,0.715,0.561,1.064,0.995,1.064
			c0.364,0,0.854-0.238,1.121-0.504V107.61z"/>
		<path d="M32.423,106.182c0.42-0.714,1.022-1.499,1.695-1.499c0.476,0,0.812,0.379,0.812,0.701c0,0.279-0.182,0.56-0.448,0.686
			c-0.168,0.07-0.28,0.057-0.364-0.027c-0.21-0.196-0.378-0.28-0.603-0.28c-0.364,0-0.812,0.406-1.121,1.19v2.563
			c0,0.925,0.07,1.009,1.149,1.093v0.364h-3.222v-0.364c0.868-0.084,0.966-0.168,0.966-1.093v-2.899c0-0.925-0.056-0.98-0.869-1.079
			v-0.322c0.687-0.111,1.303-0.279,1.975-0.56v1.526H32.423z"/>
		<path d="M42.114,110.608c-0.308,0.056-1.358,0.238-2.171,0.532v-0.91l-0.854,0.504c-0.561,0.322-0.938,0.406-1.093,0.406
			c-1.121,0-2.591-1.022-2.591-2.983c0-1.947,1.695-3.475,3.6-3.475c0.196,0,0.616,0.042,0.938,0.169v-2.004
			c0-0.91-0.07-0.952-1.079-1.022v-0.35c0.729-0.084,1.667-0.309,2.185-0.477v8.362c0,0.729,0.098,0.799,0.616,0.854l0.448,0.042
			V110.608z M39.943,105.93c-0.336-0.49-0.924-0.715-1.443-0.715c-0.658,0-1.835,0.533-1.835,2.563c0,1.667,1.022,2.479,1.933,2.479
			c0.49,0,1.008-0.224,1.345-0.476V105.93z"/>
		<path d="M45.918,105.201c0.729-0.112,1.443-0.294,2.045-0.546v4.763c0,0.91-0.056,1.513-0.322,2.255
			c-0.49,1.4-1.373,2.465-1.695,2.745c-0.14,0.099-0.252,0.154-0.364,0.154c-0.182,0-0.504-0.28-0.504-0.616
			c0-0.182,0.098-0.28,0.294-0.322c0.462-0.112,0.826-0.28,1.022-0.532c0.168-0.21,0.266-0.532,0.35-1.009
			c0.084-0.603,0.112-1.429,0.112-2.703v-2.731c0-0.952-0.07-1.009-0.938-1.135V105.201z M46.632,102.75
			c0-0.42,0.322-0.729,0.714-0.729c0.378,0,0.687,0.309,0.687,0.729c0,0.378-0.308,0.715-0.7,0.715
			C46.955,103.465,46.632,103.128,46.632,102.75z"/>
		<path d="M56.142,110.637c-0.308,0.042-0.7,0.126-1.079,0.224c-0.364,0.098-0.714,0.21-0.98,0.28l-0.084-0.084v-0.995
			c-0.322,0.238-0.63,0.49-1.037,0.729s-0.7,0.351-1.079,0.351c-0.938,0-1.737-0.574-1.737-2.087v-2.746
			c0-0.742-0.112-0.812-0.462-0.896l-0.392-0.084v-0.322c0.294-0.014,0.645-0.056,1.008-0.098c0.378-0.056,0.771-0.112,0.995-0.154
			c-0.042,0.435-0.042,1.093-0.042,2.031v1.891c0,1.247,0.603,1.583,1.233,1.583c0.504,0,1.037-0.21,1.513-0.672v-3.278
			c0-0.742-0.126-0.826-0.588-0.896l-0.504-0.084v-0.322c0.378-0.014,0.854-0.056,1.261-0.111c0.392-0.042,0.729-0.099,0.938-0.141
			v4.679c0,0.7,0.112,0.784,0.659,0.826l0.378,0.015V110.637z"/>
		<path d="M64.486,110.973v-0.364c0.826-0.084,0.98-0.141,0.98-1.135v-2.339c0-0.995-0.35-1.625-1.233-1.625
			c-0.504,0-1.036,0.294-1.569,0.729c0.028,0.168,0.042,0.336,0.042,0.588v2.731c0,0.883,0.126,0.967,0.896,1.051v0.364h-2.998
			v-0.364c0.869-0.084,0.995-0.154,0.995-1.079v-2.409c0-1.022-0.364-1.61-1.232-1.61c-0.546,0-1.107,0.378-1.527,0.729v3.291
			c0,0.911,0.126,0.995,0.812,1.079v0.364h-2.956v-0.364c0.924-0.084,1.05-0.168,1.05-1.079v-2.899c0-0.896-0.042-0.967-0.854-1.093
			v-0.322c0.616-0.111,1.317-0.294,1.947-0.574v1.135c0.294-0.196,0.588-0.448,1.022-0.7c0.364-0.224,0.7-0.393,1.135-0.393
			c0.672,0,1.274,0.435,1.569,1.163c0.406-0.322,0.812-0.574,1.163-0.799c0.294-0.195,0.658-0.364,1.064-0.364
			c1.079,0,1.779,0.771,1.779,2.144v2.703c0,0.938,0.098,0.995,0.911,1.079v0.364H64.486z"/>
		<path d="M71.176,104.907c0.252-0.154,0.519-0.225,0.687-0.225c1.555,0,2.479,1.275,2.479,2.647c0,2.115-1.667,3.475-3.488,3.811
			c-0.42-0.014-0.785-0.154-0.967-0.252v1.835c0,1.064,0.098,1.148,1.177,1.232v0.378h-3.306v-0.378
			c0.896-0.084,1.022-0.168,1.022-1.093v-6.331c0-0.911-0.056-0.938-0.924-1.051v-0.336c0.588-0.099,1.373-0.336,2.031-0.603v1.106
			L71.176,104.907z M69.887,109.908c0.308,0.322,0.827,0.546,1.317,0.546c1.177,0,1.961-1.009,1.961-2.577
			c0-1.513-0.869-2.354-1.877-2.354c-0.448,0-1.022,0.309-1.401,0.603V109.908z"/>
		<path d="M78.974,106.518c-0.28-0.84-0.756-1.387-1.443-1.387c-0.546,0-0.91,0.406-0.91,0.967c0,0.616,0.56,0.938,1.176,1.205
			c1.065,0.434,1.779,0.938,1.779,1.904c0,1.275-1.191,1.934-2.312,1.934c-0.714,0-1.358-0.267-1.597-0.477
			c-0.098-0.196-0.238-1.148-0.238-1.652l0.378-0.07c0.238,0.925,0.868,1.737,1.709,1.737c0.518,0,0.994-0.379,0.994-0.981
			c0-0.616-0.406-0.952-1.106-1.274c-0.84-0.378-1.751-0.854-1.751-1.919c0-0.98,0.84-1.821,2.129-1.821
			c0.574,0,0.952,0.127,1.232,0.253c0.126,0.308,0.28,1.148,0.308,1.484L78.974,106.518z"/>
		<path d="M83.846,107.204c0,2.521-0.869,4.721-2.956,6.149l-0.266-0.322c1.429-1.177,2.213-3.432,2.213-5.841
			s-0.812-4.679-2.213-5.827l0.266-0.336c2.073,1.414,2.956,3.628,2.956,6.149V107.204z"/>
		<path d="M87.443,110.664c0,1.093-0.967,1.681-1.835,1.947l-0.154-0.406c0.687-0.28,1.079-0.658,1.079-1.19
			c0-0.505-0.392-0.812-0.868-0.938c-0.07,0-0.182-0.112-0.182-0.336c0-0.351,0.336-0.589,0.686-0.589
			C86.672,109.151,87.443,109.697,87.443,110.664z"/>
		<path d="M96.908,109.712c-0.616,0.812-1.541,1.429-2.367,1.429c-1.765,0-2.816-1.429-2.816-2.928c0-1.078,0.477-2.017,1.415-2.731
			c0.729-0.561,1.569-0.799,2.087-0.799h0.014c0.574,0,1.037,0.183,1.261,0.379c0.182,0.153,0.224,0.266,0.224,0.42
			c0,0.294-0.308,0.603-0.462,0.603c-0.084,0-0.154-0.042-0.266-0.154c-0.42-0.393-0.911-0.574-1.415-0.574
			c-0.925,0-1.723,0.771-1.723,2.241c0,1.947,1.317,2.592,2.115,2.592c0.602,0,1.05-0.169,1.695-0.771L96.908,109.712z"/>
		<path d="M104.482,110.637c-0.308,0.042-0.7,0.126-1.079,0.224c-0.364,0.098-0.714,0.21-0.98,0.28l-0.084-0.084v-0.995
			c-0.322,0.238-0.63,0.49-1.037,0.729s-0.7,0.351-1.079,0.351c-0.938,0-1.737-0.574-1.737-2.087v-2.746
			c0-0.742-0.112-0.812-0.462-0.896l-0.392-0.084v-0.322c0.294-0.014,0.645-0.056,1.008-0.098c0.378-0.056,0.771-0.112,0.995-0.154
			c-0.042,0.435-0.042,1.093-0.042,2.031v1.891c0,1.247,0.603,1.583,1.233,1.583c0.504,0,1.037-0.21,1.513-0.672v-3.278
			c0-0.742-0.126-0.826-0.588-0.896l-0.504-0.084v-0.322c0.378-0.014,0.854-0.056,1.261-0.111c0.392-0.042,0.729-0.099,0.938-0.141
			v4.679c0,0.7,0.112,0.784,0.659,0.826l0.378,0.015V110.637z"/>
		<path d="M107.224,106.182c0.42-0.714,1.022-1.499,1.695-1.499c0.476,0,0.812,0.379,0.812,0.701c0,0.279-0.182,0.56-0.448,0.686
			c-0.168,0.07-0.28,0.057-0.364-0.027c-0.21-0.196-0.378-0.28-0.603-0.28c-0.364,0-0.812,0.406-1.121,1.19v2.563
			c0,0.925,0.07,1.009,1.149,1.093v0.364h-3.222v-0.364c0.868-0.084,0.966-0.168,0.966-1.093v-2.899c0-0.925-0.056-0.98-0.869-1.079
			v-0.322c0.687-0.111,1.303-0.279,1.975-0.56v1.526H107.224z"/>
		<path d="M116.956,105.215c-0.743,0.099-0.854,0.225-1.233,1.051c-0.476,1.051-1.205,2.773-1.989,4.861h-0.393
			c-0.616-1.682-1.261-3.265-1.933-4.903c-0.322-0.798-0.42-0.896-1.176-1.009v-0.363h2.872v0.363
			c-0.757,0.085-0.785,0.196-0.561,0.799c0.35,0.98,0.924,2.466,1.331,3.46c0.49-1.163,0.938-2.423,1.247-3.334
			c0.224-0.672,0.14-0.826-0.659-0.925v-0.363h2.494V105.215z"/>
		<path d="M122.164,109.796c-0.883,1.093-1.849,1.345-2.284,1.345c-1.723,0-2.731-1.4-2.731-2.983c0-0.953,0.351-1.821,0.925-2.451
			c0.574-0.631,1.331-1.023,2.045-1.023h0.014c1.163,0,2.101,1.051,2.101,2.13c0,0.28-0.056,0.392-0.322,0.448
			c-0.224,0.042-1.989,0.182-3.67,0.238c0.014,1.904,1.121,2.689,2.101,2.689c0.574,0,1.093-0.225,1.611-0.701L122.164,109.796z
			 M118.312,106.924c0.784,0,1.568-0.014,2.381-0.042c0.252,0,0.336-0.069,0.336-0.279c0.014-0.729-0.462-1.401-1.247-1.401
			C119.152,105.201,118.521,105.79,118.312,106.924z"/>
		<path d="M126.698,106.518c-0.28-0.84-0.756-1.387-1.443-1.387c-0.546,0-0.91,0.406-0.91,0.967c0,0.616,0.56,0.938,1.176,1.205
			c1.065,0.434,1.779,0.938,1.779,1.904c0,1.275-1.191,1.934-2.312,1.934c-0.714,0-1.358-0.267-1.597-0.477
			c-0.098-0.196-0.238-1.148-0.238-1.652l0.378-0.07c0.238,0.925,0.868,1.737,1.709,1.737c0.518,0,0.994-0.379,0.994-0.981
			c0-0.616-0.406-0.952-1.106-1.274c-0.84-0.378-1.751-0.854-1.751-1.919c0-0.98,0.84-1.821,2.129-1.821
			c0.574,0,0.952,0.127,1.232,0.253c0.126,0.308,0.28,1.148,0.308,1.484L126.698,106.518z"/>
		<path d="M131.344,110.973v-0.364c0.882-0.084,0.98-0.168,0.98-1.121v-2.885c0-0.869-0.042-0.939-0.882-1.065v-0.336
			c0.714-0.112,1.387-0.294,1.989-0.546v4.832c0,0.953,0.098,1.037,0.995,1.121v0.364H131.344z M132.086,102.75
			c0-0.42,0.336-0.729,0.715-0.729c0.392,0,0.7,0.309,0.7,0.729c0,0.378-0.308,0.715-0.714,0.715
			C132.422,103.465,132.086,103.128,132.086,102.75z"/>
		<path d="M139.06,110.973v-0.364c0.826-0.084,0.924-0.196,0.924-1.163v-2.339c0-0.967-0.336-1.597-1.275-1.597
			c-0.56,0-1.106,0.35-1.527,0.714v3.292c0,0.952,0.084,1.009,0.911,1.093v0.364h-3.04v-0.364c0.953-0.099,1.022-0.168,1.022-1.093
			v-2.886c0-0.896-0.084-0.952-0.84-1.093v-0.322c0.672-0.126,1.331-0.294,1.947-0.56v1.106c0.28-0.21,0.588-0.42,0.938-0.658
			c0.393-0.252,0.757-0.421,1.163-0.421c1.121,0,1.807,0.785,1.807,2.13v2.703c0,0.952,0.084,1.009,0.896,1.093v0.364H139.06z"/>
		<path d="M149.491,110.608c-0.308,0.056-1.358,0.238-2.171,0.532v-0.91l-0.854,0.504c-0.561,0.322-0.938,0.406-1.093,0.406
			c-1.121,0-2.591-1.022-2.591-2.983c0-1.947,1.695-3.475,3.6-3.475c0.196,0,0.616,0.042,0.938,0.169v-2.004
			c0-0.91-0.07-0.952-1.079-1.022v-0.35c0.729-0.084,1.667-0.309,2.185-0.477v8.362c0,0.729,0.098,0.799,0.616,0.854l0.448,0.042
			V110.608z M147.32,105.93c-0.336-0.49-0.924-0.715-1.443-0.715c-0.658,0-1.835,0.533-1.835,2.563c0,1.667,1.022,2.479,1.933,2.479
			c0.49,0,1.008-0.224,1.345-0.476V105.93z"/>
		<path d="M150.09,110.973v-0.364c0.882-0.084,0.98-0.168,0.98-1.121v-2.885c0-0.869-0.042-0.939-0.882-1.065v-0.336
			c0.714-0.112,1.387-0.294,1.989-0.546v4.832c0,0.953,0.098,1.037,0.995,1.121v0.364H150.09z M150.832,102.75
			c0-0.42,0.336-0.729,0.715-0.729c0.392,0,0.7,0.309,0.7,0.729c0,0.378-0.308,0.715-0.714,0.715
			C151.168,103.465,150.832,103.128,150.832,102.75z"/>
		<path d="M159.095,109.712c-0.616,0.812-1.541,1.429-2.367,1.429c-1.765,0-2.816-1.429-2.816-2.928
			c0-1.078,0.477-2.017,1.415-2.731c0.729-0.561,1.569-0.799,2.087-0.799h0.014c0.574,0,1.037,0.183,1.261,0.379
			c0.182,0.153,0.224,0.266,0.224,0.42c0,0.294-0.308,0.603-0.462,0.603c-0.084,0-0.154-0.042-0.266-0.154
			c-0.42-0.393-0.911-0.574-1.415-0.574c-0.925,0-1.723,0.771-1.723,2.241c0,1.947,1.317,2.592,2.115,2.592
			c0.602,0,1.05-0.169,1.695-0.771L159.095,109.712z"/>
		<path d="M164.231,111.141c-0.21,0-0.504-0.126-0.658-0.28c-0.182-0.182-0.266-0.378-0.336-0.616
			c-0.56,0.378-1.232,0.896-1.653,0.896c-0.994,0-1.681-0.826-1.681-1.709c0-0.687,0.364-1.121,1.135-1.387
			c0.84-0.28,1.863-0.658,2.171-0.91v-0.238c0-1.022-0.476-1.583-1.19-1.583c-0.266,0-0.477,0.098-0.63,0.266
			c-0.168,0.196-0.294,0.505-0.406,0.925c-0.07,0.225-0.21,0.322-0.406,0.322c-0.252,0-0.603-0.267-0.603-0.603
			c0-0.196,0.168-0.364,0.435-0.561c0.378-0.279,1.302-0.812,2.101-0.98c0.42,0,0.84,0.127,1.148,0.379
			c0.49,0.42,0.63,0.98,0.63,1.723v2.592c0,0.63,0.252,0.84,0.49,0.84c0.168,0,0.364-0.07,0.504-0.154l0.14,0.364L164.231,111.141z
			 M163.209,107.61c-0.294,0.154-0.966,0.448-1.261,0.589c-0.546,0.252-0.854,0.518-0.854,1.036c0,0.715,0.561,1.064,0.995,1.064
			c0.364,0,0.854-0.238,1.121-0.504V107.61z"/>
		<path d="M168.459,110.958c-0.238,0.127-0.448,0.183-0.588,0.183c-0.882,0-1.373-0.561-1.373-1.667v-4.062h-0.967l-0.056-0.153
			l0.392-0.406h0.63v-1.009l0.911-0.938l0.196,0.027v1.92h1.583c0.14,0.153,0.098,0.448-0.084,0.56h-1.499v3.586
			c0,1.135,0.462,1.345,0.827,1.345c0.35,0,0.672-0.14,0.854-0.238l0.126,0.364L168.459,110.958z"/>
		<path d="M174.957,109.796c-0.883,1.093-1.849,1.345-2.284,1.345c-1.723,0-2.731-1.4-2.731-2.983c0-0.953,0.351-1.821,0.925-2.451
			c0.574-0.631,1.331-1.023,2.045-1.023h0.014c1.163,0,2.101,1.051,2.101,2.13c0,0.28-0.056,0.392-0.322,0.448
			c-0.224,0.042-1.989,0.182-3.67,0.238c0.014,1.904,1.121,2.689,2.101,2.689c0.574,0,1.093-0.225,1.611-0.701L174.957,109.796z
			 M171.104,106.924c0.784,0,1.568-0.014,2.381-0.042c0.252,0,0.336-0.069,0.336-0.279c0.014-0.729-0.462-1.401-1.247-1.401
			C171.945,105.201,171.314,105.79,171.104,106.924z"/>
		<path d="M181.772,110.958c-0.238,0.127-0.448,0.183-0.588,0.183c-0.882,0-1.373-0.561-1.373-1.667v-4.062h-0.967l-0.056-0.153
			l0.392-0.406h0.63v-1.009l0.911-0.938l0.196,0.027v1.92h1.583c0.14,0.153,0.098,0.448-0.084,0.56h-1.499v3.586
			c0,1.135,0.462,1.345,0.827,1.345c0.35,0,0.672-0.14,0.854-0.238l0.126,0.364L181.772,110.958z"/>
		<path d="M187.135,110.973v-0.364c0.812-0.084,0.924-0.168,0.924-1.079v-2.325c0-1.148-0.434-1.723-1.373-1.723
			c-0.533,0-1.065,0.267-1.457,0.715v3.333c0,0.896,0.07,0.995,0.911,1.079v0.364h-2.984l0.014-0.364
			c0.84-0.07,0.953-0.154,0.953-1.079v-6.682c0-0.882-0.028-0.938-0.953-1.022v-0.336c0.672-0.098,1.513-0.322,2.059-0.49v4.707
			c0.504-0.505,1.247-1.023,2.003-1.023c1.135,0,1.933,0.715,1.933,2.396v2.451c0,0.925,0.112,1.009,0.925,1.079v0.364H187.135z"/>
		<path d="M195.858,109.796c-0.883,1.093-1.849,1.345-2.284,1.345c-1.723,0-2.731-1.4-2.731-2.983c0-0.953,0.351-1.821,0.925-2.451
			c0.574-0.631,1.331-1.023,2.045-1.023h0.014c1.163,0,2.101,1.051,2.101,2.13c0,0.28-0.056,0.392-0.322,0.448
			c-0.224,0.042-1.989,0.182-3.67,0.238c0.014,1.904,1.121,2.689,2.101,2.689c0.574,0,1.093-0.225,1.611-0.701L195.858,109.796z
			 M192.006,106.924c0.784,0,1.568-0.014,2.381-0.042c0.252,0,0.336-0.069,0.336-0.279c0.014-0.729-0.462-1.401-1.247-1.401
			C192.846,105.201,192.216,105.79,192.006,106.924z"/>
		<path d="M202.016,106.182c0.42-0.714,1.022-1.499,1.695-1.499c0.476,0,0.812,0.379,0.812,0.701c0,0.279-0.182,0.56-0.448,0.686
			c-0.168,0.07-0.28,0.057-0.364-0.027c-0.21-0.196-0.378-0.28-0.603-0.28c-0.364,0-0.812,0.406-1.121,1.19v2.563
			c0,0.925,0.07,1.009,1.149,1.093v0.364h-3.222v-0.364c0.868-0.084,0.966-0.168,0.966-1.093v-2.899c0-0.925-0.056-0.98-0.868-1.079
			v-0.322c0.686-0.111,1.302-0.279,1.975-0.56v1.526H202.016z"/>
		<path d="M209.998,109.796c-0.883,1.093-1.849,1.345-2.284,1.345c-1.723,0-2.731-1.4-2.731-2.983c0-0.953,0.351-1.821,0.925-2.451
			c0.574-0.631,1.331-1.023,2.045-1.023h0.014c1.163,0,2.101,1.051,2.101,2.13c0,0.28-0.056,0.392-0.322,0.448
			c-0.224,0.042-1.989,0.182-3.67,0.238c0.014,1.904,1.121,2.689,2.101,2.689c0.574,0,1.093-0.225,1.611-0.701L209.998,109.796z
			 M206.146,106.924c0.784,0,1.568-0.014,2.381-0.042c0.252,0,0.336-0.069,0.336-0.279c0.014-0.729-0.462-1.401-1.247-1.401
			C206.986,105.201,206.355,105.79,206.146,106.924z"/>
		<path d="M216.97,104.963c-0.126,0.225-0.406,0.589-0.63,0.715l-0.798-0.042c0.252,0.294,0.42,0.742,0.42,1.232
			c0,1.513-1.261,2.241-2.451,2.241c-0.224,0-0.49-0.028-0.714-0.07c-0.182,0.126-0.42,0.393-0.42,0.589
			c0,0.266,0.252,0.532,0.883,0.532c0.518,0,1.008-0.015,1.484-0.015c0.869,0,2.003,0.28,2.003,1.653
			c0,1.415-1.625,2.773-3.488,2.773c-1.569,0-2.423-0.91-2.438-1.709c0-0.308,0.126-0.574,0.336-0.784
			c0.28-0.28,0.827-0.715,1.163-0.98c-0.504-0.154-0.854-0.477-1.037-0.771c-0.126-0.196-0.168-0.448-0.154-0.588
			c0.561-0.211,1.009-0.575,1.233-0.854c-0.63-0.267-1.233-0.925-1.233-1.878c0-1.582,1.429-2.325,2.507-2.325h0.014
			c0.462,0,0.924,0.127,1.345,0.379c0.672-0.042,1.387-0.126,1.905-0.21L216.97,104.963z M212.571,111.421
			c-0.364,0.308-0.645,0.7-0.645,1.093c0,0.77,0.812,1.345,1.849,1.345c1.331,0,2.017-0.687,2.017-1.556
			c0-0.476-0.238-0.826-0.63-0.994c-0.35-0.14-0.756-0.182-1.373-0.182C213.146,111.127,212.823,111.211,212.571,111.421z
			 M212.333,106.784c0,1.093,0.546,1.877,1.317,1.877c0.616-0.014,1.163-0.561,1.163-1.667c0-1.093-0.519-1.877-1.331-1.877
			C212.894,105.117,212.333,105.706,212.333,106.784z"/>
		<path d="M219.6,106.182c0.42-0.714,1.021-1.499,1.694-1.499c0.476,0,0.812,0.379,0.812,0.701c0,0.279-0.183,0.56-0.448,0.686
			c-0.168,0.07-0.28,0.057-0.364-0.027c-0.21-0.196-0.378-0.28-0.603-0.28c-0.363,0-0.812,0.406-1.121,1.19v2.563
			c0,0.925,0.07,1.009,1.149,1.093v0.364h-3.222v-0.364c0.868-0.084,0.967-0.168,0.967-1.093v-2.899c0-0.925-0.057-0.98-0.869-1.079
			v-0.322c0.687-0.111,1.303-0.279,1.975-0.56v1.526H219.6z"/>
		<path d="M227.58,109.796c-0.883,1.093-1.849,1.345-2.283,1.345c-1.723,0-2.731-1.4-2.731-2.983c0-0.953,0.351-1.821,0.925-2.451
			c0.574-0.631,1.33-1.023,2.045-1.023h0.014c1.163,0,2.102,1.051,2.102,2.13c0,0.28-0.057,0.392-0.322,0.448
			c-0.225,0.042-1.988,0.182-3.67,0.238c0.014,1.904,1.121,2.689,2.102,2.689c0.574,0,1.092-0.225,1.61-0.701L227.58,109.796z
			 M223.729,106.924c0.784,0,1.568-0.014,2.381-0.042c0.252,0,0.336-0.069,0.336-0.279c0.015-0.729-0.462-1.401-1.246-1.401
			C224.568,105.201,223.938,105.79,223.729,106.924z"/>
		<path d="M232.115,106.518c-0.28-0.84-0.756-1.387-1.443-1.387c-0.546,0-0.91,0.406-0.91,0.967c0,0.616,0.561,0.938,1.177,1.205
			c1.065,0.434,1.779,0.938,1.779,1.904c0,1.275-1.19,1.934-2.312,1.934c-0.715,0-1.358-0.267-1.597-0.477
			c-0.099-0.196-0.238-1.148-0.238-1.652l0.378-0.07c0.238,0.925,0.869,1.737,1.709,1.737c0.519,0,0.994-0.379,0.994-0.981
			c0-0.616-0.405-0.952-1.105-1.274c-0.841-0.378-1.752-0.854-1.752-1.919c0-0.98,0.841-1.821,2.13-1.821
			c0.574,0,0.952,0.127,1.232,0.253c0.126,0.308,0.28,1.148,0.308,1.484L232.115,106.518z"/>
		<path d="M237.184,106.518c-0.281-0.84-0.757-1.387-1.443-1.387c-0.546,0-0.91,0.406-0.91,0.967c0,0.616,0.561,0.938,1.176,1.205
			c1.065,0.434,1.779,0.938,1.779,1.904c0,1.275-1.19,1.934-2.311,1.934c-0.715,0-1.359-0.267-1.598-0.477
			c-0.098-0.196-0.238-1.148-0.238-1.652l0.379-0.07c0.238,0.925,0.868,1.737,1.709,1.737c0.518,0,0.994-0.379,0.994-0.981
			c0-0.616-0.406-0.952-1.106-1.274c-0.841-0.378-1.751-0.854-1.751-1.919c0-0.98,0.84-1.821,2.129-1.821
			c0.574,0,0.953,0.127,1.232,0.253c0.127,0.308,0.281,1.148,0.309,1.484L237.184,106.518z"/>
		<path d="M242.251,106.518c-0.28-0.84-0.757-1.387-1.442-1.387c-0.547,0-0.91,0.406-0.91,0.967c0,0.616,0.56,0.938,1.176,1.205
			c1.064,0.434,1.779,0.938,1.779,1.904c0,1.275-1.191,1.934-2.312,1.934c-0.714,0-1.358-0.267-1.597-0.477
			c-0.098-0.196-0.238-1.148-0.238-1.652l0.379-0.07c0.237,0.925,0.867,1.737,1.709,1.737c0.518,0,0.994-0.379,0.994-0.981
			c0-0.616-0.406-0.952-1.107-1.274c-0.84-0.378-1.75-0.854-1.75-1.919c0-0.98,0.84-1.821,2.129-1.821
			c0.574,0,0.952,0.127,1.232,0.253c0.126,0.308,0.28,1.148,0.309,1.484L242.251,106.518z"/>
		<path d="M243.719,110.973v-0.364c0.883-0.084,0.98-0.168,0.98-1.121v-2.885c0-0.869-0.042-0.939-0.883-1.065v-0.336
			c0.715-0.112,1.387-0.294,1.989-0.546v4.832c0,0.953,0.099,1.037,0.995,1.121v0.364H243.719z M244.461,102.75
			c0-0.42,0.336-0.729,0.715-0.729c0.393,0,0.7,0.309,0.7,0.729c0,0.378-0.308,0.715-0.714,0.715
			C244.797,103.465,244.461,103.128,244.461,102.75z"/>
		<path d="M253.648,107.807c0,2.255-1.653,3.334-3.04,3.334c-1.919,0-3.067-1.541-3.067-3.096c0-2.312,1.793-3.362,3.082-3.362
			C252.359,104.683,253.648,106.084,253.648,107.807z M248.844,107.597c0,1.765,0.756,3.082,1.919,3.082
			c0.868,0,1.583-0.645,1.583-2.563c0-1.625-0.658-2.97-1.905-2.97C249.6,105.146,248.844,106.014,248.844,107.597z"/>
		<path d="M258.407,110.973v-0.364c0.826-0.084,0.925-0.196,0.925-1.163v-2.339c0-0.967-0.337-1.597-1.275-1.597
			c-0.561,0-1.106,0.35-1.527,0.714v3.292c0,0.952,0.085,1.009,0.911,1.093v0.364h-3.04v-0.364c0.953-0.099,1.023-0.168,1.023-1.093
			v-2.886c0-0.896-0.084-0.952-0.841-1.093v-0.322c0.673-0.126,1.331-0.294,1.946-0.56v1.106c0.281-0.21,0.589-0.42,0.939-0.658
			c0.393-0.252,0.756-0.421,1.162-0.421c1.121,0,1.807,0.785,1.807,2.13v2.703c0,0.952,0.084,1.009,0.896,1.093v0.364H258.407z"/>
		<path d="M265.659,108.199h-3.208l0.196-0.771h3.208L265.659,108.199z"/>
		<path d="M270.755,106.518c-0.28-0.84-0.757-1.387-1.442-1.387c-0.547,0-0.91,0.406-0.91,0.967c0,0.616,0.56,0.938,1.176,1.205
			c1.064,0.434,1.779,0.938,1.779,1.904c0,1.275-1.191,1.934-2.312,1.934c-0.714,0-1.358-0.267-1.597-0.477
			c-0.098-0.196-0.238-1.148-0.238-1.652l0.379-0.07c0.237,0.925,0.867,1.737,1.709,1.737c0.518,0,0.994-0.379,0.994-0.981
			c0-0.616-0.406-0.952-1.107-1.274c-0.84-0.378-1.75-0.854-1.75-1.919c0-0.98,0.84-1.821,2.129-1.821
			c0.574,0,0.952,0.127,1.232,0.253c0.126,0.308,0.28,1.148,0.309,1.484L270.755,106.518z"/>
		<path d="M276.732,111.141c-0.209,0-0.504-0.126-0.658-0.28c-0.182-0.182-0.266-0.378-0.336-0.616
			c-0.561,0.378-1.232,0.896-1.652,0.896c-0.995,0-1.682-0.826-1.682-1.709c0-0.687,0.365-1.121,1.135-1.387
			c0.841-0.28,1.863-0.658,2.172-0.91v-0.238c0-1.022-0.477-1.583-1.191-1.583c-0.266,0-0.477,0.098-0.63,0.266
			c-0.169,0.196-0.294,0.505-0.406,0.925c-0.07,0.225-0.21,0.322-0.406,0.322c-0.253,0-0.603-0.267-0.603-0.603
			c0-0.196,0.168-0.364,0.435-0.561c0.378-0.279,1.303-0.812,2.101-0.98c0.42,0,0.841,0.127,1.148,0.379
			c0.49,0.42,0.631,0.98,0.631,1.723v2.592c0,0.63,0.252,0.84,0.49,0.84c0.168,0,0.364-0.07,0.504-0.154l0.141,0.364
			L276.732,111.141z M275.711,107.61c-0.295,0.154-0.967,0.448-1.262,0.589c-0.546,0.252-0.854,0.518-0.854,1.036
			c0,0.715,0.561,1.064,0.994,1.064c0.364,0,0.854-0.238,1.121-0.504V107.61z"/>
		<path d="M283.705,109.712c-0.615,0.812-1.541,1.429-2.367,1.429c-1.765,0-2.815-1.429-2.815-2.928
			c0-1.078,0.477-2.017,1.415-2.731c0.729-0.561,1.568-0.799,2.087-0.799h0.015c0.574,0,1.036,0.183,1.26,0.379
			c0.183,0.153,0.225,0.266,0.225,0.42c0,0.294-0.309,0.603-0.463,0.603c-0.084,0-0.153-0.042-0.266-0.154
			c-0.42-0.393-0.91-0.574-1.414-0.574c-0.926,0-1.724,0.771-1.724,2.241c0,1.947,1.317,2.592,2.115,2.592
			c0.603,0,1.051-0.169,1.694-0.771L283.705,109.712z"/>
		<path d="M289.627,109.712c-0.615,0.812-1.541,1.429-2.367,1.429c-1.765,0-2.815-1.429-2.815-2.928
			c0-1.078,0.477-2.017,1.415-2.731c0.729-0.561,1.568-0.799,2.087-0.799h0.015c0.574,0,1.036,0.183,1.26,0.379
			c0.183,0.153,0.225,0.266,0.225,0.42c0,0.294-0.309,0.603-0.463,0.603c-0.084,0-0.153-0.042-0.266-0.154
			c-0.42-0.393-0.91-0.574-1.414-0.574c-0.926,0-1.724,0.771-1.724,2.241c0,1.947,1.317,2.592,2.115,2.592
			c0.603,0,1.051-0.169,1.694-0.771L289.627,109.712z"/>
		<path d="M294.765,111.141c-0.21,0-0.504-0.126-0.658-0.28c-0.183-0.182-0.267-0.378-0.337-0.616
			c-0.56,0.378-1.232,0.896-1.652,0.896c-0.994,0-1.681-0.826-1.681-1.709c0-0.687,0.364-1.121,1.135-1.387
			c0.841-0.28,1.862-0.658,2.171-0.91v-0.238c0-1.022-0.477-1.583-1.19-1.583c-0.267,0-0.477,0.098-0.63,0.266
			c-0.169,0.196-0.295,0.505-0.406,0.925c-0.07,0.225-0.211,0.322-0.406,0.322c-0.253,0-0.604-0.267-0.604-0.603
			c0-0.196,0.169-0.364,0.436-0.561c0.377-0.279,1.302-0.812,2.101-0.98c0.42,0,0.841,0.127,1.148,0.379
			c0.49,0.42,0.63,0.98,0.63,1.723v2.592c0,0.63,0.252,0.84,0.49,0.84c0.168,0,0.365-0.07,0.505-0.154l0.14,0.364L294.765,111.141z
			 M293.742,107.61c-0.294,0.154-0.967,0.448-1.261,0.589c-0.546,0.252-0.854,0.518-0.854,1.036c0,0.715,0.561,1.064,0.994,1.064
			c0.365,0,0.855-0.238,1.121-0.504V107.61z"/>
		<path d="M303.277,110.608c-0.308,0.056-1.357,0.238-2.17,0.532v-0.91l-0.855,0.504c-0.561,0.322-0.938,0.406-1.092,0.406
			c-1.121,0-2.592-1.022-2.592-2.983c0-1.947,1.695-3.475,3.6-3.475c0.196,0,0.617,0.042,0.939,0.169v-2.004
			c0-0.91-0.07-0.952-1.079-1.022v-0.35c0.729-0.084,1.667-0.309,2.185-0.477v8.362c0,0.729,0.099,0.799,0.617,0.854l0.447,0.042
			V110.608z M301.107,105.93c-0.337-0.49-0.925-0.715-1.443-0.715c-0.658,0-1.835,0.533-1.835,2.563
			c0,1.667,1.022,2.479,1.933,2.479c0.49,0,1.009-0.224,1.346-0.476V105.93z"/>
		<path d="M308.961,109.796c-0.883,1.093-1.849,1.345-2.283,1.345c-1.723,0-2.731-1.4-2.731-2.983c0-0.953,0.351-1.821,0.925-2.451
			c0.574-0.631,1.33-1.023,2.045-1.023h0.014c1.163,0,2.102,1.051,2.102,2.13c0,0.28-0.057,0.392-0.322,0.448
			c-0.225,0.042-1.988,0.182-3.67,0.238c0.014,1.904,1.121,2.689,2.102,2.689c0.574,0,1.092-0.225,1.61-0.701L308.961,109.796z
			 M305.109,106.924c0.784,0,1.568-0.014,2.381-0.042c0.252,0,0.336-0.069,0.336-0.279c0.015-0.729-0.462-1.401-1.246-1.401
			C305.949,105.201,305.319,105.79,305.109,106.924z"/>
		<path d="M313.496,106.518c-0.28-0.84-0.756-1.387-1.443-1.387c-0.546,0-0.91,0.406-0.91,0.967c0,0.616,0.561,0.938,1.177,1.205
			c1.065,0.434,1.779,0.938,1.779,1.904c0,1.275-1.19,1.934-2.312,1.934c-0.715,0-1.358-0.267-1.597-0.477
			c-0.099-0.196-0.238-1.148-0.238-1.652l0.378-0.07c0.238,0.925,0.869,1.737,1.709,1.737c0.519,0,0.994-0.379,0.994-0.981
			c0-0.616-0.405-0.952-1.105-1.274c-0.841-0.378-1.752-0.854-1.752-1.919c0-0.98,0.841-1.821,2.13-1.821
			c0.574,0,0.952,0.127,1.232,0.253c0.126,0.308,0.28,1.148,0.308,1.484L313.496,106.518z"/>
		<path d="M321.644,113.34c-2.045-1.373-2.97-3.628-2.97-6.163v-0.015c0-2.507,0.925-4.748,2.97-6.135l0.252,0.336
			c-1.4,1.177-2.199,3.418-2.199,5.827s0.812,4.664,2.199,5.841L321.644,113.34z"/>
		<path d="M325.801,104.823c0.225-0.099,0.406-0.141,0.574-0.141c1.499,0,2.76,1.289,2.76,2.956c0,2.045-1.652,3.502-3.516,3.502
			c-0.574,0-1.289-0.141-2.06-0.504v-7.774c0-0.883-0.028-0.967-0.925-1.051v-0.322c0.658-0.084,1.514-0.294,2.031-0.49v4.314
			L325.801,104.823z M324.666,109.348c0,0.21,0.028,0.35,0.084,0.49c0.098,0.266,0.504,0.771,1.232,0.771
			c1.178,0,1.906-0.995,1.906-2.619c0-1.583-0.967-2.521-2.13-2.521c-0.392,0-0.841,0.126-1.093,0.266V109.348z"/>
		<path d="M334.594,111.141c-0.211,0-0.505-0.126-0.658-0.28c-0.183-0.182-0.267-0.378-0.337-0.616
			c-0.56,0.378-1.232,0.896-1.653,0.896c-0.994,0-1.68-0.826-1.68-1.709c0-0.687,0.363-1.121,1.134-1.387
			c0.841-0.28,1.863-0.658,2.171-0.91v-0.238c0-1.022-0.476-1.583-1.189-1.583c-0.267,0-0.477,0.098-0.631,0.266
			c-0.168,0.196-0.295,0.505-0.406,0.925c-0.07,0.225-0.211,0.322-0.406,0.322c-0.252,0-0.603-0.267-0.603-0.603
			c0-0.196,0.168-0.364,0.435-0.561c0.378-0.279,1.303-0.812,2.102-0.98c0.42,0,0.84,0.127,1.148,0.379
			c0.49,0.42,0.63,0.98,0.63,1.723v2.592c0,0.63,0.252,0.84,0.49,0.84c0.168,0,0.364-0.07,0.505-0.154l0.14,0.364L334.594,111.141z
			 M333.57,107.61c-0.293,0.154-0.966,0.448-1.26,0.589c-0.547,0.252-0.855,0.518-0.855,1.036c0,0.715,0.561,1.064,0.995,1.064
			c0.364,0,0.854-0.238,1.12-0.504V107.61z"/>
		<path d="M341.566,109.712c-0.617,0.812-1.541,1.429-2.367,1.429c-1.766,0-2.816-1.429-2.816-2.928
			c0-1.078,0.477-2.017,1.415-2.731c0.729-0.561,1.569-0.799,2.087-0.799h0.014c0.574,0,1.037,0.183,1.262,0.379
			c0.182,0.153,0.224,0.266,0.224,0.42c0,0.294-0.308,0.603-0.462,0.603c-0.084,0-0.154-0.042-0.267-0.154
			c-0.42-0.393-0.911-0.574-1.415-0.574c-0.924,0-1.723,0.771-1.723,2.241c0,1.947,1.316,2.592,2.115,2.592
			c0.603,0,1.051-0.169,1.695-0.771L341.566,109.712z"/>
		<path d="M346.97,111c-0.645-0.714-1.526-1.835-2.298-2.773c-0.195-0.224-0.322-0.308-0.434-0.308c-0.07,0-0.141,0.014-0.225,0.042
			v1.555c0,0.925,0.112,1.009,1.009,1.093v0.364h-3.124v-0.364c0.939-0.084,1.023-0.196,1.023-1.093v-6.611
			c0-0.925-0.07-1.009-0.926-1.079v-0.336c0.673-0.07,1.472-0.309,2.018-0.49v6.598c0.42-0.084,0.672-0.267,0.883-0.49
			c0.309-0.309,0.729-0.854,0.994-1.232c0.295-0.435,0.252-0.547-0.42-0.616v-0.364l2.857-0.127v0.351
			c-0.967,0.154-1.261,0.309-1.807,0.826c-0.351,0.351-0.603,0.631-1.205,1.331c0.266,0.42,1.695,2.073,2.172,2.563
			c0.49,0.532,0.868,0.742,1.4,0.771v0.364L346.97,111z"/>
		<path d="M358.326,105.215c-0.7,0.099-0.826,0.267-1.106,1.037c-0.42,1.12-1.051,2.983-1.681,4.875h-0.406
			c-0.561-1.514-1.135-2.886-1.709-4.356c-0.532,1.414-1.106,2.801-1.667,4.356h-0.393c-0.518-1.667-1.036-3.32-1.624-5.001
			c-0.253-0.729-0.364-0.826-1.037-0.911v-0.363h2.899v0.363c-0.84,0.127-0.91,0.211-0.714,0.854
			c0.336,1.065,0.687,2.172,1.036,3.25h0.028c0.519-1.345,1.036-2.773,1.625-4.398h0.364c0.518,1.457,1.092,2.941,1.681,4.455h0.028
			c0.308-0.967,0.7-2.199,0.966-3.236c0.183-0.729,0.084-0.798-0.812-0.925v-0.363h2.521V105.215z"/>
		<path d="M363.042,111.141c-0.211,0-0.505-0.126-0.659-0.28c-0.182-0.182-0.266-0.378-0.336-0.616
			c-0.561,0.378-1.232,0.896-1.652,0.896c-0.995,0-1.682-0.826-1.682-1.709c0-0.687,0.364-1.121,1.135-1.387
			c0.841-0.28,1.863-0.658,2.172-0.91v-0.238c0-1.022-0.477-1.583-1.191-1.583c-0.266,0-0.476,0.098-0.63,0.266
			c-0.168,0.196-0.294,0.505-0.406,0.925c-0.07,0.225-0.21,0.322-0.406,0.322c-0.252,0-0.603-0.267-0.603-0.603
			c0-0.196,0.168-0.364,0.435-0.561c0.378-0.279,1.303-0.812,2.101-0.98c0.421,0,0.841,0.127,1.149,0.379
			c0.49,0.42,0.63,0.98,0.63,1.723v2.592c0,0.63,0.252,0.84,0.49,0.84c0.168,0,0.364-0.07,0.504-0.154l0.141,0.364L363.042,111.141z
			 M362.02,107.61c-0.295,0.154-0.967,0.448-1.261,0.589c-0.547,0.252-0.854,0.518-0.854,1.036c0,0.715,0.56,1.064,0.994,1.064
			c0.364,0,0.854-0.238,1.121-0.504V107.61z"/>
		<path d="M366.75,106.182c0.42-0.714,1.022-1.499,1.695-1.499c0.476,0,0.812,0.379,0.812,0.701c0,0.279-0.182,0.56-0.448,0.686
			c-0.168,0.07-0.279,0.057-0.363-0.027c-0.211-0.196-0.379-0.28-0.603-0.28c-0.364,0-0.812,0.406-1.121,1.19v2.563
			c0,0.925,0.07,1.009,1.148,1.093v0.364h-3.222v-0.364c0.869-0.084,0.967-0.168,0.967-1.093v-2.899c0-0.925-0.056-0.98-0.868-1.079
			v-0.322c0.687-0.111,1.303-0.279,1.975-0.56v1.526H366.75z"/>
		<path d="M376.44,110.608c-0.309,0.056-1.359,0.238-2.172,0.532v-0.91l-0.854,0.504c-0.56,0.322-0.938,0.406-1.092,0.406
			c-1.121,0-2.592-1.022-2.592-2.983c0-1.947,1.695-3.475,3.6-3.475c0.196,0,0.617,0.042,0.938,0.169v-2.004
			c0-0.91-0.069-0.952-1.078-1.022v-0.35c0.729-0.084,1.667-0.309,2.186-0.477v8.362c0,0.729,0.098,0.799,0.616,0.854l0.448,0.042
			V110.608z M374.269,105.93c-0.336-0.49-0.924-0.715-1.442-0.715c-0.658,0-1.835,0.533-1.835,2.563
			c0,1.667,1.022,2.479,1.933,2.479c0.49,0,1.009-0.224,1.345-0.476V105.93z"/>
		<path d="M380.244,105.201c0.729-0.112,1.442-0.294,2.045-0.546v4.763c0,0.91-0.057,1.513-0.322,2.255
			c-0.49,1.4-1.373,2.465-1.695,2.745c-0.14,0.099-0.252,0.154-0.364,0.154c-0.182,0-0.504-0.28-0.504-0.616
			c0-0.182,0.098-0.28,0.294-0.322c0.463-0.112,0.827-0.28,1.022-0.532c0.169-0.21,0.267-0.532,0.351-1.009
			c0.084-0.603,0.112-1.429,0.112-2.703v-2.731c0-0.952-0.07-1.009-0.938-1.135V105.201z M380.958,102.75
			c0-0.42,0.322-0.729,0.715-0.729c0.378,0,0.687,0.309,0.687,0.729c0,0.378-0.309,0.715-0.701,0.715
			C381.28,103.465,380.958,103.128,380.958,102.75z"/>
		<path d="M390.467,110.637c-0.309,0.042-0.7,0.126-1.078,0.224c-0.364,0.098-0.715,0.21-0.98,0.28l-0.085-0.084v-0.995
			c-0.321,0.238-0.63,0.49-1.036,0.729s-0.7,0.351-1.078,0.351c-0.938,0-1.737-0.574-1.737-2.087v-2.746
			c0-0.742-0.112-0.812-0.462-0.896l-0.393-0.084v-0.322c0.294-0.014,0.645-0.056,1.009-0.098c0.378-0.056,0.771-0.112,0.994-0.154
			c-0.042,0.435-0.042,1.093-0.042,2.031v1.891c0,1.247,0.603,1.583,1.232,1.583c0.505,0,1.037-0.21,1.513-0.672v-3.278
			c0-0.742-0.126-0.826-0.588-0.896l-0.504-0.084v-0.322c0.378-0.014,0.854-0.056,1.261-0.111c0.392-0.042,0.728-0.099,0.938-0.141
			v4.679c0,0.7,0.111,0.784,0.658,0.826l0.378,0.015V110.637z"/>
		<path d="M398.811,110.973v-0.364c0.827-0.084,0.98-0.141,0.98-1.135v-2.339c0-0.995-0.35-1.625-1.232-1.625
			c-0.504,0-1.036,0.294-1.568,0.729c0.027,0.168,0.042,0.336,0.042,0.588v2.731c0,0.883,0.126,0.967,0.896,1.051v0.364h-2.998
			v-0.364c0.868-0.084,0.995-0.154,0.995-1.079v-2.409c0-1.022-0.364-1.61-1.233-1.61c-0.546,0-1.106,0.378-1.526,0.729v3.291
			c0,0.911,0.126,0.995,0.812,1.079v0.364h-2.956v-0.364c0.925-0.084,1.051-0.168,1.051-1.079v-2.899
			c0-0.896-0.042-0.967-0.854-1.093v-0.322c0.616-0.111,1.316-0.294,1.947-0.574v1.135c0.294-0.196,0.588-0.448,1.022-0.7
			c0.364-0.224,0.7-0.393,1.135-0.393c0.672,0,1.274,0.435,1.568,1.163c0.406-0.322,0.812-0.574,1.163-0.799
			c0.294-0.195,0.658-0.364,1.064-0.364c1.078,0,1.779,0.771,1.779,2.144v2.703c0,0.938,0.098,0.995,0.91,1.079v0.364H398.811z"/>
		<path d="M405.501,104.907c0.252-0.154,0.518-0.225,0.687-0.225c1.555,0,2.479,1.275,2.479,2.647c0,2.115-1.666,3.475-3.487,3.811
			c-0.421-0.014-0.784-0.154-0.967-0.252v1.835c0,1.064,0.099,1.148,1.177,1.232v0.378h-3.306v-0.378
			c0.896-0.084,1.022-0.168,1.022-1.093v-6.331c0-0.911-0.056-0.938-0.925-1.051v-0.336c0.589-0.099,1.373-0.336,2.031-0.603v1.106
			L405.501,104.907z M404.212,109.908c0.309,0.322,0.826,0.546,1.316,0.546c1.177,0,1.962-1.009,1.962-2.577
			c0-1.513-0.869-2.354-1.878-2.354c-0.448,0-1.022,0.309-1.4,0.603V109.908z"/>
		<path d="M413.299,106.518c-0.28-0.84-0.756-1.387-1.442-1.387c-0.547,0-0.911,0.406-0.911,0.967c0,0.616,0.561,0.938,1.177,1.205
			c1.064,0.434,1.779,0.938,1.779,1.904c0,1.275-1.19,1.934-2.312,1.934c-0.714,0-1.358-0.267-1.597-0.477
			c-0.098-0.196-0.238-1.148-0.238-1.652l0.378-0.07c0.238,0.925,0.869,1.737,1.709,1.737c0.519,0,0.995-0.379,0.995-0.981
			c0-0.616-0.406-0.952-1.106-1.274c-0.841-0.378-1.751-0.854-1.751-1.919c0-0.98,0.84-1.821,2.129-1.821
			c0.574,0,0.952,0.127,1.232,0.253c0.126,0.308,0.28,1.148,0.309,1.484L413.299,106.518z"/>
		<path d="M418.171,107.204c0,2.521-0.869,4.721-2.956,6.149l-0.267-0.322c1.43-1.177,2.214-3.432,2.214-5.841
			s-0.812-4.679-2.214-5.827l0.267-0.336c2.073,1.414,2.956,3.628,2.956,6.149V107.204z"/>
		<path d="M419.975,110.328c0-0.448,0.336-0.799,0.784-0.799s0.784,0.351,0.784,0.799c0,0.49-0.336,0.812-0.798,0.812
			C420.311,111.141,419.975,110.818,419.975,110.328z"/>
	</g>
</g>
<g id="Layer_5">
	<circle fill="none" stroke="#ED1C24" stroke-width="0.5" stroke-miterlimit="10" cx="35.521" cy="45.006" r="12.004"/>
	<circle fill="none" stroke="#ED1C24" stroke-width="0.5" stroke-miterlimit="10" cx="91.072" cy="45.006" r="12.004"/>
	<circle fill="none" stroke="#ED1C24" stroke-width="0.5" stroke-miterlimit="10" cx="147" cy="45.006" r="12.004"/>
	<circle fill="none" stroke="#ED1C24" stroke-width="0.5" stroke-miterlimit="10" cx="215.528" cy="45.007" r="12.004"/>
	<circle fill="none" stroke="#ED1C24" stroke-width="0.5" stroke-miterlimit="10" cx="257.501" cy="45.007" r="12.005"/>
	<circle fill="none" stroke="#ED1C24" stroke-width="0.5" stroke-miterlimit="10" cx="320.841" cy="45.007" r="12.004"/>
	<circle fill="none" stroke="#ED1C24" stroke-width="0.5" stroke-miterlimit="10" cx="379.58" cy="45.006" r="12.004"/>
	<circle fill="none" stroke="#ED1C24" stroke-width="0.5" stroke-miterlimit="10" cx="60.552" cy="77.047" r="12.004"/>
	<circle fill="none" stroke="#ED1C24" stroke-width="0.5" stroke-miterlimit="10" cx="120.107" cy="77.047" r="12.004"/>
	<circle fill="none" stroke="#ED1C24" stroke-width="0.5" stroke-miterlimit="10" cx="185.044" cy="77.047" r="12.004"/>
	<circle fill="none" stroke="#ED1C24" stroke-width="0.5" stroke-miterlimit="10" cx="240.559" cy="77.048" r="12.004"/>
	<circle fill="none" stroke="#ED1C24" stroke-width="0.5" stroke-miterlimit="10" cx="317.845" cy="77.048" r="12.004"/>
	<circle fill="none" stroke="#ED1C24" stroke-width="0.5" stroke-miterlimit="10" cx="373.581" cy="77.047" r="12.004"/>
	<circle fill="none" stroke="#ED1C24" stroke-width="0.5" stroke-miterlimit="10" cx="56.52" cy="106.059" r="12.004"/>
	<circle fill="none" stroke="#ED1C24" stroke-width="0.5" stroke-miterlimit="10" cx="144.103" cy="106.059" r="12.004"/>
	<circle fill="none" stroke="#ED1C24" stroke-width="0.5" stroke-miterlimit="10" cx="222.513" cy="106.06" r="12.004"/>
	<circle fill="none" stroke="#ED1C24" stroke-width="0.5" stroke-miterlimit="10" cx="284.506" cy="106.06" r="12.005"/>
	<circle fill="none" stroke="#ED1C24" stroke-width="0.5" stroke-miterlimit="10" cx="351.85" cy="106.06" r="12.004"/>
	<circle fill="none" stroke="#ED1C24" stroke-width="0.5" stroke-miterlimit="10" cx="411.59" cy="106.059" r="12.004"/>
</g>
<g id="Layer_4">
	<line fill="none" stroke="#ED1C24" stroke-width="0.25" stroke-miterlimit="10" x1="44.515" y1="33.003" x2="80.069" y2="33.003"/>
	<line fill="none" stroke="#ED1C24" stroke-width="0.25" stroke-miterlimit="10" x1="103.092" y1="33.003" x2="138" y2="33.003"/>
	
		<line fill="none" stroke="#ED1C24" stroke-width="0.25" stroke-miterlimit="10" x1="158.103" y1="33.003" x2="205.525" y2="33.003"/>
	
		<line fill="none" stroke="#ED1C24" stroke-width="0.25" stroke-miterlimit="10" x1="223.517" y1="33.003" x2="249.328" y2="33.003"/>
	<line fill="none" stroke="#ED1C24" stroke-width="0.25" stroke-miterlimit="10" x1="266.503" y1="33.003" x2="312" y2="33.003"/>
	
		<line fill="none" stroke="#ED1C24" stroke-width="0.25" stroke-miterlimit="10" x1="329.849" y1="33.003" x2="371.387" y2="33.003"/>
	
		<line fill="none" stroke="#ED1C24" stroke-width="0.25" stroke-miterlimit="10" x1="70.549" y1="66.032" x2="111.001" y2="66.032"/>
	
		<line fill="none" stroke="#ED1C24" stroke-width="0.25" stroke-miterlimit="10" x1="130.128" y1="66.032" x2="177.002" y2="66.032"/>
	
		<line fill="none" stroke="#ED1C24" stroke-width="0.25" stroke-miterlimit="10" x1="193.999" y1="66.032" x2="231.558" y2="66.032"/>
	
		<line fill="none" stroke="#ED1C24" stroke-width="0.25" stroke-miterlimit="10" x1="249.558" y1="66.032" x2="308.845" y2="66.032"/>
	
		<line fill="none" stroke="#ED1C24" stroke-width="0.25" stroke-miterlimit="10" x1="326.854" y1="66.032" x2="363.853" y2="66.032"/>
	<line fill="none" stroke="#ED1C24" stroke-width="0.25" stroke-miterlimit="10" x1="66.549" y1="96.062" x2="132.11" y2="96.062"/>
	
		<line fill="none" stroke="#ED1C24" stroke-width="0.25" stroke-miterlimit="10" x1="156.102" y1="96.051" x2="212.778" y2="96.051"/>
	<line fill="none" stroke="#ED1C24" stroke-width="0.25" stroke-miterlimit="10" x1="234.522" y1="96.062" x2="274.5" y2="96.062"/>
	
		<line fill="none" stroke="#ED1C24" stroke-width="0.25" stroke-miterlimit="10" x1="296.54" y1="96.062" x2="342.037" y2="96.062"/>
	
		<line fill="none" stroke="#ED1C24" stroke-width="0.25" stroke-miterlimit="10" x1="363.89" y1="96.051" x2="402.587" y2="96.051"/>
</g>
<g id="Layer_2">
	<path fill="none" stroke="#ED1C24" stroke-width="0.25" stroke-miterlimit="10" d="M96.065,25.49c0,0,50.768-16,115.466,0"/>
	<line fill="none" stroke="#ED1C24" stroke-width="0.25" stroke-miterlimit="10" x1="96.065" y1="25.49" x2="101.544" y2="18.378"/>
	<line fill="none" stroke="#ED1C24" stroke-width="0.25" stroke-miterlimit="10" x1="96.065" y1="25.49" x2="104.633" y2="29.498"/>
	<path fill="none" stroke="#ED1C24" stroke-width="0.25" stroke-miterlimit="10" d="M188.038,61.771c0,0,24.41-7.429,55.519,0"/>
	
		<line fill="none" stroke="#ED1C24" stroke-width="0.25" stroke-miterlimit="10" x1="188.038" y1="61.637" x2="190.672" y2="57.853"/>
	
		<line fill="none" stroke="#ED1C24" stroke-width="0.25" stroke-miterlimit="10" x1="188.038" y1="61.637" x2="192.157" y2="63.769"/>
	<g>
	</g>
	<g>
	</g>
	<g>
	</g>
	<g>
	</g>
	<g>
	</g>
	<g>
	</g>
</g>
</svg>
