<?xml version="1.0" encoding="utf-8"?>
<!-- Generator: Adobe Illustrator 16.0.4, SVG Export Plug-In . SVG Version: 6.00 Build 0)  -->
<!DOCTYPE svg PUBLIC "-//W3C//DTD SVG 1.0//EN" "http://www.w3.org/TR/2001/REC-SVG-20010904/DTD/svg10.dtd">
<svg version="1.0" xmlns="http://www.w3.org/2000/svg" xmlns:xlink="http://www.w3.org/1999/xlink" x="0px" y="0px"
	 width="799.92px" height="120px" viewBox="0 0 799.92 120" enable-background="new 0 0 799.92 120" xml:space="preserve">
<g id="Layer_5">
	<ellipse fill="#ED1C24" cx="186.567" cy="62.322" rx="9.893" ry="8.573"/>
	<ellipse fill="#ED1C24" cx="556.683" cy="47.166" rx="7.721" ry="6.96"/>
	<ellipse fill="#ED1C24" cx="520.148" cy="72.147" rx="10.312" ry="8.394"/>
	<circle fill="#ED1C24" cx="196.569" cy="21.549" r="6.999"/>
	<circle fill="#ED1C24" cx="651.522" cy="23.05" r="6.545"/>
	<circle fill="#ED1C24" cx="541.712" cy="42.004" r="7.25"/>
	<ellipse fill="#ED1C24" cx="313.459" cy="45.015" rx="10.001" ry="9"/>
	<ellipse fill="#ED1C24" cx="600.46" cy="45.358" rx="7" ry="7.341"/>
	<ellipse fill="#ED1C24" cx="313.459" cy="100.5" rx="10.001" ry="9"/>
	<ellipse fill="#ED1C24" cx="363.211" cy="96.497" rx="11.251" ry="6.997"/>
	<ellipse fill="#ED1C24" cx="738.959" cy="44.728" rx="10.001" ry="7.972"/>
	<ellipse fill="#ED1C24" cx="658.067" cy="71.896" rx="10.001" ry="9"/>
	<ellipse fill="#ED1C24" cx="687.067" cy="71.896" rx="10.001" ry="9"/>
	<ellipse fill="#ED1C24" cx="584.263" cy="72.325" rx="7.197" ry="8.571"/>
	<ellipse fill="#ED1C24" cx="275.068" cy="42.933" rx="6.501" ry="6.574"/>
	<ellipse fill="#ED1C24" cx="710.067" cy="43.7" rx="10.001" ry="9"/>
	<ellipse fill="#ED1C24" cx="708.065" cy="99.499" rx="10.001" ry="9"/>
	<ellipse fill="#ED1C24" cx="603.959" cy="94.495" rx="11.5" ry="9"/>
	<ellipse fill="#ED1C24" cx="82.96" cy="44.728" rx="12.5" ry="7.972"/>
	<ellipse fill="#ED1C24" cx="137.821" cy="43.701" rx="11.25" ry="7.971"/>
	<circle fill="#ED1C24" cx="360.211" cy="43.7" r="7.25"/>
	<ellipse fill="#ED1C24" cx="343.569" cy="43.474" rx="8.608" ry="7.746"/>
	<ellipse fill="#ED1C24" cx="503.398" cy="31.901" rx="7.439" ry="6.695"/>
	<ellipse fill="#ED1C24" cx="517.276" cy="43.934" rx="7.439" ry="6.695"/>
</g>
<g id="Layer_4">
	<line fill="none" stroke="#ED1C24" stroke-width="0.5" stroke-miterlimit="10" x1="57.393" y1="36.015" x2="760.926" y2="36.015"/>
	<line fill="none" stroke="#ED1C24" stroke-width="0.5" stroke-miterlimit="10" x1="57.392" y1="80.541" x2="760.925" y2="80.541"/>
	<g>
		<g>
			
				<line fill="none" stroke="#ED1C24" stroke-width="0.5" stroke-linecap="round" stroke-miterlimit="10" x1="57.399" y1="36.756" x2="57.399" y2="37.256"/>
			
				<line fill="none" stroke="#ED1C24" stroke-width="0.5" stroke-linecap="round" stroke-miterlimit="10" stroke-dasharray="1.0118,1.0118" x1="57.399" y1="38.268" x2="57.399" y2="78.235"/>
			
				<line fill="none" stroke="#ED1C24" stroke-width="0.5" stroke-linecap="round" stroke-miterlimit="10" x1="57.399" y1="78.741" x2="57.399" y2="79.241"/>
		</g>
	</g>
	<g>
		<path fill="#ED1C24" d="M22.577,60l-0.609-1.044c-0.245-0.398-0.392-0.658-0.539-0.931h-0.014
			c-0.133,0.272-0.273,0.524-0.511,0.938L20.335,60h-0.7l1.442-2.389l-1.387-2.332h0.708l0.624,1.106
			c0.175,0.309,0.308,0.547,0.434,0.799h0.021c0.133-0.28,0.252-0.497,0.427-0.799l0.637-1.106h0.708l-1.436,2.298L23.284,60H22.577
			z"/>
		<path fill="#ED1C24" d="M25.25,57.885v0.448h-1.73v-0.448H25.25z"/>
		<path fill="#ED1C24" d="M26.601,55.28v1.976h2.283V55.28H29.5V60h-0.616v-2.213h-2.283V60h-0.616V55.28H26.601z"/>
		<path fill="#ED1C24" d="M32.993,57.788h-1.828v1.701h2.045V60h-2.661V55.28h2.556v0.512h-1.94v1.491h1.828V57.788z"/>
		<path fill="#ED1C24" d="M34.608,55.28V60h-0.616V55.28H34.608z"/>
		<path fill="#ED1C24" d="M39.272,59.791c-0.273,0.104-0.819,0.259-1.457,0.259c-0.714,0-1.303-0.182-1.765-0.623
			c-0.406-0.393-0.659-1.022-0.659-1.758c0-1.408,0.974-2.438,2.557-2.438c0.546,0,0.98,0.119,1.184,0.217l-0.154,0.497
			c-0.252-0.118-0.567-0.202-1.043-0.202c-1.148,0-1.898,0.714-1.898,1.897c0,1.197,0.714,1.905,1.821,1.905
			c0.399,0,0.672-0.057,0.812-0.126v-1.408h-0.953v-0.49h1.555V59.791z"/>
		<path fill="#ED1C24" d="M40.803,55.28v1.976h2.283V55.28h0.616V60h-0.616v-2.213h-2.283V60h-0.616V55.28H40.803z"/>
		<path fill="#ED1C24" d="M45.654,55.798h-1.436V55.28h3.495v0.519h-1.443V60h-0.616V55.798z"/>
	</g>
</g>
<g id="Layer_2">
	<g>
		<path d="M73.377,35.541H92.45v2.681c-1.348,0.059-2.373,0.33-3.076,0.813s-1.165,1.15-1.384,2c-0.22,0.85-0.227,1.861-0.022,3.032
			c0.205,1.172,0.556,2.476,1.055,3.911l7.075,21.269c6.914-20.507,10.679-31.743,11.294-33.706h3.691l11.997,34.366
			c6.152-17.842,9.441-27.297,9.866-28.367c0.424-1.069,0.916-1.94,1.472-2.615l-5.229,0.308v-3.691h15.645v2.681
			c-1.553,0.088-2.828,0.315-3.823,0.681c-0.996,0.367-1.817,0.85-2.461,1.45c-0.645,0.601-1.18,1.318-1.604,2.153
			c-0.425,0.835-0.828,1.795-1.208,2.878l-12.964,35.42h-3.604l-11.777-34.058L95.702,80.805h-3.428L80.497,46.263
			c-0.674-1.904-1.194-3.42-1.56-4.548c-0.367-1.127-0.623-2.043-0.769-2.747l-4.79,0.264V35.541z"/>
		<path d="M188.558,53.998l-31.685,0.527c-0.029,3.464,0.234,6.605,0.791,9.422c0.556,2.818,1.435,5.225,2.637,7.221
			c1.201,1.996,2.747,3.537,4.636,4.623c1.89,1.087,4.153,1.629,6.79,1.629c1.406,0,2.841-0.191,4.307-0.574
			c1.465-0.383,2.878-0.906,4.241-1.568c1.362-0.664,2.615-1.459,3.757-2.387c1.143-0.93,2.094-1.924,2.856-2.984l2.197,1.801
			c-1.23,1.875-2.659,3.465-4.285,4.769s-3.311,2.366-5.054,3.187c-1.743,0.82-3.494,1.412-5.251,1.779
			c-1.758,0.366-3.399,0.549-4.922,0.549c-3.105,0-5.999-0.557-8.679-1.67s-5.003-2.709-6.965-4.789
			c-1.963-2.08-3.509-4.586-4.636-7.516c-1.128-2.929-1.692-6.225-1.692-9.887c0-3.164,0.542-6.189,1.626-9.075
			c1.083-2.885,2.622-5.442,4.614-7.668c1.992-2.226,4.379-3.999,7.163-5.317c2.783-1.318,5.874-1.978,9.272-1.978
			c2.49,0,4.841,0.411,7.053,1.23c2.212,0.82,4.153,2.051,5.823,3.691c1.67,1.641,2.988,3.713,3.955,6.218
			S188.558,50.658,188.558,53.998z M170.365,37.65c-3.516,0-6.416,1.029-8.701,3.088s-3.794,5.395-4.526,10.008h22.939
			c0-1.577-0.176-3.146-0.527-4.708c-0.352-1.562-0.916-2.963-1.692-4.204c-0.776-1.241-1.78-2.248-3.01-3.022
			S172.123,37.65,170.365,37.65z"/>
		<path d="M199.413,24.291c0-0.938,0.007-1.846,0.022-2.725c0.015-0.879,0.095-1.918,0.242-3.12l-6.372,0.352v-3.779
			c1.962,0,3.596-0.066,4.9-0.198c1.303-0.132,2.366-0.314,3.186-0.549c0.82-0.234,1.465-0.49,1.934-0.769
			c0.468-0.278,0.879-0.578,1.23-0.901h2.593v26.851c1.67-1.67,3.654-2.981,5.955-3.933c2.3-0.952,4.871-1.428,7.712-1.428
			c2.871,0,5.544,0.535,8.02,1.604c2.476,1.07,4.629,2.593,6.46,4.57c1.831,1.978,3.267,4.38,4.307,7.207
			c1.04,2.828,1.56,5.999,1.56,9.514c0,3.838-0.652,7.295-1.956,10.372c-1.304,3.076-3.032,5.697-5.186,7.865
			c-2.153,2.169-4.644,3.839-7.471,5.01c-2.828,1.172-5.75,1.758-8.767,1.758c-1.026,0-2.109-0.08-3.252-0.241
			s-2.3-0.454-3.472-0.879c-1.172-0.425-2.314-0.989-3.428-1.692c-1.114-0.703-2.139-1.596-3.076-2.68l-2.153,4.043h-3.164
			L199.413,24.291z M218.045,38.529c-1.993,0-3.955,0.461-5.889,1.384s-3.604,2.161-5.01,3.713v22.764
			c0,2.402,0.292,4.372,0.879,5.91c0.586,1.538,1.377,2.754,2.373,3.647c0.996,0.894,2.131,1.509,3.406,1.846s2.6,0.505,3.977,0.505
			c2.168,0,4.124-0.461,5.867-1.384c1.743-0.923,3.223-2.226,4.438-3.911c1.215-1.685,2.153-3.698,2.812-6.043
			c0.659-2.344,0.989-4.936,0.989-7.778c0-3.017-0.286-5.793-0.857-8.328c-0.571-2.534-1.428-4.709-2.571-6.526
			c-1.143-1.816-2.578-3.237-4.307-4.263C222.425,39.042,220.389,38.529,218.045,38.529z"/>
		<path d="M270.56,35.541c1.582-0.029,3.017-0.461,4.307-1.296c1.289-0.835,2.424-1.875,3.406-3.12
			c0.981-1.245,1.809-2.6,2.483-4.065c0.674-1.465,1.201-2.841,1.582-4.131h3.076c0,2.402-0.007,4.644-0.022,6.724
			c-0.015,2.081-0.022,4.043-0.022,5.889h15.161v3.516l-15.161,0.176c-0.029,3.896-0.044,7.222-0.044,9.976
			c0,2.754-0.007,5.054-0.022,6.899c-0.015,1.846-0.022,3.303-0.022,4.373s-0.007,1.883-0.022,2.438
			c-0.015,0.557-0.022,0.916-0.022,1.077s0,0.257,0,0.286c0,2.051,0.11,3.859,0.33,5.427s0.593,2.886,1.121,3.955
			s1.223,1.875,2.087,2.417c0.864,0.543,1.956,0.812,3.274,0.812c1.553,0,3.091-0.468,4.614-1.406
			c1.523-0.938,2.871-2.27,4.043-3.998l2.417,1.977c-1.318,1.993-2.63,3.553-3.933,4.681c-1.304,1.128-2.542,1.978-3.713,2.549
			c-1.172,0.571-2.263,0.93-3.274,1.077c-1.011,0.146-1.897,0.219-2.659,0.219c-0.908,0-1.839-0.072-2.791-0.219
			c-0.952-0.147-1.89-0.434-2.812-0.857s-1.787-1.025-2.593-1.802c-0.806-0.776-1.516-1.78-2.131-3.011s-1.099-2.725-1.45-4.482
			s-0.513-3.838-0.483-6.24l0.176-26.015l-6.899,0.044V35.541z"/>
		<path d="M315.34,100.229c0.322,0.146,0.659,0.219,1.011,0.219c0.527,0,1.208-0.227,2.044-0.681
			c0.834-0.454,1.677-1.413,2.526-2.878c0.762-1.318,1.677-3.289,2.747-5.911c1.068-2.622,2.263-5.765,3.581-9.427
			c-10.166-21.767-15.527-33.31-16.084-34.628s-1.019-2.476-1.384-3.472c-0.367-0.996-0.66-1.86-0.879-2.593
			c-0.221-0.732-0.374-1.347-0.462-1.846l-4.351,0.22v-3.691h18.633v2.681l-0.396,0.044c-1.26,0.088-2.22,0.367-2.878,0.835
			c-0.66,0.469-1.062,1.136-1.209,2c-0.146,0.864-0.059,1.993,0.264,3.384c0.322,1.392,4.438,10.378,12.349,26.96
			c6.24-18.193,9.558-27.758,9.954-28.696c0.395-0.938,0.775-1.758,1.143-2.461c0.365-0.703,0.71-1.171,1.032-1.406l-6.196,0.352
			v-3.691h14.106v2.681c-1.113,0.439-2.073,1.004-2.878,1.692c-0.807,0.688-1.517,1.523-2.132,2.505
			c-0.615,0.982-1.187,2.103-1.714,3.362c-0.527,1.26-4.819,13.111-12.876,35.552c-1.377,3.779-2.637,7.141-3.779,10.085
			s-2.337,5.412-3.581,7.405c-1.246,1.992-2.608,3.508-4.088,4.548s-3.215,1.56-5.207,1.56c-0.938,0-1.816-0.109-2.637-0.329
			s-1.538-0.557-2.153-1.011c-0.615-0.455-1.099-1.025-1.45-1.714s-0.527-1.487-0.527-2.396c0-0.557,0.088-1.098,0.264-1.625
			s0.432-0.996,0.77-1.406c0.336-0.411,0.746-0.74,1.23-0.989c0.482-0.249,1.018-0.374,1.604-0.374c0.703,0,1.297,0.133,1.779,0.396
			c0.484,0.264,0.872,0.6,1.165,1.01s0.498,0.842,0.615,1.297c0.117,0.454,0.176,0.857,0.176,1.209c0,0.176-0.008,0.373-0.022,0.593
			S315.399,100.023,315.34,100.229z"/>
		<path d="M359.857,46.351c0-0.938,0.015-1.89,0.044-2.856s0.132-1.962,0.308-2.988l-6.372,0.352v-3.779
			c1.963,0,3.56-0.066,4.79-0.198s2.219-0.314,2.967-0.549c0.746-0.234,1.325-0.49,1.735-0.769c0.41-0.278,0.776-0.578,1.099-0.901
			h2.637c0.059,0.586,0.117,1.274,0.176,2.065s0.117,1.714,0.176,2.769c0.908-0.791,1.912-1.523,3.01-2.197
			c1.1-0.674,2.256-1.245,3.473-1.714c1.215-0.468,2.453-0.835,3.713-1.099s2.52-0.396,3.779-0.396c2.607,0,5.104,0.513,7.492,1.538
			c2.388,1.026,4.49,2.498,6.307,4.417c1.816,1.919,3.267,4.263,4.351,7.031s1.625,5.896,1.625,9.382
			c0,2.549-0.285,4.952-0.857,7.208c-0.57,2.256-1.369,4.328-2.395,6.218s-2.249,3.581-3.67,5.075s-2.98,2.762-4.68,3.802
			s-3.509,1.839-5.428,2.396c-1.919,0.556-3.889,0.834-5.91,0.834c-4.16,0-7.749-0.981-10.767-2.943l-0.044,14.896
			c0,1.201-0.015,2.264-0.044,3.187s-0.132,1.896-0.308,2.923l5.669-0.264v3.691h-18.369v-2.682c1.377,0,2.424-0.271,3.142-0.812
			c0.718-0.543,1.23-1.297,1.539-2.264c0.307-0.967,0.482-2.124,0.527-3.471c0.043-1.348,0.08-2.828,0.109-4.439L359.857,46.351z
			 M378.182,38.485c-1.055,0-2.08,0.139-3.076,0.418s-1.948,0.646-2.856,1.1s-1.766,0.99-2.57,1.605
			c-0.807,0.616-1.517,1.261-2.132,1.936c0,0.235,0.007,0.507,0.022,0.814c0.014,0.308,0.021,0.828,0.021,1.562s0,1.768,0,3.102
			c0,1.335-0.008,3.124-0.021,5.368c-0.016,2.244-0.03,5.037-0.045,8.38c-0.015,3.344-0.021,7.391-0.021,12.143
			c1.494,1.114,3.135,1.979,4.922,2.596c1.787,0.615,3.662,0.924,5.625,0.924c2.139,0,4.058-0.514,5.757-1.54
			s3.149-2.456,4.351-4.29c1.201-1.832,2.124-4.004,2.769-6.511c0.645-2.508,0.967-5.257,0.967-8.249
			c0-2.435-0.257-4.81-0.769-7.127c-0.514-2.317-1.318-4.385-2.418-6.203c-1.098-1.818-2.512-3.277-4.24-4.377
			S380.643,38.485,378.182,38.485z"/>
		<path d="M431.269,34.09c3.164,0,6.123,0.579,8.877,1.736c2.754,1.158,5.148,2.754,7.186,4.79c2.035,2.037,3.646,4.454,4.834,7.251
			c1.186,2.798,1.779,5.823,1.779,9.075c0,3.487-0.58,6.753-1.736,9.8c-1.158,3.047-2.754,5.697-4.789,7.953
			c-2.037,2.257-4.439,4.037-7.207,5.34c-2.77,1.303-5.75,1.955-8.943,1.955c-3.164,0-6.117-0.564-8.855-1.691
			c-2.74-1.127-5.127-2.703-7.162-4.725c-2.037-2.021-3.641-4.431-4.812-7.229c-1.172-2.797-1.758-5.867-1.758-9.207
			c0-3.544,0.578-6.848,1.736-9.91c1.156-3.061,2.746-5.713,4.768-7.954s4.408-3.999,7.162-5.273S428.075,34.09,431.269,34.09z
			 M431.269,37.518c-2.373,0-4.402,0.528-6.086,1.584c-1.686,1.056-3.07,2.464-4.154,4.223c-1.084,1.76-1.883,3.783-2.395,6.071
			c-0.514,2.288-0.77,4.663-0.77,7.126c0,2.787,0.287,5.5,0.857,8.139c0.572,2.639,1.443,4.979,2.615,7.017s2.643,3.673,4.416,4.905
			c1.771,1.231,3.846,1.848,6.219,1.848s4.373-0.535,5.998-1.605c1.627-1.07,2.945-2.486,3.955-4.246
			c1.012-1.759,1.736-3.768,2.176-6.026s0.658-4.575,0.658-6.951c0-2.698-0.248-5.367-0.746-8.007s-1.289-5-2.373-7.083
			c-1.084-2.082-2.482-3.768-4.197-5.059C435.729,38.164,433.671,37.518,431.269,37.518z"/>
		<path d="M501.229,33.739c-0.762,0.117-1.436,0.359-2.021,0.725c-0.586,0.367-1.1,0.828-1.539,1.384
			c-0.439,0.557-0.799,1.165-1.076,1.824c-0.279,0.659-0.49,1.326-0.637,2c1.494,1.377,2.672,2.988,3.537,4.834
			c0.863,1.846,1.297,3.809,1.297,5.889c0,2.549-0.521,4.885-1.561,7.009c-1.041,2.125-2.439,3.955-4.197,5.493
			s-3.787,2.732-6.086,3.582c-2.301,0.85-4.709,1.273-7.229,1.273c-1.113,0-2.104-0.072-2.967-0.219
			c-0.865-0.146-1.883-0.221-3.055-0.221c-1.113,0-2.131,0.147-3.053,0.439c-0.924,0.293-1.701,0.697-2.33,1.209
			c-0.631,0.513-1.047,1.011-1.252,1.494s-0.309,0.9-0.309,1.252s0.059,0.719,0.176,1.1c0.205,0.703,0.682,1.273,1.43,1.713
			c0.746,0.439,1.721,0.785,2.922,1.033c1.201,0.249,2.629,0.433,4.285,0.549c1.654,0.117,3.521,0.221,5.602,0.309
			c3.457,0.146,6.555,0.477,9.295,0.988c2.738,0.513,5.061,1.289,6.965,2.329s3.363,2.388,4.373,4.043
			c1.012,1.655,1.516,3.698,1.516,6.13s-0.652,4.578-1.955,6.438c-1.305,1.86-3.004,3.428-5.098,4.702
			c-2.096,1.274-4.453,2.241-7.074,2.9c-2.623,0.659-5.268,0.988-7.934,0.988c-4.043,0-7.492-0.352-10.348-1.055
			c-2.857-0.703-5.18-1.633-6.967-2.79s-3.09-2.461-3.91-3.911s-1.23-2.922-1.23-4.416c0-1.378,0.264-2.637,0.791-3.779
			s1.193-2.169,2-3.076c0.805-0.908,1.697-1.692,2.68-2.352c0.98-0.659,1.926-1.193,2.834-1.604
			c-1.934-0.587-3.457-1.429-4.57-2.527s-1.67-2.615-1.67-4.549c0-1.055,0.221-2.087,0.66-3.098s1.055-1.94,1.846-2.791
			c0.791-0.85,1.736-1.566,2.834-2.152c1.1-0.586,2.307-0.996,3.625-1.23c-1.377-0.645-2.621-1.429-3.734-2.352
			s-2.066-1.963-2.857-3.12s-1.398-2.424-1.822-3.801c-0.426-1.377-0.639-2.856-0.639-4.438c0-2.695,0.551-5.142,1.648-7.339
			c1.1-2.197,2.533-4.072,4.307-5.625c1.771-1.553,3.793-2.747,6.064-3.582c2.27-0.835,4.578-1.252,6.922-1.252
			c2.021,0,4.014,0.286,5.977,0.857s3.779,1.414,5.449,2.527c0.439-1.259,1.039-2.432,1.801-3.516
			c0.762-1.083,1.619-2.014,2.572-2.791c0.951-0.776,1.984-1.384,3.098-1.824s2.27-0.659,3.471-0.659
			c1.523,0,2.703,0.396,3.539,1.187c0.834,0.791,1.252,1.89,1.252,3.296c0,0.352-0.074,0.747-0.221,1.187s-0.373,0.85-0.68,1.23
			c-0.309,0.381-0.711,0.703-1.209,0.967s-1.1,0.381-1.803,0.352c-1.025-0.029-1.859-0.344-2.504-0.945
			C501.815,35.358,501.405,34.618,501.229,33.739z M482.333,83.484c-1.67-0.059-3.281-0.131-4.834-0.219s-3.033-0.25-4.439-0.484
			c-1.67,1.081-2.951,2.396-3.844,3.945c-0.895,1.55-1.342,3.201-1.342,4.955c0,1.49,0.359,2.827,1.078,4.012
			c0.717,1.184,1.742,2.199,3.076,3.047c1.332,0.848,2.943,1.498,4.834,1.951c1.889,0.453,3.99,0.68,6.305,0.68
			c2.578,0,4.885-0.264,6.922-0.789c2.035-0.526,3.758-1.229,5.164-2.104c1.406-0.878,2.475-1.894,3.207-3.047
			c0.732-1.155,1.1-2.376,1.1-3.661c0-1.666-0.434-3.018-1.297-4.055c-0.865-1.037-2.064-1.856-3.604-2.454
			c-1.537-0.6-3.355-1.023-5.449-1.271C487.114,83.74,484.823,83.572,482.333,83.484z M481.542,37.254
			c-1.611,0-3.047,0.323-4.307,0.967c-1.26,0.645-2.322,1.538-3.186,2.681c-0.865,1.143-1.525,2.49-1.979,4.043
			c-0.455,1.553-0.682,3.223-0.682,5.01c0,2.168,0.234,4.138,0.703,5.911c0.469,1.773,1.158,3.303,2.066,4.592
			c0.908,1.29,2.021,2.285,3.34,2.988s2.812,1.055,4.482,1.055s3.127-0.307,4.373-0.922c1.244-0.615,2.285-1.473,3.119-2.571
			c0.836-1.099,1.465-2.402,1.891-3.911c0.424-1.509,0.637-3.142,0.637-4.9c0-1.962-0.221-3.852-0.66-5.669
			c-0.439-1.816-1.098-3.406-1.977-4.768s-1.971-2.454-3.273-3.274C484.786,37.665,483.271,37.254,481.542,37.254z"/>
		<path d="M537.22,39.012c-1.143-0.029-2.299,0.183-3.471,0.637c-1.172,0.455-2.322,1.121-3.451,2
			c-1.127,0.879-2.189,1.934-3.186,3.164s-1.889,2.593-2.68,4.087l0.088,22.104c0,1.202-0.016,2.264-0.045,3.187
			s-0.131,1.897-0.307,2.923l5.668-0.264v3.691H511.38v-2.682c1.377,0,2.424-0.27,3.143-0.812c0.717-0.542,1.238-1.297,1.561-2.264
			s0.504-2.123,0.549-3.471c0.043-1.348,0.066-2.828,0.066-4.439V46.307c0-0.938,0.014-1.882,0.043-2.834
			c0.029-0.952,0.133-1.94,0.309-2.966l-6.373,0.264v-3.691h2.77c1.289,0,2.357-0.066,3.207-0.198s1.561-0.314,2.131-0.549
			c0.572-0.234,1.049-0.49,1.43-0.769c0.381-0.278,0.746-0.578,1.098-0.901h2.594c0.088,0.938,0.168,2.103,0.24,3.494
			c0.074,1.392,0.141,3.186,0.199,5.383c0.674-1.113,1.537-2.234,2.592-3.362c1.055-1.127,2.242-2.138,3.561-3.032
			c1.318-0.894,2.738-1.626,4.262-2.197s3.092-0.857,4.703-0.857c0.82,0,1.617,0.11,2.395,0.33c0.775,0.22,1.449,0.564,2.021,1.033
			c0.57,0.469,1.033,1.055,1.385,1.758s0.527,1.553,0.527,2.549c0,0.411-0.082,0.864-0.242,1.362
			c-0.162,0.499-0.426,0.967-0.791,1.406c-0.367,0.439-0.828,0.806-1.385,1.099c-0.557,0.293-1.244,0.439-2.064,0.439
			c-0.674,0-1.283-0.146-1.824-0.439c-0.543-0.292-0.996-0.666-1.363-1.121c-0.365-0.454-0.629-0.981-0.791-1.582
			C537.169,40.324,537.132,39.687,537.22,39.012z"/>
		<path d="M551.546,44.901c0-1.494,0.439-2.9,1.318-4.219s2.109-2.468,3.691-3.45c1.582-0.981,3.465-1.75,5.646-2.307
			c2.184-0.556,4.564-0.835,7.143-0.835c5.039,0,8.752,1.333,11.139,3.999c2.389,2.666,3.568,6.899,3.539,12.7l-0.088,20.214
			c0,0.938-0.023,1.883-0.066,2.835c-0.045,0.952-0.139,2.044-0.285,3.274l6.371-0.352v3.779h-12.875
			c-0.176-1.025-0.309-1.919-0.396-2.682c-0.088-0.762-0.16-1.566-0.219-2.416c-2.021,2.021-4.227,3.618-6.615,4.789
			c-2.387,1.172-4.914,1.758-7.58,1.758c-2.256,0-4.227-0.271-5.91-0.812c-1.686-0.543-3.084-1.297-4.197-2.264
			s-1.947-2.102-2.504-3.405s-0.836-2.702-0.836-4.196c0-1.846,0.402-3.531,1.209-5.055c0.805-1.522,1.889-2.878,3.252-4.064
			c1.361-1.187,2.951-2.212,4.768-3.076c1.816-0.864,3.742-1.575,5.779-2.131c2.035-0.556,4.115-0.959,6.24-1.208
			c2.123-0.249,4.197-0.358,6.219-0.33v-5.625c0-1.553-0.088-3.061-0.264-4.526c-0.176-1.465-0.564-2.797-1.166-3.999
			c-0.6-1.201-1.537-2.153-2.812-2.856c-1.273-0.703-2.746-1.055-4.416-1.055c-0.967,0-1.889,0.081-2.768,0.242
			c-0.879,0.161-1.744,0.433-2.594,0.813c-0.85,0.381-1.619,0.879-2.307,1.494c-0.689,0.615-1.252,1.348-1.691,2.197
			c0.439,0.499,0.738,1.048,0.9,1.648c0.16,0.601,0.242,1.18,0.242,1.736c0,0.352-0.074,0.754-0.221,1.208
			c-0.146,0.455-0.373,0.879-0.682,1.274c-0.307,0.396-0.703,0.718-1.186,0.967c-0.484,0.249-1.135,0.374-1.955,0.374
			c-1.172,0-2.104-0.432-2.791-1.296C551.89,47.179,551.546,46.131,551.546,44.901z M576.243,58.524
			c-1.377,0.059-2.805,0.183-4.285,0.374c-1.479,0.191-2.93,0.483-4.35,0.879c-1.422,0.396-2.762,0.901-4.021,1.517
			c-1.26,0.615-2.357,1.348-3.295,2.197s-1.67,1.83-2.197,2.943c-0.527,1.114-0.762,2.373-0.703,3.779
			c0.029,1.114,0.24,2.088,0.637,2.923c0.395,0.835,0.908,1.523,1.537,2.065c0.631,0.543,1.355,0.952,2.176,1.23
			c0.82,0.279,1.699,0.418,2.637,0.418c1.201,0,2.33-0.117,3.385-0.352s2.057-0.578,3.01-1.033c0.951-0.454,1.875-1.004,2.768-1.648
			c0.895-0.644,1.795-1.391,2.703-2.24V58.524z"/>
		<path d="M600.81,46.351c0-0.938,0.014-1.89,0.043-2.856s0.133-1.962,0.309-2.988l-6.373,0.352v-3.779
			c1.963,0,3.561-0.066,4.791-0.198s2.219-0.314,2.967-0.549c0.746-0.234,1.324-0.49,1.734-0.769c0.41-0.278,0.777-0.578,1.1-0.901
			h2.637c0.059,0.586,0.117,1.274,0.176,2.065s0.117,1.714,0.176,2.769c0.908-0.791,1.912-1.523,3.01-2.197
			c1.1-0.674,2.256-1.245,3.473-1.714c1.215-0.468,2.453-0.835,3.713-1.099s2.52-0.396,3.779-0.396c2.607,0,5.104,0.513,7.492,1.538
			c2.387,1.026,4.49,2.498,6.307,4.417c1.816,1.919,3.266,4.263,4.35,7.031s1.627,5.896,1.627,9.382
			c0,2.549-0.285,4.952-0.857,7.208c-0.57,2.256-1.369,4.328-2.395,6.218s-2.25,3.581-3.67,5.075
			c-1.422,1.494-2.98,2.762-4.68,3.802s-3.51,1.839-5.428,2.396c-1.92,0.556-3.889,0.834-5.91,0.834
			c-4.16,0-7.75-0.981-10.768-2.943l-0.043,14.896c0,1.201-0.016,2.264-0.045,3.187s-0.131,1.896-0.307,2.923l5.668-0.264v3.691
			h-18.369v-2.682c1.377,0,2.424-0.271,3.143-0.812c0.717-0.543,1.23-1.297,1.539-2.264c0.307-0.967,0.482-2.124,0.527-3.471
			c0.043-1.348,0.08-2.828,0.109-4.439L600.81,46.351z M619.134,38.485c-1.055,0-2.08,0.139-3.076,0.418s-1.947,0.646-2.855,1.1
			s-1.766,0.99-2.57,1.605c-0.807,0.616-1.518,1.261-2.133,1.936c0,0.235,0.008,0.507,0.023,0.814
			c0.014,0.308,0.021,0.828,0.021,1.562s0,1.768,0,3.102c0,1.335-0.008,3.124-0.021,5.368c-0.016,2.244-0.031,5.037-0.045,8.38
			c-0.016,3.344-0.021,7.391-0.021,12.143c1.494,1.114,3.135,1.979,4.922,2.596c1.787,0.615,3.662,0.924,5.625,0.924
			c2.139,0,4.057-0.514,5.756-1.54s3.15-2.456,4.352-4.29c1.201-1.832,2.123-4.004,2.768-6.511c0.645-2.508,0.967-5.257,0.967-8.249
			c0-2.435-0.256-4.81-0.768-7.127c-0.514-2.317-1.318-4.385-2.418-6.203c-1.098-1.818-2.512-3.277-4.24-4.377
			S621.595,38.485,619.134,38.485z"/>
		<path d="M654.378,24.291c0-0.938,0.008-1.846,0.021-2.725c0.016-0.879,0.096-1.918,0.242-3.12l-6.371,0.352v-3.779
			c1.963,0,3.596-0.066,4.898-0.198c1.305-0.132,2.367-0.314,3.188-0.549c0.82-0.234,1.465-0.49,1.934-0.769
			c0.469-0.278,0.879-0.578,1.23-0.901h2.592v27.422c0.996-0.82,2.08-1.597,3.252-2.329c1.172-0.732,2.395-1.362,3.67-1.89
			c1.273-0.527,2.578-0.945,3.91-1.252c1.334-0.308,2.645-0.461,3.934-0.461c2.607,0,4.85,0.403,6.725,1.208
			c1.875,0.806,3.404,2.037,4.592,3.691c1.186,1.655,2.064,3.75,2.637,6.284c0.57,2.534,0.871,5.515,0.9,8.943l0.088,16.787
			c0,1.202-0.014,2.264-0.043,3.187s-0.133,1.897-0.309,2.923l5.67-0.264v3.691h-18.369v-2.682c1.377,0,2.424-0.27,3.141-0.812
			c0.719-0.542,1.238-1.297,1.561-2.264s0.506-2.123,0.549-3.471c0.045-1.348,0.066-2.828,0.066-4.439V54.305
			c0-5.186-0.82-9.06-2.461-11.624c-1.641-2.563-4.248-3.845-7.822-3.845c-1.025,0-2.109,0.147-3.252,0.439
			c-1.143,0.293-2.219,0.688-3.23,1.187c-1.01,0.499-1.963,1.084-2.855,1.758c-0.895,0.674-1.678,1.406-2.352,2.197v26.586
			c0,1.202-0.029,2.264-0.088,3.187s-0.176,1.897-0.352,2.923l5.67-0.264v3.691h-18.369v-2.682c1.377,0,2.432-0.27,3.164-0.812
			c0.732-0.542,1.266-1.297,1.604-2.264c0.336-0.967,0.527-2.123,0.57-3.471c0.045-1.348,0.066-2.828,0.066-4.439V24.291z"/>
		<path d="M710.804,100.229c0.322,0.146,0.66,0.219,1.012,0.219c0.527,0,1.207-0.227,2.043-0.681
			c0.834-0.454,1.678-1.413,2.527-2.878c0.762-1.318,1.676-3.289,2.746-5.911c1.068-2.622,2.264-5.765,3.582-9.427
			c-10.166-21.767-15.527-33.31-16.084-34.628s-1.02-2.476-1.385-3.472c-0.367-0.996-0.66-1.86-0.879-2.593
			c-0.221-0.732-0.373-1.347-0.461-1.846l-4.352,0.22v-3.691h18.633v2.681l-0.395,0.044c-1.26,0.088-2.221,0.367-2.879,0.835
			c-0.66,0.469-1.062,1.136-1.209,2c-0.146,0.864-0.059,1.993,0.264,3.384c0.322,1.392,4.439,10.378,12.35,26.96
			c6.24-18.193,9.557-27.758,9.953-28.696c0.395-0.938,0.775-1.758,1.143-2.461c0.365-0.703,0.711-1.171,1.033-1.406l-6.197,0.352
			v-3.691h14.107v2.681c-1.113,0.439-2.074,1.004-2.879,1.692c-0.807,0.688-1.516,1.523-2.131,2.505
			c-0.615,0.982-1.188,2.103-1.715,3.362c-0.527,1.26-4.818,13.111-12.875,35.552c-1.377,3.779-2.637,7.141-3.779,10.085
			s-2.338,5.412-3.582,7.405c-1.246,1.992-2.607,3.508-4.088,4.548c-1.479,1.04-3.215,1.56-5.207,1.56
			c-0.938,0-1.816-0.109-2.637-0.329s-1.537-0.557-2.152-1.011c-0.615-0.455-1.1-1.025-1.451-1.714s-0.527-1.487-0.527-2.396
			c0-0.557,0.088-1.098,0.264-1.625s0.432-0.996,0.77-1.406c0.336-0.411,0.746-0.74,1.23-0.989c0.482-0.249,1.018-0.374,1.604-0.374
			c0.703,0,1.297,0.133,1.779,0.396c0.484,0.264,0.873,0.6,1.166,1.01s0.498,0.842,0.615,1.297c0.117,0.454,0.176,0.857,0.176,1.209
			c0,0.176-0.008,0.373-0.023,0.593C710.899,99.811,710.862,100.023,710.804,100.229z"/>
	</g>
</g>
<g id="Layer_3" display="none">
	<rect x="79.15" y="8.47" display="inline" opacity="0.5" fill="#ED1C24" width="7.653" height="103.061"/>
	<rect x="106.058" y="8.47" display="inline" opacity="0.5" fill="#ED1C24" width="7.653" height="103.061"/>
	<rect x="133.372" y="8.47" display="inline" opacity="0.5" fill="#ED1C24" width="7.653" height="103.061"/>
	<rect x="148.599" y="8.47" display="inline" opacity="0.5" fill="#ED1C24" width="7.653" height="103.061"/>
	<rect x="180.505" y="8.47" display="inline" opacity="0.5" fill="#ED1C24" width="7.653" height="103.061"/>
	<rect x="198.773" y="8.47" display="inline" opacity="0.5" fill="#ED1C24" width="7.653" height="103.061"/>
	<rect x="232.783" y="8.47" display="inline" opacity="0.5" fill="#ED1C24" width="7.653" height="103.061"/>
	<rect x="277.954" y="8.47" display="inline" opacity="0.5" fill="#ED1C24" width="7.653" height="103.061"/>
	<rect x="309.158" y="8.47" display="inline" opacity="0.5" fill="#ED1C24" width="7.653" height="103.061"/>
	<rect x="341.281" y="8.47" display="inline" opacity="0.5" fill="#ED1C24" width="7.653" height="103.061"/>
	<rect x="360.649" y="8.47" display="inline" opacity="0.5" fill="#ED1C24" width="7.653" height="103.061"/>
	<rect x="393.751" y="8.47" display="inline" opacity="0.5" fill="#ED1C24" width="7.653" height="103.061"/>
	<rect x="408.687" y="8.47" display="inline" opacity="0.5" fill="#ED1C24" width="7.653" height="103.061"/>
	<rect x="445.694" y="8.47" display="inline" opacity="0.5" fill="#ED1C24" width="7.653" height="103.061"/>
	<rect x="462.177" y="8.47" display="inline" opacity="0.5" fill="#ED1C24" width="7.653" height="103.061"/>
	<rect x="491.947" y="8.47" display="inline" opacity="0.5" fill="#ED1C24" width="7.653" height="103.061"/>
	<rect x="515.945" y="8.47" display="inline" opacity="0.5" fill="#ED1C24" width="7.654" height="103.061"/>
	<rect x="551.365" y="8.47" display="inline" opacity="0.5" fill="#ED1C24" width="7.653" height="103.061"/>
	<rect x="576.602" y="8.47" display="inline" opacity="0.5" fill="#ED1C24" width="7.653" height="103.061"/>
	<rect x="601.326" y="8.47" display="inline" opacity="0.5" fill="#ED1C24" width="7.654" height="103.061"/>
	<rect x="634.609" y="8.47" display="inline" opacity="0.5" fill="#ED1C24" width="7.653" height="103.061"/>
	<rect x="654.526" y="8.47" display="inline" opacity="0.5" fill="#ED1C24" width="7.653" height="103.061"/>
	<rect x="684.426" y="8.47" display="inline" opacity="0.5" fill="#ED1C24" width="7.652" height="103.061"/>
	<rect x="706.274" y="8.47" display="inline" opacity="0.5" fill="#ED1C24" width="7.652" height="103.061"/>
	<rect x="736.425" y="8.47" display="inline" opacity="0.5" fill="#ED1C24" width="7.652" height="103.061"/>
</g>
</svg>
